<?xml version="1.0" standalone="no"?>
<!DOCTYPE svg PUBLIC "-//W3C//DTD SVG 1.1//EN" "http://www.w3.org/Graphics/SVG/1.1/DTD/svg11.dtd" >
<svg xmlns="http://www.w3.org/2000/svg">
<metadata></metadata>
<defs>
<font id="homestead_twotwo" horiz-adv-x="1273" >
<font-face units-per-em="2048" ascent="1536" descent="-512" />
<missing-glyph horiz-adv-x="702" />
<glyph horiz-adv-x="0" />
<glyph unicode="&#xd;" horiz-adv-x="702" />
<glyph unicode=" "  horiz-adv-x="702" />
<glyph unicode="&#x09;" horiz-adv-x="702" />
<glyph unicode="&#xa0;" horiz-adv-x="702" />
<glyph unicode="!" horiz-adv-x="415" d="M0 430v23l287 286v-51l-258 -258h-29zM0 471v51l287 287v-51zM0 541v51l268 268h19v-33zM0 610v52l199 198h51zM0 680v49l131 131h49zM0 748v51l61 61h52zM0 817v43h43zM47 430l240 240v-52l-189 -188h-51zM117 430l170 170v-51l-119 -119h-51zM184 430l103 102v-51 l-51 -51h-52zM254 430l33 33v-33h-33z" />
<glyph unicode="&#x22;" horiz-adv-x="1003" d="M0 1161l143 430h303l-143 -430h-303zM444 1161l144 430h303l-143 -430h-304z" />
<glyph unicode="#" horiz-adv-x="1560" d="M0 287v4l283 282h51l-287 -286h-47zM0 309v51l213 213h51zM0 379v51l143 143h52zM0 446v52l76 75h51zM0 516v57h57zM66 287l286 286h51l-286 -286h-51zM135 287l287 286h51l-287 -286h-51zM205 287l287 286h51l-287 -286h-51zM272 287l287 286h51l-286 -286h-52zM287 860 v23l286 286v-51l-258 -258h-28zM287 901v51l286 287v-51zM287 971v51l286 287v-52zM287 1040v52l286 286v-51zM287 1110v51l272 273h14v-37zM287 1178v51l205 205h51zM287 1247v51l135 136h51zM287 1317v51l65 66h51zM287 1386v48h47zM334 860l239 240v-51l-188 -189h-51z M342 287l287 286h51l-287 -286h-51zM401 860l172 172v-51l-120 -121h-52zM412 287l286 286h52l-287 -286h-51zM471 860l102 103v-52l-51 -51h-51zM481 287l287 286h51l-287 -286h-51zM541 860l32 33v-33h-32zM551 287l287 286h51l-287 -286h-51zM621 287l286 286h51 l-286 -286h-51zM690 287l287 286h49l-287 -286h-49zM758 287l286 286h52l-287 -286h-51zM827 287l287 286h51l-286 -286h-52zM897 287l287 286h51l-287 -286h-51zM967 287l286 286h52l-287 -286h-51zM1036 287l287 286h51l-287 -286h-51zM1106 287l287 286h41v-10l-277 -276 h-51zM1174 287l260 260v-51l-209 -209h-51zM1243 287l191 190v-51l-140 -139h-51zM1313 287l121 121v-52l-70 -69h-51zM1382 287l52 51v-51h-52z" />
<glyph unicode="$" horiz-adv-x="1206" d="M-14 1008v24v27l383 383h4v4l131 131h51zM-12 991l585 586h52l-631 -631q-2 12 -3 23.5t-3 21.5zM-12 1079q4 16 7 31.5t7 32.5l274 276q31 12 70 19zM-2 932l645 645h16v-35l-649 -649q-8 16 -12 39zM0 0v31l287 286v-51l-267 -266h-20zM0 49v51l287 287v-51zM0 119v51 l260 260h27v-24zM0 188v52l190 190h52zM0 258v51l121 121h51zM0 326v51l53 53h51zM0 395v35h35zM12 1171q29 78 90.5 139.5t145.5 96.5zM14 879l645 645v-51l-628 -629q-4 10 -8.5 18t-8.5 17zM37 834l248 247q-12 -25 -13 -49v-14l-215 -215q-4 8 -10 15t-10 16zM39 0 l248 248v-51l-197 -197h-51zM66 791l210 210q4 -8 7.5 -16t9.5 -16l-205 -205q-10 10 -22 27zM98 754l203 204l12 -12t15 -12l-203 -205q-8 6 -14.5 12.5zM106 0l181 180v-51l-129 -129h-52zM133 721l205 205q8 -4 16 -9.5t17 -9.5l-207 -209q-8 6 -15.5 12.5t-15.5 10.5z M174 692l211 211q0 -2 2 -2q8 -4 16.5 -6t18.5 -6l-217 -217q-8 4 -15.5 10t-15.5 10zM176 0l111 111v-52l-60 -59h-51zM217 666l217 219q10 -4 20.5 -6t20.5 -7l-223 -223q-10 4 -18.5 8.5t-16.5 8.5zM246 0l41 41v-41h-41zM264 643l225 227q10 -4 21.5 -5t21.5 -5 l-233 -231q-10 4 -18.5 7t-16.5 7zM313 623l236 235q6 0 10 -2q12 0 33 -4l-240 -242q-10 4 -19 6t-20 7zM336 1133l323 321v-35q4 0 6.5 -1t6.5 -1l-258 -258q-23 -4 -42.5 -10t-35.5 -16zM365 606l243 242q10 -2 20.5 -4t20.5 -4l-243 -244q-6 0 -19 4q-6 2 -11 3t-11 3z M373 1464v52l61 61h51zM373 1532v45h45zM420 592l244 244q4 0 5 -1t5 -1v-39l-211 -211q-10 2 -21.5 3t-21.5 5zM434 1161l252 250l37 -12l-238 -240q-8 2 -16 2h-18h-17zM477 580l197 196v-51l-154 -154q0 2 -4 2q-10 2 -19.5 3.5t-19.5 3.5zM502 1159l233 234 q10 -4 17.5 -8.5t17.5 -8.5l-223 -223q-10 2 -21.5 3t-23.5 3zM537 569l137 138v-52l-94 -94q-10 4 -21.5 5t-21.5 3zM561 1149l285 285h51l-297 -297q-18 10 -39 12zM594 557l80 80v-51l-39 -39q-10 4 -20.5 6t-20.5 4zM614 1133l301 301h52l-320 -320q-8 4 -16 9t-17 10z M647 543l27 24v-35q-6 4 -12.5 5.5t-14.5 5.5zM659 1108l326 326h51l-348 -349q-8 6 -14 12.5t-15 10.5zM698 1077l357 357h6v-45l-336 -336q-10 12 -27 24zM733 1044l328 328v-51l-301 -303q-6 8 -13.5 14t-13.5 12zM768 1008l293 295v-52l-248 -247h-41zM774 1380v52l2 2 h51zM831 1004l230 229v-51l-178 -178h-52zM901 1004l160 159v-51l-109 -108h-51zM971 1004l90 90v-52l-39 -38h-51zM1040 1004l21 20v-20h-21z" />
<glyph unicode="%" horiz-adv-x="1667" d="M0 1118v23h25zM2 1102l41 39h51l-84 -82q-2 10 -4 21.5t-4 21.5zM14 1044l97 97h51l-133 -133q-4 10 -7.5 18t-7.5 18zM35 995l145 146h35q0 -10 2 -15l-162 -161q-6 8 -11 15t-9 15zM61 952l158 158q6 -16 19 -33l-152 -151q-6 6 -12 13t-13 13zM94 915l154 154 q14 -16 31 -20l-156 -156q-8 4 -14.5 10t-14.5 12zM133 885l160 159q6 -2 20 -2v-26l-149 -152q-8 4 -15.5 10.5t-15.5 10.5zM176 858l137 139v-51l-100 -102q-10 4 -18.5 7t-18.5 7zM225 840l88 88v-51l-45 -48q-10 4 -21 5.5t-22 5.5zM285 829l28 29v-31q-18 0 -28 2z M313 1239v39l144 143q18 -10 32 -20l-161 -162h-15zM313 1296v52l95 92q10 -2 18 -6l18 -9zM313 1364v51l37 37q10 0 21.5 -2t21.5 -6zM313 1434v20h21zM342 1237l158 158q8 -6 14 -12.5t14 -12.5l-153 -151q-12 10 -33 18zM385 1210l152 152q6 -6 12 -13.5t12 -13.5 l-155 -155q-4 8 -9.5 15t-11.5 15zM410 1165l159 160q4 -8 9.5 -15t9.5 -18l-152 -151h-22q0 8 -4 24zM455 1141l141 141q4 -10 7 -18.5t7 -18.5l-104 -104h-51zM524 1141l90 90q8 -23 11 -41l-50 -49h-51zM594 1141l33 33q0 -8 1 -15.5t1 -17.5h-35zM1235 14l276 279h37 v-14l-299 -299q-4 0 -7 -1.5t-7 -1.5v37zM1235 33v51l207 209h51zM1235 102v52l59 61q6 4 19 16l59 62h51zM1235 172v21q8 0 25 4zM1270 -20l276 278q-2 -16 -6 -32.5t-8 -32.5l-197 -197q-16 -6 -32.5 -9t-32.5 -7zM1329 268q4 16 4 25h23zM1364 6l156 156 q-47 -104 -156 -156z" />
<glyph unicode="&#x26;" d="M717 413.5v16.5v16l287 287v-51l-285 -285q-2 8 -2 16.5zM717 465v51l287 287v-51zM717 535v38v13l287 286v-51zM717 604v51l287 287v-51zM717 674v51l278 279h9v-43zM717 743v52l209 209h51zM717 811v51l141 142h51zM717 881v51l71 72h52zM717 950v54h53zM719 381 l285 285v-52l-277 -276q-4 10 -5 21.5t-3 21.5zM731 322l273 274v-23v-28l-261 -262q-10 23 -12 39zM748 270l256 256v-51l-240 -239q-10 18 -16 34zM770 223l234 234v-27q0 -14 2 -22l-218 -218q-4 8 -9 16.5t-9 16.5zM797 180l213 213q2 -10 6 -18t8 -19l-205 -204 q-6 8 -11 14t-11 14zM827 141l203 205q12 -14 27 -27l-205 -202zM862 109l205 202q8 -4 15.5 -8t17.5 -8l-209 -211q-8 6 -14.5 12t-14.5 13zM901 78l213 213q20 -4 33 -4v-15l-215 -215q-8 4 -15.5 9.5t-15.5 11.5zM944 51l203 203v-51l-168 -168q-16 6 -35 16zM991 29 l156 155v-51l-117 -117q-10 4 -19.5 6.5t-19.5 6.5zM1044 12l103 103v-52l-60 -59q-10 2 -21 3t-22 5zM1104 2l43 43v-45h-21.5t-21.5 2z" />
<glyph unicode="'" horiz-adv-x="561" d="M0 1161l143 430h303l-143 -430h-303z" />
<glyph unicode="(" horiz-adv-x="544" d="M0 133v25v26l287 287v-51zM0 203v51l287 287v-52zM0 272v52l287 286v-51zM0 342v51l287 287v-51zM0 410v51l287 287v-52zM0 479v51l287 287v-51zM0 549v51l274 274h13v-38zM0 618v52l205 204h51zM0 688v51l135 135h51zM0 758v51l66 65h51zM0 825v49h49zM2 117l285 284 v-51l-279 -278q-2 12 -3 23t-3 22zM12 57l275 275v-51l-264 -263q-8 23 -11 39zM29 4l258 260v-51l-244 -244l-7 17.5zM49 -43l238 238v-37v-15l-217 -219q-6 8 -11.5 16.5t-9.5 16.5zM76 -86l215 213q2 -18 12 -37l-205 -205q-14 12 -22 29zM106 -125l205 205q8 -16 23 -29 l-203 -203q-6 6 -12 13.5t-13 13.5zM141 -160l203 203q16 -12 33 -18l-209 -209q-6 6 -13.5 12t-13.5 12zM178 -190l211 210q20 -6 41 -6v-6l-221 -219q-8 4 -15.5 9t-15.5 12zM221 -217l209 209v-51l-174 -177q-10 4 -18.5 8.5t-16.5 10.5zM268 -240l162 162v-51l-125 -125 q-10 4 -18 7t-19 7zM319 -258l111 111v-52l-68 -67q-10 2 -21 3t-22 5zM379 -268l51 51v-55q-14 0 -26.5 1t-24.5 3z" />
<glyph unicode=")" horiz-adv-x="544" d="M0 1305v10l217 217q8 -4 15.5 -9t15.5 -12l-211 -211q-10 2 -18.5 3.5t-18.5 1.5zM0 1333v51l172 172q8 -4 16.5 -9t16.5 -9zM0 1403v51l121 121q10 -4 18 -7t19 -7zM0 1473v51l63 63q10 -2 21.5 -4t21.5 -4zM0 1540v51h24.5t22.5 -2zM49 1296l209 209q8 -6 15.5 -12 t13.5 -12l-203 -203q-8 4 -16.5 9t-18.5 9zM94 1270l203 203q6 -6 12 -12.5t13 -14.5l-205 -203q-4 8 -10.5 14.5zM125 1231l205 207q6 -8 11 -15.5t11 -15.5l-213 -211q-4 10 -7 18.5t-7 16.5zM141 1180l217 217q6 -8 11.5 -15.5t9.5 -15.5l-236 -236v31q0 12 -2 19z M143 588v39l287 286v-51l-274 -274h-13zM143 645v51l287 287v-51zM143 715v51l287 287v-52zM143 784v52l287 286v-51zM143 852v51l285 287q2 -10 2 -29v-22zM143 922v51l277 278q4 -10 5 -22t3 -23zM143 991v51l263 263q4 -10 6 -19.5t6 -19.5zM143 1061v51l242 242 q4 -10 8 -18.5t8 -18.5zM174 588l256 256v-51l-205 -205h-51zM244 588l186 186v-51l-135 -135h-51zM311 588l119 119v-52l-68 -67h-51zM381 588l49 49v-49h-49z" />
<glyph unicode="*" horiz-adv-x="690" d="M0 1229l10 16l90 90l33 -18l-104 -105zM35 1288l37 64l16 -11zM39 1206l104 105l33 -19l-104 -106zM84 1180l104 104l25 -12v37l125 125h18v-33l-239 -240zM127 1155l229 227v-51l-196 -194zM172 1128l184 187v-51l-153 -154zM213 860v33l240 240l32 -19l-106 -104 l-23 12v-37l-125 -125h-18zM213 911v52l195 194l32 -18zM213 981v51l152 152l32 -19zM213 1051v51l143 143v-51zM213 1327v51l55 56h51zM213 1397v37h37zM248 860l108 107v-52l-57 -55h-51zM317 860l39 39v-39h-39zM391 1001l105 107l32 -18l-104 -107zM434 977l107 104 l26 -16l-8 -14l-92 -93zM479 952l56 56l-39 -66z" />
<glyph unicode="+" horiz-adv-x="989" d="M287 860v33l254 254h32v-19l-268 -268h-18zM287 911v52l184 184h51zM287 979v51l116 117h52zM287 1049v51l47 47h51zM287 1118v29h28zM324 860l249 250v-51l-198 -199h-51zM393 860l180 180v-51l-129 -129h-51zM463 860l110 111v-51l-59 -60h-51zM532 860l41 41v-41h-41z " />
<glyph unicode="," horiz-adv-x="561" d="M0 -143l143 430h303l-143 -430h-303z" />
<glyph unicode="-" horiz-adv-x="989" d="M0 573v23l264 264h23v-29l-258 -258h-29zM0 614v52l195 194h51zM0 682v51l127 127h51zM0 752v51l57 57h52zM0 821v39h39zM47 573l240 240v-51l-189 -189h-51zM117 573l170 170v-51l-119 -119h-51zM186 573l101 101v-51l-49 -50h-52zM256 573l31 31v-31h-31z" />
<glyph unicode="." horiz-adv-x="458" d="M0 172q0 72 50 122t122 50t122 -50t50 -122t-50 -122t-122 -50t-122 50t-50 122z" />
<glyph unicode="/" horiz-adv-x="989" d="M0 -129l12 35l453 454l-25 -77l-413 -412h-27zM20 -66l27 76l420 420h22l-14 -43zM45 -129l385 385l-24 -76l-310 -309h-51zM55 37l27 78l315 315h52zM90 141v2l27 76l211 211h51zM115 -129l280 281l-2 -9l-22 -67l-205 -205h-51zM125 246l25 76l108 108h51zM160 350 l26 80h54zM184 -129l176 178l-24 -78l-100 -100h-52zM254 -129l72 74l-23 -74h-49z" />
<glyph unicode="0" horiz-adv-x="1118" d="M0 412.5v17.5v16l270 271h17v-35l-285 -287q-2 10 -2 17.5zM0 465v51l201 201h51zM0 532v52l133 133h51zM0 602v51l63 64h52zM0 672v45h45zM0 1018q2 16 2 29.5t4 27.5l352 352q14 4 27.5 4.5t30.5 2.5zM2 379l285 285v-52l-277 -276q-2 10 -4 21.5t-4 21.5zM4 1004 l430 430h51l-430 -430h-51zM10 1098q10 45 25 76l225 225q31 14 76 24zM14 322l273 272v-51l-260 -260q-4 10 -6.5 19t-6.5 20zM31 268l256 256v-51l-240 -240q-4 10 -8 18.5t-8 16.5zM53 223l234 232v-25q0 -16 2 -24l-215 -216q-10 14 -21 33zM53 1210q59 111 170 170z M72 1004l430 430h51l-430 -430h-51zM80 180l213 211q2 -10 6 -18t8 -17l-205 -204q-6 6 -11 13t-11 15zM111 141l204 203q4 -6 10.5 -13t14.5 -12l-203 -202q-6 6 -13 12t-13 12zM141 1004l430 430h2h23.5t24.5 -2l-428 -428h-52zM147 106l203 205q8 -6 16.5 -9t18.5 -7 l-211 -211q-6 6 -13 11t-14 11zM184 76l215 215q20 -4 31 -4h16l-229 -230q-8 4 -16 9.5t-17 9.5zM211 1004l426 426q10 -2 21.5 -4.5t21.5 -4.5l-277 -276q-43 -10 -73.5 -41t-40.5 -74l-27 -26h-51zM227 51l238 236h51l-254 -252l-16 8t-19 8zM276 29l259 258h38v-13 l-260 -258zM281 1004l6 6v-6h-6zM328 12l245 244v-51l-200 -201q-29 4 -45 8zM387 2l186 186v-51l-137 -137h-6h-21.5t-21.5 2zM424 1147l270 270q10 -4 18.5 -7t18.5 -7l-256 -256h-45h-6zM455 0l118 119v-51l-67 -68h-51zM494 1147l249 252q10 -4 18.5 -9.5t16.5 -9.5 l-233 -233h-51zM524 0l49 49v-49h-49zM563 1147l228 227q8 -4 15 -9t15 -11l-213 -211q-20 4 -35 4h-10zM623 1139l208 209q8 -6 14.5 -12.5t14.5 -12.5l-205 -203q-8 6 -15 10.5t-17 8.5zM666 1112l202 203q14 -12 27 -27l-205 -203q-8 14 -24 27zM698 1075l205 205 q6 -8 11.5 -15.5t11.5 -13.5l-213 -213q-4 10 -7.5 18.5t-7.5 18.5zM715 1022l217 217q6 -8 11 -15t9 -16l-204 -204h-31q0 12 -2 18zM766 1004l192 192q8 -16 15 -35l-156 -157h-51zM836 1004l143 143q4 -10 6 -19.5t6 -19.5l-104 -104h-51zM905 1004l88 90q4 -16 8 -45 l-47 -45h-49zM973 1004l28 28q2 -10 3 -28h-31z" />
<glyph unicode="1" horiz-adv-x="702" d="M143 0v47l287 287v-51l-283 -283h-4zM143 66v51l287 286v-51zM143 135v51l287 287v-51zM143 205v51l287 287v-51zM143 272v52l287 286v-51zM143 342v51l287 287v-51zM143 412v51l287 287v-52zM143 481v51l287 287v-51zM143 551v51l287 287v-51zM143 621v51l287 286v-51z M143 688v51l287 287v-51zM143 758v51l287 287v-52zM143 827v52l287 286v-51zM143 897v51l287 287v-51zM143 967v51l287 287v-52zM143 1036v51l287 287v-51zM143 1104v51l279 279h8v-43zM143 1174v51l209 209h51zM143 1243v51l140 140h51zM143 1313v51l70 70h51zM143 1382v52 h52zM166 0l264 264v-51l-213 -213h-51zM236 0l194 195v-52l-143 -143h-51zM305 0l125 125v-49l-76 -76h-49zM373 0l57 57v-57h-57z" />
<glyph unicode="2" horiz-adv-x="1132" d="M0 1004v18t2 18l391 392q10 2 18.5 2h18.5h14l-430 -430h-14zM4 1061q2 16 6 32.5t8 32.5l289 289q16 4 32.5 8t33.5 7zM27 1153q25 66 69 121l64 63q55 45 121 70zM33 1004l430 430h51l-430 -430h-51zM102 1004l430 430h41v-11l-419 -419h-52zM172 1004l401 401v-51 l-350 -350h-51zM242 1004l57 57q-12 -29 -12 -57h-45zM373 1135l200 200v-51l-137 -137h-6q-31 0 -57 -12zM455 1147l118 119v-52l-67 -67h-51zM524 1147l49 49v-49h-49zM717 0v33l287 286v-51l-269 -268h-18zM717 51v51l287 287v-51zM717 121v51l258 258h29v-22zM717 188 v52l190 190h51zM717 258v51l121 121h51zM717 328v51l51 51h51zM717 397v33h33zM754 0l250 250v-51l-199 -199h-51zM823 0l181 180v-51l-130 -129h-51zM893 0l111 111v-52l-60 -59h-51zM961 0l43 43v-43h-43z" />
<glyph unicode="3" horiz-adv-x="1118" d="M0 411.5v18.5h39l-37 -37q-2 10 -2 18.5zM0 1004v21t2 22l385 385q10 2 21.5 2h21.5v-11l-420 -419h-10zM4 377l53 53h49l-96 -96zM4 1069q4 16 8 32.5t8 33.5l279 278q16 4 32.5 8t33.5 9zM14 319l111 111h51l-149 -149q-4 10 -6.5 19t-6.5 19zM27 1004l403 403v-51 l-352 -352h-51zM31 1163q35 82 96 143.5t143 96.5zM33 266l162 164h51l-197 -199q-4 10 -8 18.5t-8 16.5zM55 221l209 209h23v-13t2 -14l-215 -215q-4 8 -9.5 15.5t-9.5 17.5zM82 178l211 211q4 -10 7 -18.5t9 -16.5l-205 -204q-6 8 -12 14t-10 14zM96 1004l334 333v-51 l-283 -282h-51zM113 139l202 205q12 -14 27 -27l-203 -202q-8 6 -14 12zM147 106l205 203q18 -10 35 -16l-211 -209q-8 4 -14 10t-15 12zM166 1004l264 264v-51l-213 -213h-51zM186 76l215 213q8 -2 29 -2h19l-230 -232q-18 10 -33 21zM229 49l238 238h51l-254 -254l-16 8 t-19 8zM236 1004l69 69q-18 -31 -18 -69h-51zM279 29l258 258h36v-15l-256 -258q-25 6 -38 15zM332 12l241 242v-51l-198 -199q-10 2 -21.5 3t-21.5 5zM360 1128l70 70v-51q-39 0 -70 -19zM391 2l182 182v-51l-133 -133h-10h-19.5t-19.5 2zM430 573v23l250 250q20 -2 39 -12 l-260 -261h-29zM430 614v52l193 192q10 -2 21 -3t22 -5zM430 684v51l125 125h18h15.5t17.5 -2zM430 754v49l57 57h50zM430 821v39h39zM459 0l114 115v-52l-63 -63h-51zM477 573l256 256q10 -4 17.5 -8t17.5 -8l-240 -240h-51zM526 0l47 47v-47h-47zM547 573l233 234l31 -19 l-215 -217q-8 2 -23 2h-26zM610 569l213 211q6 -4 13.5 -10t15.5 -12l-205 -205q-10 4 -18 8t-19 8zM657 547l203 203q8 -6 14.5 -12.5l12.5 -12.5l-203 -203q-6 6 -12 12.5t-15 12.5zM692 512l203 203q12 -14 23 -29l-209 -209q-4 10 -8.5 17.5t-8.5 17.5zM713 463l213 213 q6 -8 11 -15.5t9 -15.5l-215 -215h-14q0 10 -1 17.5t-3 15.5zM750 430l202 203q10 -18 17 -35l-168 -168h-51zM819 430l156 156q4 -10 6 -19.5t6 -19.5l-117 -117h-51zM889 430l102 102q4 -10 5 -21t3 -22l-59 -59h-51zM956 430l45 45q2 -12 2.5 -23.5t0.5 -21.5h-48z" />
<glyph unicode="4" horiz-adv-x="1132" d="M573 0v37l287 287v-52l-272 -272h-15zM573 55v51l287 287v-51zM573 125v51l287 287v-51zM573 195v51l287 286v-51zM573 262v51l287 287v-51zM573 332v51l287 287v-52zM573 401v52l287 286v-51zM573 471v51l287 287v-51zM573 541v51l287 287v-52zM573 610v52l287 286v-51z M573 678v51l275 275h12v-39zM573 748v51l205 205h51zM573 817v51l136 136h51zM573 887v51l66 66h51zM573 956v48h48zM606 0l254 254v-51l-203 -203h-51zM676 0l184 184v-51l-133 -133h-51zM743 0l117 117v-51l-65 -66h-52zM813 0l47 47v-47h-47z" />
<glyph unicode="5" horiz-adv-x="1077" d="M0 631v39l287 286v-51l-275 -274h-12zM0 688v51l287 287v-51zM0 758v51l287 287v-52zM0 827v52l287 286v-51zM0 897v51l287 287v-51zM0 965v51l287 287v-52zM0 1034v51l287 287v-51zM0 1104v51l279 279h8v-43zM0 1174v51l209 209h51zM0 1243v51l139 140h51zM0 1313v51 l70 70h51zM0 1380v54h53zM31 631l256 256v-51l-205 -205h-51zM98 631l189 188v-51l-137 -137h-52zM168 631l119 119v-52l-68 -67h-51zM238 631l49 49v-49h-49zM502 0l459 459q0 -14 -1.5 -27.5t-3.5 -25.5l-401 -402q-12 -2 -25.5 -3t-27.5 -1zM502 18v52l454 454 q2 -12 2 -23.5t3 -23.5zM502 88v51l442 443q4 -10 5 -20.5t3 -20.5zM502 158v51l424 424q4 -10 7 -18.5t7 -18.5zM502 227v52l8 8q39 2 72 20zM502 643v51l184 185q10 -4 17.5 -8.5t17.5 -8.5zM502 713v51l135 133l37 -12zM502 782v52l78 77q10 -4 21 -5t22 -5zM502 850v51 l14 17q12 0 24.5 -1.5t22.5 -3.5zM508 631l225 225q8 -6 15.5 -11t15.5 -9l-213 -213q-10 4 -21.5 6t-21.5 2zM565 618l209 209q8 -4 14.5 -10t14.5 -12l-205 -205q-16 12 -33 18zM575 6l379 379q-4 -18 -8 -34.5t-8 -33.5l-295 -294q-16 -4 -32.5 -8.5t-35.5 -8.5zM608 594 l203 203q14 -12 27 -27l-203 -203q-12 14 -27 27zM643 557l203 205q6 -8 12 -14.5t10 -14.5l-206 -209q-4 10 -9.5 17.5t-9.5 15.5zM645 1004v26l287 287v-51l-262 -262h-25zM645 1049v51l287 286v-51zM645 1118v51l264 265h23v-29zM645 1188v51l195 195h51zM645 1257v52 l125 125h51zM645 1327v51l55 56h52zM645 1395v39h39zM653 379q18 33 21 72l229 229q10 -18 17 -35zM666 512l211 211q6 -8 11 -15.5t9 -15.5l-223 -225q-4 29 -8 45zM672 33l256 256q-33 -80 -86 -137l-33 -33q-57 -53 -137 -86zM686 1004l246 245v-51l-195 -194h-51z M756 1004l176 176v-52l-125 -124h-51zM825 1004l107 106v-51l-55 -55h-52zM895 1004l37 36v-36h-37z" />
<glyph unicode="6" horiz-adv-x="1118" d="M287 430v12v-12zM287 461v51l344 344q29 -4 43 -8l-279 -279q-39 -10 -66.5 -37.5t-37.5 -66.5zM287 528v52l280 280h6h21.5t21.5 -2zM287 598v51l211 211h51zM287 668v51l141 141h2h49zM287 737v51l63 64q16 4 29.5 5t30.5 3zM287 807v29q10 4 20 6t21 6zM418 573 l270 271q10 -4 19.5 -6t19.5 -7l-258 -258h-39h-12zM430 1147v14l256 258q25 -6 39 -14l-258 -258h-37zM430 1180v51l199 199q10 -2 21.5 -3.5t21.5 -5.5zM430 1249v51l133 134h10h19.5t19.5 -2zM430 1319v51l64 64h51zM430 1389v45h45zM485 1147l254 254q16 -6 33 -17 l-235 -237h-52zM487 573l254 254q8 -4 16.5 -9t16.5 -9l-235 -236h-52zM553 1147l231 231q8 -4 16.5 -9t16.5 -11l-215 -213q-10 2 -29 2h-20zM557 573l229 230q8 -4 16.5 -9.5t14.5 -9.5l-213 -215q-20 4 -31 4h-16zM616 1141l211 211q8 -6 14.5 -12.5t14.5 -12.5 l-205 -203q-18 10 -35 17zM618 565l211 211q6 -6 13.5 -11t13.5 -11l-203 -205q-8 6 -16 9t-19 7zM662 1116l202 203q8 -6 14.5 -12.5l12.5 -12.5l-203 -204q-12 14 -26 26zM664 541l202 202q6 -6 13.5 -12t13.5 -12l-205 -203q-4 6 -10 13.5t-14 11.5zM694 1079l205 205 q12 -14 23 -29l-211 -211q-4 10 -7.5 18.5t-9.5 16.5zM696 504l205 205q4 -6 10.5 -13.5t12.5 -15.5l-213 -211q-2 10 -6.5 18.5t-8.5 16.5zM715 455l215 215q6 -8 11 -15.5t9 -15.5l-209 -209h-24q0 16 -2 25zM715 1030l215 215q4 -8 9 -15t9 -18l-209 -208h-22v13t-2 13z M758 1004l196 198q4 -10 8.5 -18t8.5 -17l-162 -163h-51zM760 430l196 197q4 -10 8.5 -18.5t8.5 -16.5l-162 -162h-51zM825 1004l152 149q4 -10 6 -19.5t6 -19.5l-112 -110h-52zM829 430l148 148q4 -10 6 -19.5t6 -19.5l-108 -109h-52zM895 1004l98 96l6 -43l-53 -53h-51z M899 430l94 94q2 -10 4 -21t2 -22l-49 -51h-51zM965 1004l36 36q2 -10 2.5 -18t0.5 -18h-39zM969 430l32 35q2 -10 2.5 -17.5t0.5 -17.5h-35z" />
<glyph unicode="7" horiz-adv-x="1118" d="M193 0l12 33l489 489l-30 -82l-441 -440h-30zM217 61l31 82l487 490l-30 -82zM242 0l411 412l-30 -82l-330 -330h-51zM258 174l31 80l489 489l-30 -81zM299 285l31 80l489 489l-31 -82zM311 0l301 301l-30 -82l-220 -219h-51zM340 395l31 80l489 490l-31 -82zM381 0 l190 190l-30 -81l-109 -109h-51zM383 506l29 82l489 487l-31 -82zM424 616l31 82l487 488l-31 -82zM449 0l79 80l-28 -80h-51zM465 727l31 82l489 487l-31 -82zM506 838l31 82l489 487l-31 -82zM547 948l31 82l405 404h51zM590 1059l31 82l292 293h52zM631 1169l31 82 l182 183h51zM672 1280l30 82l72 72h51zM713 1391l16 43h27z" />
<glyph unicode="8" horiz-adv-x="1118" d="M0 412v18v16.5t2 16.5l184 186q8 -6 16.5 -11t16.5 -9zM2 393l227 230q10 -4 18.5 -8.5t18.5 -8.5l-258 -258q-6 25 -6 45zM4 483q2 33 12 64l131 133q8 -6 14.5 -12t14.5 -11zM10 334l269 268q14 -8 38 -14l-294 -293q-4 10 -6.5 19.5t-6.5 19.5zM25 573q23 63 57 109 l31 31q6 -6 12 -12.5t14 -12.5zM27 281l305 305q10 -4 21.5 -5t21.5 -3l-332 -334q-4 10 -8 18t-8 19zM49 233l248 248q-10 -27 -10 -51v-10l-219 -219q-12 16 -19 32zM74 188l215 215q2 -10 5 -18t7 -18l-205 -207q-6 8 -12 14t-10 14zM104 150l205 204q8 -16 23 -28 l-203 -203q-6 6 -12 13t-13 14zM137 115l205 202q10 -10 31 -18l-207 -207q-8 4 -14.5 10.5t-14.5 12.5zM176 84l211 209q18 -6 43 -6l-223 -224q-8 4 -15.5 9.5t-15.5 11.5zM217 55l232 232h51l-248 -248q-10 4 -17.5 8t-17.5 8zM264 33l254 254h51l-268 -267 q-10 2 -18.5 5.5t-18.5 7.5zM315 16l258 256v-51l-215 -215q-10 2 -21 4t-22 6zM373 4l200 199v-51l-151 -152q-12 0 -24.5 1t-24.5 3zM430 1155v51l221 221q10 -4 20.5 -5t20.5 -5zM430 1225v51l158 158q12 0 24.5 -1t22.5 -3zM430 1294v52l88 88h51zM430 1362v51l21 21h51 zM430 1432v2h2zM438 0l135 135v-51l-84 -84h-51zM440 1147l267 266q10 -4 18 -7t18 -7l-251 -252h-52zM508 0l65 66v-52l-14 -14h-51zM510 1147l246 246q10 -4 17 -8.5t15 -8.5l-227 -229h-51zM580 1147l221 221q8 -4 15 -9t15 -11l-210 -209q-10 4 -20.5 6t-20.5 2z M635 856l328 330q4 -10 8 -18.5t8 -18.5l-301 -301q-10 2 -21.5 4t-21.5 4zM635 1133l207 206q16 -12 26 -22l-202 -203q-8 4 -15.5 9t-15.5 10zM676 1104l203 203q6 -6 12 -12.5t12 -14.5l-207 -205q-4 8 -9 15.5t-11 13.5zM692 844l291 291q8 -23 10 -39l-264 -265z M702 942q14 27 15 62v4l221 221q12 -16 18 -33zM702 1063l207 207q12 -14 23 -29l-217 -217q-2 20 -13 39zM743 825l254 254q2 -10 3 -22.5t1 -22.5l-225 -225q-16 10 -33 16zM788 803l216 213v-12v-19.5t-3 -19.5l-182 -183q-8 4 -15 10.5t-16 10.5zM829 774l170 170 q-4 -16 -7 -32.5t-7 -32.5l-127 -127q-14 12 -29 22zM868 743l107 107q-27 -68 -78 -129l-4 -4q-6 8 -12.5 14t-12.5 12z" />
<glyph unicode="9" horiz-adv-x="1118" d="M0 406.5v23.5h49l-47 -47q-2 12 -2 23.5zM0 987v17v18t2 16l393 394q8 2 16.5 2h18.5h16zM2 969l463 465h51l-508 -510q-6 25 -6 45zM4 367l64 63h51l-107 -106q-2 10 -4 21zM4 1059q4 35 12 65l293 293q31 8 66 13zM10 909l525 525h38h13l-563 -566q-4 10 -6.5 20.5 t-6.5 20.5zM16 309l121 121h51l-157 -158q-4 10 -7.5 18.5t-7.5 18.5zM27 856l575 576q12 0 23.5 -1t23.5 -4l-608 -608q-4 10 -7 18.5t-7 18.5zM27 1151q20 59 63 115l78 77q55 43 115 64zM35 258l172 172h51l-205 -205q-4 8 -9 16.5t-9 16.5zM47 807l250 252 q-10 -31 -10 -55v-9l-221 -221q-4 10 -9.5 17.5t-9.5 15.5zM59 213l217 217h11q0 -14 4 -35l-211 -213q-6 8 -11.5 15.5t-9.5 15.5zM74 764l215 215q4 -23 12 -37l-207 -207q-4 6 -10 13.5t-10 15.5zM86 172l209 209q4 -10 8 -18.5t10 -16.5l-202 -203q-6 6 -12.5 13.5 t-12.5 15.5zM102 725l205 205q8 -16 23 -29l-203 -203q-6 6 -12 12.5t-13 14.5zM119 133l203 205q12 -16 26 -25l-203 -204q-8 6 -14 12zM137 690l203 203q8 -6 15 -11t16 -10l-207 -206q-6 6 -13.5 12t-13.5 12zM154 100l204 205q10 -4 18.5 -7t18.5 -7l-213 -213 q-6 6 -13 11t-15 11zM174 657l211 211q16 -8 43 -8l-223 -223q-8 4 -15.5 10t-15.5 10zM195 72l217 217q6 -2 18 -2h31l-236 -236q-8 4 -15 9.5t-15 11.5zM217 631l213 213v-51l-180 -181q-8 4 -16.5 9.5t-16.5 9.5zM238 45l241 242h51l-258 -256q-8 4 -16 7t-18 7zM262 608 l168 166v-51l-129 -129q-25 6 -39 14zM287 25l262 262h24v-27l-247 -248q-10 4 -19.5 6t-19.5 7zM313 590l117 115v-52l-74 -73q-10 2 -21 4t-22 6zM340 10l233 232v-52l-188 -188q-29 4 -45 8zM371 578l59 59v-51l-10 -13q-12 0 -24.5 1t-24.5 4zM375 1137l289 286l20 -4 t21 -6l-267 -266h-8q-25 0 -55 -10zM401 2l172 172v-51l-122 -123h-21q-18 0 -29 2zM457 1147l260 262q10 -4 18 -7t19 -7l-246 -248h-51zM469 0l104 104v-51l-53 -53h-51zM524 1147l242 242q10 -4 17.5 -9.5t15.5 -9.5l-224 -223h-2h-49zM539 0l34 35v-35h-34zM594 1145 l217 217q6 -4 13 -10t16 -11l-207 -206q-23 8 -39 10zM645 1128l205 205q6 -6 13 -12l14 -12l-203 -203q-14 12 -29 22zM682 1096l203 202l12 -12t12 -14l-207 -207q-10 20 -20 31zM709 1053l209 209q4 -8 10 -15.5t10 -15.5l-221 -221q0 10 -2 21t-6 22zM729 1004l215 217 q4 -10 9 -17.5t10 -17.5l-183 -182h-51zM797 1004l172 170q4 -10 7 -18.5t7 -18.5l-135 -133h-51zM866 1004l121 118q4 -10 5 -20t3 -21l-77 -77h-52zM936 1004l63 63q2 -12 3.5 -24.5t1.5 -22.5l-17 -16h-51z" />
<glyph unicode=":" horiz-adv-x="458" d="M0 430q0 72 50 122t122 50t122 -50t50 -122t-50 -122t-122 -50t-122 50t-50 122zM0 1004q0 72 50 122t122 50t122 -50.5t50 -121.5q0 -72 -50 -122.5t-122 -50.5t-122 50.5t-50 122.5z" />
<glyph unicode=";" horiz-adv-x="561" d="M0 -143l143 430h303l-143 -430h-303zM100 717q0 72 50 122t122 50t122 -50.5t50 -121.5q0 -72 -50 -122t-122 -50t-122 50t-50 122z" />
<glyph unicode="&#x3c;" horiz-adv-x="989" />
<glyph unicode="=" d="M0 717v22l264 265h51l-286 -287h-29zM0 758v51l195 195h51zM0 827v52l125 125h51zM0 897v51l55 56h51zM0 965v39h39zM47 717l287 287h51l-287 -287h-51zM117 717l286 287h52l-287 -287h-51zM184 717l287 287h51l-286 -287h-52zM254 717l287 287h32v-19l-268 -268h-51z M287 287v24l262 262h51l-287 -286h-26zM287 330v51l192 192h51zM287 399v52l123 122h51zM287 467v51l55 55h51zM287 537v36h37zM324 717l249 250v-52l-198 -198h-51zM332 287l286 286h52l-287 -286h-51zM393 717l180 180v-51l-129 -129h-51zM401 287l287 286h51l-286 -286 h-52zM463 717l110 110v-51l-59 -59h-51zM471 287l287 286h51l-287 -286h-51zM532 717l41 41v-41h-41zM539 287l286 286h35v-16l-270 -270h-51zM608 287l252 252v-52l-201 -200h-51zM678 287l182 182v-51l-131 -131h-51zM748 287l112 112v-51l-61 -61h-51zM817 287l43 43v-43 h-43z" />
<glyph unicode="&#x3e;" horiz-adv-x="989" d="M0 977v51l174 174l35 -16zM0 1047v51l129 129l33 -19zM0 1116v51l82 82l35 -18zM0 1184v51l37 37l33 -17zM0 1253v37l25 -12zM8 967l213 213l35 -17l-215 -215zM53 942l215 215l33 -18l-213 -213zM100 920l213 213l35 -17l-215 -213zM145 897l215 213l33 -16l-213 -215z M193 872l213 215l34 -16l-213 -215zM238 850l215 215l32 -18l-213 -213zM285 827l213 213l34 -16l-213 -213zM332 805l213 213l35 -17l-215 -215zM377 780l213 215l35 -18l-213 -213zM424 758l213 213l35 -17l-215 -213zM469 735l215 213l33 -16l-213 -215zM516 713l213 213 l35 -17l-215 -215zM561 688l215 215l33 -18l-213 -213zM608 666l213 213l35 -17l-213 -213zM653 643l207 205v-51l-172 -172zM700 618l160 160v-51l-125 -125zM748 596l112 115v-52l-80 -79zM793 573l67 68v-51l-33 -33zM840 551l20 20v-32z" />
<glyph unicode="?" horiz-adv-x="1118" d="M330 0v25l262 262h24v-27l-260 -260h-26zM330 43v51l192 193h51zM330 113v51l123 123h51zM330 182v51l53 54h51zM330 252v35h35zM373 0l243 242v-49l-192 -193h-51zM430 1147v18l254 254q10 -4 19.5 -6t19.5 -6l-260 -260h-33zM430 1184v51l197 195l43 -7zM430 1253v52 l129 129h14h18.5t18.5 -2zM430 1321v51l62 62h51zM430 1391v43h43zM442 0l174 174v-51l-122 -123h-52zM481 1147l254 254q16 -6 35 -17l-238 -237h-51zM512 0l104 104v-51l-53 -53h-51zM551 1147l231 231q8 -4 16.5 -9t16.5 -9l-215 -215q-10 2 -27 2h-22zM582 0l34 35v-35 h-34zM614 1141l211 211q8 -4 14.5 -10.5t14.5 -12.5l-205 -205q-8 6 -16 9.5t-19 7.5zM659 1118l203 203q8 -6 14.5 -12t12.5 -13l-203 -204q-12 14 -27 26zM694 1081l203 205q6 -8 12 -14t11 -15l-209 -210q-6 16 -17 34zM713 1032l215 215q4 -8 10 -15t10 -15l-231 -232 v19q0 12 -4 28zM717 860v37l258 258q8 -18 12 -37l-256 -258h-14zM717 915v52l237 237q4 -10 8.5 -17t8.5 -18zM750 860l241 244q4 -10 5 -21.5t3 -21.5l-198 -201h-51zM817 860l184 184q2 -10 2.5 -20t0.5 -20v-9l-136 -135h-51zM887 860l117 117v-51l-66 -66h-51zM956 860 l48 47v-47h-48z" />
<glyph unicode="@" horiz-adv-x="1538" d="M0 694.5v22.5h47l-45 -45q-2 10 -2 22.5zM2 653l64 64h51l-109 -109q-2 10 -3 22.5t-3 22.5zM10 594l125 123h51l-166 -166q-4 10 -5 21.5t-5 21.5zM23 537l182 180h10v-19.5t2 -19.5l-182 -182q-4 10 -6 20t-6 21zM39 483l180 179q0 -20 6 -46l-172 -170q-4 10 -7 18.5 t-7 18.5zM59 432l168 170q4 -10 6.5 -19.5t6.5 -19.5l-164 -166q-4 10 -8.5 18.5t-8.5 16.5zM82 387l162 162q4 -10 7 -18.5t7 -18.5l-158 -160q-14 20 -18 35zM106 342l158 158q4 -8 9.5 -16.5t9.5 -16.5l-156 -156q-6 8 -11 15.5t-10 15.5zM133 301l156 154q4 -8 10 -15.5 t10 -15.5l-153 -154q-6 8 -11.5 15.5t-11.5 15.5zM164 260l153 154q4 -8 10.5 -14.5t12.5 -14.5l-152 -152q-6 6 -12 13.5t-12 13.5zM197 225l151 152q12 -14 27 -27l-154 -151l-12 12t-12 14zM231 190l152 152q8 -6 14 -12t15 -11l-154 -153q-6 6 -13 12zM268 158l154 153 q8 -6 15 -11t16 -9l-156 -156q-6 6 -13.5 11.5t-15.5 11.5zM309 129l156 156q16 -12 33 -19l-158 -157q-8 4 -15.5 9t-15.5 11zM350 100l160 160q16 -8 35 -14l-162 -164q-8 4 -16.5 9t-16.5 9zM395 76l164 164q23 -8 41 -11l-170 -170q-10 4 -17 8.5t-18 8.5zM442 55 l172 170l43 -6l-178 -178q-10 4 -18 7t-19 7zM494 37l180 180q10 -2 21.5 -2h21.5v-6l-185 -184q-23 4 -38 12zM547 20l170 170v-51l-127 -127q-10 2 -21.5 3t-21.5 5zM604 8l113 113v-51l-66 -66q-12 0 -23.5 1t-23.5 3zM668 2l49 49v-51h-24.5t-24.5 2zM707 406v51 l309 311q4 -12 4 -24.5v-24.5zM707 475v51l294 295q10 -18 13 -39zM707 545v51l26 25q53 16 70 69l178 180q4 -10 8 -17t8 -17zM707 614v4h4zM707 821v51l129 132q10 -4 17 -9.5t17 -9.5zM707 891v51l77 78q20 -2 39 -12zM707 961v51l18 18q23 0 45 -6zM707 1030h2h-2z M717 1219v10l180 182q10 -4 20.5 -6t20.5 -6l-182 -182q-10 2 -19.5 2h-19.5zM717 1247v51l123 125q10 -4 21 -5t22 -5zM717 1317v51l63 64q10 -2 22.5 -3.5t22.5 -3.5zM717 1386v48h22.5t22.5 -2zM719 815l162 162q8 -4 15 -9t13 -12l-153 -153q-14 8 -37 12zM723 403 l299 299q4 -23 12 -36l-252 -254q-14 -4 -28.5 -5t-30.5 -4zM768 795l152 153q6 -6 12 -13t12 -13l-153 -154q-4 8 -10.5 14t-12.5 13zM772 1214l178 181q10 -4 18.5 -7.5t18.5 -7.5l-170 -172q-25 6 -45 6zM797 756l155 155q6 -8 11.5 -15t11.5 -15l-170 -168v4q0 23 -8 39 zM809 420l233 235q14 -16 29 -24l-153 -154q-4 4 -5 4q-47 -41 -104 -61zM831 1206l170 168q8 -4 16.5 -8t18.5 -8l-166 -164q-10 4 -19 6t-20 6zM885 1190l162 162q14 -4 34 -19l-159 -157q-10 4 -18.5 7t-18.5 7zM928 469l155 156q14 -6 37 -7h6l-170 -169q-8 4 -15 10 t-13 10zM934 1169l158 158q8 -4 15 -9t15 -11l-155 -156q-8 4 -16.5 9t-16.5 9zM969 442l180 181q49 16 65 65l199 199q4 -10 5 -21.5t3 -21.5l-417 -418q-16 6 -35 16zM979 1145l154 155q8 -6 15 -11t15 -11l-153 -154q-8 4 -15.5 10.5t-15.5 10.5zM1016 420l409 409v-10 v-41l-368 -368q-10 2 -20.5 4t-20.5 6zM1020 1116l154 154q6 -6 13 -12.5t13 -12.5l-151 -151q-8 6 -14.5 12t-14.5 10zM1057 1085l151 152q8 -6 14.5 -12t12.5 -13l-152 -153q-12 14 -26 26zM1071 408l354 354v-51l-307 -308h-22.5t-24.5 5zM1092 1051l151 151 q6 -6 12.5 -13t12.5 -13l-154 -154q-4 8 -10 14t-12 15zM1122 1012l154 153q6 -8 11 -15t11 -13l-155 -156q-4 8 -9.5 15.5t-11.5 15.5zM1139 403l286 289v-43q0 -8 -2 -12l-225 -223q-14 -4 -28.5 -6t-30.5 -5zM1149 969l156 155q6 -8 11 -15t9 -15l-158 -158q-6 16 -18 33 zM1174 924l159 159q4 -8 9.5 -16t9.5 -16l-164 -162q-6 18 -14 35zM1194 874l164 164q4 -10 8 -17t8 -17l-170 -170q-2 18 -10 40zM1208 819l170 172q4 -10 7.5 -18t7.5 -19l-179 -178zM1217 760l180 180q8 -18 12 -39l-190 -190v6v21.5t-2 21.5zM1225 422l190 190 q-23 -68 -74 -118t-116 -72z" />
<glyph unicode="A" horiz-adv-x="1531" d="M0 0v16l270 271h52l-287 -287h-35zM0 35v51l201 201h51zM0 104v52l131 131h51zM0 174v51l61 62h52zM0 242v45h45zM53 0l287 287h51l-287 -287h-51zM123 0l287 287h51l-287 -287h-51zM182 430l8 33l256 254h52l-287 -287h-29zM193 0l286 287h49l-286 -287h-49zM199 487 l22 74l156 156h51zM227 430l287 287h51l-286 -287h-52zM229 588l21 71l57 58h51zM258 686l10 31h21zM260 0l287 287h26v-25l-262 -262h-51zM297 430l287 287h51l-287 -287h-51zM330 0l243 244v-51l-192 -193h-51zM367 430l286 287h52l-287 -287h-51zM399 0l174 174v-51 l-122 -123h-52zM436 430l287 287h51l-287 -287h-51zM469 0l104 104v-51l-53 -53h-51zM506 430l287 287h51l-287 -287h-51zM539 0l34 35v-35h-34zM575 430l287 287h51l-286 -287h-52zM643 430l287 287h51l-287 -287h-51zM713 430l286 287h52l-287 -287h-51zM782 430l287 287 h51l-286 -287h-52zM831 0v16l271 271h51l-287 -287h-35zM831 35v51l201 201h51zM831 104v52l132 131h51zM831 172v51l64 64h51zM831 242v45h46zM852 430l287 287l10 -41l-246 -246h-51zM885 0l286 287h52l-287 -287h-51zM922 430l231 234l12 -41l-192 -193h-51zM954 0 l287 287h51l-286 -287h-52zM991 430l178 178l13 -39l-140 -139h-51zM1024 0l287 287h51l-287 -287h-51zM1059 430l127 125l12 -39l-88 -86h-51zM1092 0l286 287h27v-25l-262 -262h-51zM1128 430l74 72l12 -39l-34 -33h-52zM1161 0l244 244v-51l-193 -193h-51zM1198 430 l21 19l4 -19h-25zM1231 0l174 174v-51l-123 -123h-51zM1300 0l105 104v-51l-53 -53h-52zM1370 0l35 35v-35h-35z" />
<glyph unicode="B" d="M0 1147v2l285 285h51l-287 -287h-49zM0 1167v52l215 215h51zM0 1237v51l145 146h52zM0 1307v51l76 76h51zM0 1376v58h57zM66 1147l286 287h51l-286 -287h-51zM135 1147l287 287h51l-287 -287h-51zM205 1147l287 287h51l-287 -287h-51zM274 1147l287 287h51l-286 -287h-52 zM344 1147l287 287h51l-287 -287h-51zM414 1147l286 287h17h16t17 -2l-285 -285h-51zM481 1147l285 285q10 -2 21.5 -4.5t21.5 -4.5l-277 -276h-51zM551 1147l272 272q10 -4 19.5 -6t19.5 -6l-260 -260h-51zM621 1147l256 256q18 -10 34 -17l-239 -239h-51zM690 1147 l232 231q10 -4 17 -9t15 -9l-215 -215q-8 2 -22 2h-27zM717 602v16l416 416v-16v-18.5t-3 -16.5l-378 -379q-8 -2 -16.5 -2h-18.5zM717 637v51l407 410q6 -25 6 -45zM717 707v51l393 393q4 -10 6 -19.5t6 -19.5zM717 776v51l373 373q10 -18 16 -35zM717 846v43q31 0 57 14z M754 1141l211 211q8 -4 14 -10.5t14 -12.5l-205 -205q-8 6 -16 9.5t-18 7.5zM772 606l356 357q-2 -16 -6 -33t-8 -33l-276 -276q-16 -4 -33 -8.5t-33 -6.5zM799 1118l202 203l13.5 -13.5t11.5 -13.5l-203 -204q-10 16 -24 28zM829 1079l207 205q4 -6 10.5 -13t10.5 -16 l-213 -215q-2 10 -6 19.5t-9 19.5zM831 961q14 27 15 57v8l219 219q4 -8 9 -16t9 -17zM866 631l238 237q-31 -82 -93.5 -144t-144.5 -93z" />
<glyph unicode="C" horiz-adv-x="1261" d="M0 410.5v19.5v12l274 275h13v-39l-285 -287q-2 10 -2 19.5zM0 459v51l207 207h51zM0 528v52l137 137h51zM0 598v51l68 68h51zM0 668v49h49zM4 375l283 284v-51l-275 -276q-4 10 -5 21.5t-3 21.5zM14 317l273 273v-51l-260 -260q-4 10 -6.5 19t-6.5 19zM33 266l254 254 v-51l-238 -238q-10 18 -16 35zM55 219l232 232v-21q0 -18 2 -27l-213 -215q-6 8 -11.5 15.5t-9.5 15.5zM82 178l211 209q4 -10 8 -17.5t8 -17.5l-205 -202q-6 6 -11 13t-11 15zM113 139l204 203q4 -6 10.5 -13t14.5 -12l-203 -202q-6 6 -13 12t-13 12zM150 104l202 205 q10 -4 17.5 -8t17.5 -8l-209 -211q-8 6 -15 11t-13 11zM188 76l213 213q10 -2 29 -2h21l-232 -232q-8 4 -15 9.5t-16 11.5zM231 49l238 238h51l-254 -254q-16 6 -35 16zM279 27l260 260h51l-273 -273q-10 4 -19 6.5t-19 6.5zM332 12l276 275h51l-284 -283q-10 2 -21.5 3 t-21.5 5zM391 2l285 285h41v-11l-277 -276h-10h-19.5t-19.5 2zM430 1147v2l285 285h2h23.5t23.5 -2l-285 -285h-49zM430 1167v52l215 215h51zM430 1237v51l145 146h52zM430 1305v51l78 78h51zM430 1374v51l8 9h51zM459 0l258 258v-51l-207 -207h-51zM498 1147l282 283 q10 -2 20.5 -4.5t20.5 -4.5l-272 -274h-51zM528 0l189 188v-51l-137 -137h-52zM567 1147l269 270q25 -6 38 -14l-256 -256h-51zM598 0l119 119v-51l-68 -68h-51zM637 1147l250 252q10 -4 18 -8.5t17 -8.5l-234 -235h-51zM668 0l49 49v-49h-49zM705 1147l229 227l31 -18 l-213 -213q-20 4 -35 4h-12zM766 1139l209 209q8 -6 14 -12.5t15 -10.5l-205 -205q-16 12 -33 19zM809 1112l203 203q8 -6 14 -12.5t12 -12.5l-204 -205q-8 14 -25 27zM842 1075l205 205q6 -8 11 -14t11 -15l-213 -213q-4 10 -7 18.5t-7 18.5zM858 1024l217 215 q6 -8 11.5 -15t9.5 -16l-205 -204h-31q0 12 -2 20zM909 1004l193 192l7 -17.5l7 -17.5l-155 -157h-52zM977 1004l145 143q4 -10 6 -19.5t7 -19.5l-107 -104h-51zM1047 1004l90 90q4 -10 5 -21.5t3 -21.5l-47 -47h-51zM1116 1004l29 28q2 -8 2 -28h-31z" />
<glyph unicode="D" horiz-adv-x="1261" d="M0 1147v31l256 256h51l-287 -287h-20zM0 1196v51l186 187h52zM0 1264v51l119 119h51zM0 1333v51l49 50h51zM0 1403v31h31zM39 1147l287 287h51l-287 -287h-51zM109 1147l286 287h51l-286 -287h-51zM178 1147l287 287h51l-287 -287h-51zM248 1147l287 287h38h11l-285 -287 h-51zM315 1147l287 287q12 -2 23.5 -3t23.5 -4l-282 -280h-52zM385 1147l281 278q10 -2 20 -3t21 -5l-271 -270h-51zM455 1147l268 266q10 -2 19.5 -4t19.5 -6l-256 -256h-51zM524 1147l250 250q10 -4 18.5 -7.5t18.5 -7.5l-236 -235h-2h-49zM592 1147l231 229q8 -4 16.5 -9 t16.5 -9l-219 -219q-16 4 -45 8zM651 1137l217 215q8 -4 15.5 -9.5t15.5 -11.5l-209 -209q-14 8 -39 15zM702 1116l207 209q8 -6 15.5 -11t13.5 -11l-205 -205zM743 1090l205 204q6 -6 13.5 -12t13.5 -12l-203 -203q-14 12 -29 23zM780 1057l203 203q8 -6 13 -12.5t12 -14.5 l-203 -203q-6 6 -12.5 13.5t-12.5 13.5zM811 1020l205 203q12 -14 22 -29l-207 -207q-4 8 -9 15.5t-11 17.5zM836 975l211 209q4 -8 10 -15.5t10 -15.5l-217 -217q-4 10 -7 19.5t-7 19.5zM854 922l219 219q4 -8 9 -16.5t10 -16.5l-232 -231q-2 10 -3 22t-3 23zM860 573v9 l287 286v-8v-43l-244 -244h-43zM860 600v51l283 283q2 -12 2 -24.5t2 -22.5zM860 670v51l270 270q4 -10 6.5 -20t4.5 -23zM860 739v52l256 256q4 -10 6 -20.5t6 -20.5zM860 809v51l236 236q4 -10 8 -18.5t8 -18.5zM922 573l225 226v-51l-174 -175h-51zM991 573l156 156v-51 l-107 -105h-49zM1059 573l88 89v-52l-37 -37h-51zM1128 573l19 19v-19h-19z" />
<glyph unicode="E" horiz-adv-x="1132" d="M0 1147v20l266 267h51l-286 -287h-31zM0 1186v51l197 197h51zM0 1255v52l127 127h51zM0 1325v51l57 58h52zM0 1393v41h41zM49 1147l287 287h51l-287 -287h-51zM119 1147l287 287h51l-287 -287h-51zM188 1147l287 287h49l-286 -287h-50zM256 1147l287 287h51l-287 -287 h-51zM326 1147l286 287h52l-287 -287h-51zM395 1147l287 287h51l-287 -287h-51zM465 1147l287 287h51l-287 -287h-51zM535 1147l286 287h51l-286 -287h-51zM604 1147l287 287h51l-287 -287h-51zM672 1147l286 287h46v-7l-281 -280h-51zM717 0v12l287 287v-51l-248 -248h-39z M717 31v51l287 287v-52zM717 100v52l278 278h9v-43zM717 170v51l209 209h51zM717 240v51l139 139h51zM717 309v51l69 70h52zM717 377v51l2 2h51zM741 1147l263 262v-51l-211 -211h-52zM772 0l232 231v-51l-181 -180h-51zM811 1147l193 192v-51l-142 -141h-51zM842 0l162 162 v-51l-111 -111h-51zM881 1147l123 123v-51l-72 -72h-51zM911 0l93 92v-51l-41 -41h-52zM950 1147l54 53v-51l-3 -2h-51zM981 0l23 23v-23h-23z" />
<glyph unicode="F" horiz-adv-x="1132" d="M143 0v31l287 286v-51l-266 -266h-21zM143 49v51l287 287v-51zM143 119v51l287 287v-51zM143 188v52l287 286v-51zM143 258v51l287 287v-51zM143 326v51l287 287v-52zM143 395v51l287 287v-51zM143 465v51l287 287v-51zM143 535v51l287 286v-51zM143 604v51l287 287v-51z M143 674v51l287 287v-51zM143 741v52l287 286v-51zM143 811v51l287 287v-51zM143 881v51l287 287v-52zM143 950v51l287 287v-51zM143 1020v51l287 287v-51zM143 1090v51l287 286v-51zM143 1159v49l226 226h49zM143 1227v51l156 156h51zM143 1296v52l86 86h52zM143 1366v51 l17 17h51zM182 0l248 248v-51l-197 -197h-51zM250 0l180 180v-51l-129 -129h-51zM319 0l111 111v-52l-59 -59h-52zM389 0l41 41v-41h-41zM717 1004v16l287 287v-52l-252 -251h-35zM717 1038v52l287 286v-51zM717 1108v51l274 275h13v-39zM717 1178v51l205 205h51zM717 1247 v51l135 136h51zM717 1315v51l67 68h52zM717 1384v50h49zM770 1004l234 233v-51l-183 -182h-51zM838 1004l166 165v-51l-115 -114h-51zM907 1004l97 96v-51l-46 -45h-51zM977 1004l27 26v-26h-27z" />
<glyph unicode="G" horiz-adv-x="1261" d="M430 1147v14l272 273h15h17t18 -2l-285 -285h-37zM430 1180v51l203 203h51zM430 1249v51l133 134h51zM430 1319v51l64 64h51zM430 1389v45h45zM485 1147l283 283q10 0 21.5 -2.5t21.5 -4.5l-274 -276h-52zM553 1147l272 272q10 -4 19.5 -6t19.5 -6l-260 -260h-51z M623 1147l256 256q10 -4 17 -8t17 -9l-239 -239h-51zM692 1147l234 233q8 -4 15 -9t15 -11l-215 -215q-8 2 -24 2h-25zM756 1141l211 211q8 -4 15 -10.5t13 -10.5l-204 -205q-8 4 -16.5 8.5t-18.5 6.5zM803 1118l203 203q6 -6 13 -12t13 -13l-203 -202l-12 12t-14 12z M836 1083l204 203q6 -6 11.5 -13t11.5 -16l-211 -208q-4 10 -7 18t-9 16zM856 1034l215 213l19 -30l-230 -230v17q0 10 -4 30zM860 932v37l238 235l8 -16t8 -19l-240 -237h-14zM893 932l225 225q4 -10 7 -19.5t5 -19.5l-186 -186h-51zM963 932l172 172q4 -10 5 -21.5 t3 -21.5l-129 -129h-51zM1032 932l113 112q2 -10 2 -20v-20v-9l-64 -63h-51zM1102 932l45 45v-45h-45z" />
<glyph unicode="H" horiz-adv-x="1402" d="M0 0v29l258 258h51l-286 -287h-23zM0 47v51l188 189h52zM0 117v51l119 119h51zM0 184v52l51 51h51zM0 254v33h33zM41 0l287 287h51l-287 -287h-51zM111 0l286 287h52l-287 -287h-51zM180 0l287 287h51l-287 -287h-51zM248 0l287 287h38v-13l-274 -274h-51zM317 0l256 256 v-51l-204 -205h-52zM387 0l186 186v-51l-135 -135h-51zM457 0l116 117v-51l-65 -66h-51zM526 0l47 47v-47h-47zM702 1147v12l275 275h51l-287 -287h-39zM702 1178v51l205 205h51zM702 1247v51l136 136h51zM702 1317v51l66 66h51zM702 1384v50h50zM760 1147l287 287h51 l-287 -287h-51zM829 1147l287 287h51l-286 -287h-52zM899 1147l287 287h49l-287 -287h-49zM967 1147l286 287h23v-29l-258 -258h-51zM1036 1147l240 239v-51l-189 -188h-51zM1106 1147l170 170v-51l-119 -119h-51zM1176 1147l100 100v-51l-49 -49h-51zM1245 1147l31 31v-31 h-31z" />
<glyph unicode="I" horiz-adv-x="702" d="M0 1147v16l270 271h52l-287 -287h-35zM0 1182v51l201 201h51zM0 1251v52l131 131h51zM0 1321v51l61 62h52zM0 1391v43h43zM51 1147l287 287h51l-287 -287h-51zM121 1147l287 287h51l-287 -287h-51zM143 8v51l287 287v-51zM143 78v51l287 287v-51zM143 147v52l287 286v-51 zM143 217v51l287 287v-51zM143 287v51l287 287v-52zM143 356v52l287 286v-51zM143 424v51l287 287v-51zM143 494v51l287 286v-51zM143 563v51l246 246h41v-10zM143 633v51l176 176h52zM143 702v52l107 106h51zM143 772v51l37 37h51zM143 840v20h21zM154 0l276 276v-49 l-227 -227h-49zM190 1147h52l286 287h-51zM221 0l209 209v-51l-158 -158h-51zM260 1147l287 287h26v-25l-262 -262h-51zM291 0l139 139v-51l-88 -88h-51zM330 1147l243 244v-52l-192 -192h-51zM360 0l70 70v-52l-18 -18h-52zM399 1147l174 174v-51l-122 -123h-52zM430 0z M467 1147l106 106v-51l-55 -55h-51zM537 1147l36 37v-37h-36z" />
<glyph unicode="J" horiz-adv-x="1132" d="M0 411.5v18.5v12l131 131h51l-180 -180q-2 10 -2 18.5zM0 461v51l61 61h52zM0 530v43h43zM4 377l197 196h51l-242 -239q-2 10 -3 21.5t-3 21.5zM14 317l256 256h17v-34l-260 -258zM33 266l254 254v-51l-238 -238q-4 10 -8 17.5t-8 17.5zM55 219l232 234v-23q0 -18 2 -27 l-215 -215zM82 178l211 211q6 -16 16 -35l-205 -204q-6 6 -11 13t-11 15zM113 139l204 203q8 -12 25 -25l-203 -202q-8 6 -14 12zM147 104l205 205q18 -10 35 -16l-211 -211q-14 12 -29 22zM188 76l213 213q10 -2 29 -2v-21l-211 -211q-8 4 -15 9.5t-16 11.5zM231 49 l199 199v-51l-164 -164q-16 6 -35 16zM279 27l151 151v-49l-113 -115q-10 4 -19 6.5t-19 6.5zM332 12l98 99v-52l-55 -55q-10 2 -21.5 3t-21.5 5zM391 2l39 39v-41h-19.5t-19.5 2zM430 1147v12l275 275h51l-287 -287h-39zM430 1178v51l205 205h51zM430 1247v51l135 136h51z M430 1315v51l68 68h51zM430 1384v50h49zM487 1147l287 287h51l-286 -287h-52zM557 1147l287 287h51l-287 -287h-51zM627 1147l286 287h52l-287 -287h-51zM694 1147l287 287h23v-29l-259 -258h-51zM764 1147l240 239v-51l-189 -188h-51zM834 1147l170 170v-51l-119 -119h-51z M903 1147l101 100v-51l-50 -49h-51zM973 1147l31 31v-31h-31z" />
<glyph unicode="K" horiz-adv-x="1431" d="M143 0v12l287 287v-51l-248 -248h-39zM143 31v51l287 287v-52zM143 98v52l287 286v-51zM143 168v51l287 287v-51zM143 238v51l287 286v-51zM143 307v51l287 287v-51zM143 377v51l287 287v-51zM143 446v52l287 286v-51zM143 514v51l287 287v-51zM143 584v51l287 287v-52z M143 653v52l287 286v-51zM143 723v51l287 287v-51zM143 793v51l287 286v-51zM143 862v51l287 287v-51zM143 930v51l287 287v-51zM143 999v52l287 286v-51zM143 1069v51l287 287v-51zM143 1139v51l244 244h43v-9zM143 1208v52l174 174h52zM143 1278v51l105 105h51zM143 1346 v51l37 37h51zM143 1415v19h19zM201 0l229 229v-51l-178 -178h-51zM270 0l160 160v-51l-108 -109h-52zM340 0l90 90v-51l-39 -39h-51zM410 0l20 20v-20h-20zM653 594l211 207l19 -33l-209 -209zM680 549l209 209l20 -33l-211 -209zM707 506l208 209l19 -33l-209 -209z M731 461l209 209l21 -31l-209 -209zM758 418l209 209l18 -31l-209 -209zM784 375l209 209l19 -33l-209 -209zM809 332l209 209l20 -33l-209 -209zM836 289l208 209l19 -33l-209 -209zM862 244l209 209l19 -31l-209 -209zM887 201l209 209l20 -31l-211 -211zM913 158l209 209 l19 -33l-209 -209zM938 115l211 209l18 -33l-209 -209zM965 72l209 209l20 -33l-211 -209zM991 27l209 209l19 -31l-205 -205h-6zM1032 0l193 193l20 -31l-162 -162h-51zM1102 0l149 150l19 -33l-117 -117h-51zM1171 0l107 106l18 -32l-73 -74h-52zM1241 0l62 63l2 -2v-49 l-13 -12h-51z" />
<glyph unicode="L" horiz-adv-x="1132" d="M143 0v2l287 287v-51l-237 -238h-50zM143 20v52l287 286v-51zM143 90v51l287 287v-51zM143 160v51l287 287v-52zM143 227v52l287 286v-51zM143 297v51l287 287v-51zM143 367v51l287 287v-52zM143 436v51l287 287v-51zM143 506v51l287 287v-51zM143 575v52l287 286v-51z M143 643v51l287 287v-51zM143 713v51l287 287v-52zM143 782v52l287 286v-51zM143 852v51l287 287v-51zM143 922v51l287 287v-52zM143 991v51l287 287v-51zM143 1059v51l287 287v-51zM143 1128v52l254 254h33v-19zM143 1198v51l185 185h51zM143 1268v51l115 115h51zM143 1337 v52l45 45h52zM143 1407v27h27zM211 0l219 219v-51l-168 -168h-51zM281 0l149 150v-52l-98 -98h-51zM350 0l80 80v-49l-31 -31h-49zM418 0l12 12v-12h-12zM717 0v20l266 267h21v-31l-256 -256h-31zM717 39v51l196 197h52zM717 109v51l127 127h51zM717 178v51l57 58h51z M717 248v39h39zM766 0l238 238v-52l-187 -186h-51zM834 0l170 170v-51l-119 -119h-51zM903 0l101 100v-51l-50 -49h-51zM973 0l31 31v-31h-31z" />
<glyph unicode="M" horiz-adv-x="1560" d="M0 1147v8l279 279h51l-287 -287h-43zM0 1174v51l209 209h51zM0 1243v51l139 140h51zM0 1313v51l70 70h51zM0 1380v52l2 2h49zM61 1147l287 287h51l-286 -287h-52zM131 1147l287 287h12v-39l-287 -287v39h-12zM143 287v41l287 286v-51l-276 -276h-11zM143 346v51l287 287 v-51zM143 416v51l287 287v-52zM143 485v52l287 286v-51zM143 555v51l287 287v-51zM143 625v51l287 287v-52zM143 692v51l287 287v-51zM143 762v51l287 287v-51zM143 831v52l287 286v-51zM143 901v51l287 287v-51zM143 971v51l287 287v-52zM143 1040v52l287 286v-51zM170 287 l260 260v-51l-209 -209h-51zM240 287l190 190v-51l-139 -139h-51zM309 287l121 121v-52l-70 -69h-51zM379 287l51 51v-51h-51zM860 0v14l273 273h51l-287 -287h-37zM860 33v51l203 203h51zM860 100v52l135 135h52zM860 170v51l66 66h51zM860 240v47h47zM915 0l287 287h51 l-286 -287h-52zM985 0l287 287h51l-287 -287h-51zM1055 0l286 287h52l-287 -287h-51zM1124 0l287 287h23v-29l-258 -258h-52zM1192 0l242 242v-52l-191 -190h-51zM1262 0l172 172v-51l-121 -121h-51zM1331 0l103 102v-51l-52 -51h-51zM1401 0l33 33v-33h-33z" />
<glyph unicode="N" horiz-adv-x="1548" d="M143 0v47l287 287v-51l-283 -283h-4zM143 63v52l287 286v-51zM143 133v51l287 287v-51zM143 203v51l287 287v-52zM143 272v52l287 286v-51zM143 342v51l287 287v-51zM143 412v51l287 287v-52zM143 479v51l287 287v-51zM143 549v51l287 287v-51zM143 618v52l263 262 l20 -31zM143 688v51l236 236l18 -33zM143 758v51l209 209l19 -33zM143 827v52l183 180l18 -31zM143 895v51l156 156l18 -31zM143 965v51l129 129l19 -31zM143 1034v51l62 62h51zM143 1104v43h43zM166 0l264 264v-51l-213 -213h-51zM236 0l194 195v-52l-143 -143h-51zM305 0 l125 125v-51l-74 -74h-51zM375 0l55 55v-55h-55zM989 541v4l287 286v-51l-268 -268zM989 563v51l287 287v-51zM989 633v51l287 287v-51zM989 702v52l287 286v-51zM989 772v51l287 287v-51zM989 842v51l287 287v-52zM989 909v52l287 286v-51zM989 979v51l287 287v-51z M989 1049v51l287 286v-51zM989 1118v51l264 265h23v-29zM989 1188v51l195 195h51zM989 1257v52l125 125h51zM989 1325v51l58 58h51zM989 1395v39h39zM1014 502l262 262v-51l-242 -244zM1040 459l236 235v-51l-215 -217zM1067 416l209 209v-52l-189 -188zM1094 373l182 182 v-51l-162 -162zM1120 330l156 155v-51l-135 -135zM1147 289l129 127v-51l-109 -109zM1174 246l102 102v-51l-82 -84zM1200 203l76 76v-52l-55 -55zM1227 160l49 49v-51l-29 -29zM1253 117l23 22v-51l-2 -2z" />
<glyph unicode="O" d="M430 1147v22l264 265h23h28l-286 -287h-29zM430 1188v51l195 195h51zM430 1257v52l125 125h51zM430 1325v51l57 58h52zM430 1395v39h39zM477 1147l285 285q10 -2 21.5 -3.5t21.5 -5.5l-277 -276h-51zM547 1147l274 274q10 -4 19.5 -6t19.5 -6l-262 -262h-51zM616 1147 l256 258q10 -4 18.5 -8t18.5 -8l-241 -242h-52zM684 1147l236 235q10 -4 17 -9t15 -9l-217 -219q-6 2 -18 2h-33zM750 1143l213 213q14 -10 28 -23l-205 -205q-12 8 -36 15zM799 1122l202 203q8 -6 14.5 -12t12.5 -13l-203 -202l-12 12t-14 12zM834 1087l202 203 q12 -14 23 -28l-209 -209q-6 16 -16 34zM856 1040l211 211q6 -8 11 -15t9 -15l-217 -217h-10q0 10 -1 18t-3 18zM889 1004l205 206q4 -10 8 -17t8 -17l-170 -172h-51zM958 1004l158 159q4 -10 7 -19t7 -20l-122 -120h-50zM1026 1004l107 106q4 -10 6 -21.5t4 -21.5l-66 -63 h-51zM1096 1004l49 47q2 -10 2 -22.5v-24.5h-51z" />
<glyph unicode="P" horiz-adv-x="1247" d="M0 0v23l264 264h51l-286 -287h-29zM0 41v51l195 195h51zM0 109v51l127 127h51zM0 178v51l57 58h52zM0 248v39h39zM47 0l287 287h51l-287 -287h-51zM117 0l286 287h52l-287 -287h-51zM143 516v27l260 260h52l-287 -287h-25zM143 561v51l191 191h51zM143 631v51l121 121h51 zM143 700v50l52 53h51zM143 768v35h35zM186 0l287 287h51l-286 -287h-52zM186 516l287 287h51l-286 -287h-52zM256 0l287 287h30v-21l-266 -266h-51zM256 516l287 287h51l-287 -287h-51zM324 0l249 250v-51l-198 -199h-51zM326 516l286 287h52l-287 -287h-51zM393 0l180 180 v-51l-129 -129h-51zM393 516l289 287q37 2 68 18l-306 -305h-51zM430 1147v29l258 258q10 0 22.5 -1t24.5 -3l-282 -283h-23zM430 1194v51l188 189h52zM430 1264v51l119 119h51zM430 1333v51l49 50h51zM430 1403v31h31zM463 0l110 111v-52l-59 -59h-51zM463 516l635 635 q4 -10 7 -19.5t7 -19.5l-598 -596h-51zM471 1147l279 280q10 -2 21 -4t22 -6l-271 -270h-51zM532 0l41 41v-41h-41zM532 516l584 584q2 -10 4 -21.5t4 -21.5l-540 -541h-52zM539 1147l268 266l37 -12l-254 -254h-51zM602 516l526 526q2 -12 2 -23t3 -24l-480 -479h-51z M608 1147l250 248q16 -6 33 -17l-232 -231h-51zM672 516l461 461v-2q0 -14 -1.5 -26.5t-1.5 -24.5l-405 -406q-12 0 -24.5 -1t-26.5 -1h-2zM678 1147l225 225q8 -4 15.5 -9t15.5 -11l-211 -211q-23 6 -45 6zM735 1135l209 208q14 -10 29 -22l-203 -203q-18 10 -35 17z M745 522l381 381q-4 -18 -7 -34.5t-9 -32.5l-297 -297q-16 -6 -32.5 -9.5t-35.5 -7.5zM780 1110l203 203q6 -6 13.5 -12.5t13.5 -12.5l-203 -203q-6 6 -13.5 12.5t-13.5 12.5zM813 1075l205 203q12 -14 22 -29l-209 -207q-8 18 -18 33zM827 899q14 31 19 68l229 231 q4 -10 8 -17t9 -18zM838 1028l211 211q4 -8 10 -15t10 -16l-223 -223q-4 29 -8 43zM842 549l258 258q-27 -68 -74 -127l-57 -57q-59 -47 -127 -74z" />
<glyph unicode="Q" horiz-adv-x="1261" d="M430 12l275 275h12v-39l-287 -287v51zM430 31v51l205 205h51zM430 -57l287 286v-51l-287 -287v52zM430 100v52l135 135h51zM430 -127l287 287v-51l-266 -267h-21v31zM430 168v51l68 68h51zM430 238v49h49zM430 1147v43l244 244h43h8l-287 -287h-8zM430 1208v52l174 174 h51zM430 1278v51l105 105h51zM430 1348v51l35 35h51zM430 1417v17h16zM457 1147l284 287q12 -2 23.5 -3t23.5 -4l-280 -280h-51zM469 -158l248 248v-51l-197 -197h-51zM524 1147l279 278q10 -4 20.5 -5t20.5 -5l-269 -268h-51zM537 -158l180 181v-52l-129 -129h-51z M594 1147l264 262q10 -4 18.5 -7t18.5 -7l-250 -248h-51zM606 -158l111 111v-51l-60 -60h-51zM664 1147l243 242q16 -6 33 -17l-225 -225h-51zM676 -158l41 41v-41h-41zM733 1147l217 217q8 -4 15.5 -10t15.5 -11l-209 -208q-18 10 -39 12zM784 1130l207 205q6 -6 13.5 -12 t13.5 -12l-203 -203q-8 6 -14 12t-17 10zM823 1098l203 205q6 -8 12 -14.5t13 -14.5l-207 -205q-6 14 -21 29zM850 1057l209 207q4 -6 10 -13.5t10 -15.5l-219 -221q-2 10 -4 21.5t-6 21.5zM860 717v2l287 287v-2v-50l-238 -237h-49zM860 737v51l281 283q4 -12 4 -23.5 t2 -23.5zM860 807v51l268 268q8 -23 11 -41zM860 877v51l250 250q4 -10 7 -18.5t7 -18.5zM860 946v51l227 226q10 -16 17 -33zM928 717l219 219v-51l-168 -168h-51zM995 717l152 151v-51l-100 -100h-52zM1065 717l82 82v-51l-31 -31h-51zM1135 717l12 12v-12h-12z" />
<glyph unicode="R" horiz-adv-x="1402" d="M143 10v51l287 287v-51zM143 80v51l287 287v-51zM143 150v51l287 286v-51zM143 217v51l287 287v-51zM143 287v51l287 287v-52zM143 356v52l287 286v-51zM143 426v51l287 287v-51zM143 496v51l287 287v-52zM143 565v51l287 287v-51zM143 633v51l287 287v-51zM143 702v52 l287 286v-51zM143 772v51l287 287v-51zM143 842v51l287 287v-52zM143 911v52l287 286v-51zM143 981v51l287 287v-51zM143 1049v51l287 286v-51zM143 1118v51l265 265h22v-29zM143 1188v51l195 195h51zM143 1257v52l125 125h51zM143 1327v51l56 56h51zM143 1397v37h37zM152 0 l278 279v-52l-227 -227h-51zM221 0l209 209v-51l-158 -158h-51zM291 0l139 139v-51l-88 -88h-51zM358 0l72 70v-50l-20 -20h-52zM428 0l2 2v-2h-2zM688 516q8 0 14.5 1t14.5 1h4l-21 -20zM707 485l34 37q16 2 34 6t34 9l-84 -84zM731 440l105 107q59 20 114 63l-200 -200z M756 397l211 211l18 -33l-209 -210zM782 352l209 211l19 -33l-209 -208zM807 309l211 211l18 -33l-200 -200h-17zM854 287l188 188l19 -33l-156 -155h-51zM924 287l143 145l20 -33l-112 -112h-51zM993 287l101 100l18 -33l-68 -67h-51zM1063 287l55 57l19 -33l-23 -24h-51z M1130 287l13 12l8 -12h-21z" />
<glyph unicode="S" horiz-adv-x="1206" d="M0 324v51l55 55h51zM0 393v37h37zM8 313l115 117h51l-143 -143q-6 6 -11.5 13t-11.5 13zM39 276l154 154h51l-181 -180q-6 6 -12 13t-12 13zM72 240l190 190h25q8 -8 12 -14l-203 -203q-6 8 -12 14t-12 13zM106 205l203 203q6 -8 12.5 -14.5l12.5 -12.5l-203 -203 q-6 6 -12 13.5t-13 13.5zM141 170l203 203q12 -14 29 -23l-205 -205q-6 6 -13.5 12.5t-13.5 12.5zM178 137l205 205q16 -14 31 -20l-207 -207q-8 6 -15.5 12t-13.5 10zM217 109l207 206q10 -4 17.5 -8t17.5 -8l-211 -213q-8 6 -15.5 11t-15.5 12zM258 80l215 215 q10 -4 19.5 -6t19.5 -6l-221 -222q-8 4 -16.5 9.5t-16.5 9.5zM303 55l225 226q10 -4 21.5 -4.5t23.5 -2.5l-235 -235q-10 4 -17.5 8t-17.5 8zM350 35l240 237h33h18l-252 -252q-10 4 -19.5 7.5t-19.5 7.5zM387 600v25l223 223q10 -4 21.5 -5t21.5 -5l-243 -244q-16 4 -23 6z M387 643v51l164 164q6 0 8 -2l37 -6zM387 711v51l107 106l20 -4t23 -4zM387 780v51l51 52q10 -4 20.5 -5t20.5 -6zM387 850v51q10 -4 18.5 -7t18.5 -7zM403 16l259 258q45 6 69 21l-289 -289q-16 2 -39 10zM424 592l244 244q2 -2 6 -2q10 -4 17 -5.5t16 -5.5l-242 -241 q-10 4 -20.5 5t-20.5 5zM459 2l579 582q4 -10 9.5 -18.5t9.5 -16.5l-555 -555q-10 2 -21.5 3t-21.5 5zM481 580l240 239q10 -4 19.5 -6t19.5 -6l-236 -236q-2 0 -4 1t-4 1q-10 2 -18.5 3.5t-16.5 3.5zM518 -8l543 545q10 -23 12 -39l-510 -510q-10 0 -22.5 1t-22.5 3z M541 569l231 232q10 -4 18.5 -7t18.5 -8l-227 -225q-10 2 -20.5 4t-20.5 4zM582 -12l495 495q4 -12 5 -22t3 -21l-454 -454h-8h-20.5t-20.5 2zM598 557l223 223q16 -10 33 -16l-217 -217q-10 4 -19.5 5t-19.5 5zM649 -14l438 438q0 -10 1.5 -19.5t1.5 -17.5t-3 -14 l-380 -381q-14 -2 -27.5 -3t-30.5 -3zM651 541l215 215l31 -19l-209 -211q-6 2 -14 6q-6 4 -12.5 5.5t-10.5 3.5zM700 520l207 209q8 -6 15.5 -11t13.5 -11l-203 -205q-14 10 -33 18zM729 -4l358 358q-2 -16 -4 -30.5t-6 -30.5l-280 -281q-16 -4 -34 -8t-34 -8zM743 496 l203 202q8 -6 14.5 -12t12.5 -12l-203 -203l-12 12t-15 13zM774 1004v28l287 287v-51l-264 -264h-23zM774 1051v49l287 286v-49zM774 1118v51l264 265h23v-29zM774 1188v51l195 195h51zM774 1257v52l125 125h51zM774 1327v51l55 56h52zM774 1397v37h37zM778 461l203 203 q6 -6 12 -13.5t13 -13.5l-211 -211q-6 16 -17 35zM797 360q6 12 6 27q0 10 -4 27l213 213q6 -8 11 -16.5t9 -16.5zM815 1004l246 245v-51l-195 -194h-51zM825 23l244 243q-20 -61 -65 -114l-56 -58q-57 -45 -123 -71zM885 1004l176 176v-52l-125 -124h-51zM954 1004l107 106 v-51l-55 -55h-52zM1024 1004l37 36v-36h-37z" />
<glyph unicode="T" d="M287 0v25l262 262h51l-287 -287h-26zM287 43v51l192 193h51zM287 113v51l123 123h51zM287 182v51l53 54h51zM287 250v37h37zM332 0l286 287h52l-287 -287h-51zM401 0l287 287h51l-286 -287h-52zM430 1147v12l275 275h51l-287 -287h-39zM430 1178v51l205 205h51zM430 1247 v51l135 136h51zM430 1317v51l66 66h51zM430 1386v48h47zM469 0l287 287h51l-287 -287h-51zM485 1147l287 287h51l-286 -287h-52zM539 0l286 287h35v-17l-270 -270h-51zM555 1147l287 287h51l-287 -287h-51zM608 0l252 252v-51l-201 -201h-51zM625 1147l286 287h52l-287 -287 h-51zM678 0l182 182v-51l-131 -131h-51zM694 1147l287 287h51l-287 -287h-51zM748 0l112 113v-52l-61 -61h-51zM764 1147l287 287h51l-287 -287h-51zM817 0l43 43v-43h-43zM834 1147l286 287h27v-25l-262 -262h-51zM903 1147l244 244v-52l-195 -192h-49zM971 1147l176 176 v-51l-125 -125h-51zM1040 1147l107 106v-51l-55 -55h-52zM1110 1147l37 37v-37h-37z" />
<glyph unicode="U" horiz-adv-x="1476" d="M143 430v4l287 287v-51l-240 -240h-47zM143 453v51l287 287v-52zM143 522v51l287 287v-51zM143 590v51l287 287v-51zM143 659v52l287 286v-51zM143 729v51l287 287v-51zM143 799v51l287 287v-52zM143 868v52l287 286v-51zM143 938v51l287 287v-51zM143 1006v51l287 286 v-51zM143 1075v51l287 287v-51zM143 1145v51l238 238h49v-2zM143 1214v52l168 168h51zM143 1284v51l99 99h51zM143 1354v51l29 29h51zM143 1421v13h13zM209 430l221 221v-51l-170 -170h-51zM279 430l151 152v-52l-100 -100h-51zM348 430l82 82v-51l-31 -31h-51zM416 430 l14 12v-12h-14zM573 0v18l631 631v-51l-598 -598h-33zM573 37v51l199 199h2q37 0 66 16zM573 106v50l129 131h52zM573 174v51l62 62h51zM573 244v43h43zM625 0l579 580v-52l-528 -528h-51zM694 0l510 510v-51l-459 -459h-51zM764 0l440 440v-10v-21.5t-2 -21.5l-385 -385 q-10 -2 -21.5 -2h-21.5h-10zM838 4l362 363q-4 -16 -7 -33t-9 -33l-281 -281q-16 -6 -32.5 -9t-32.5 -7zM901 365q16 29 17 65v2l286 287v-51zM918 451v49l286 286v-49zM918 518v51l286 287v-51zM918 588v51l286 287v-52zM918 657v52l286 286v-51zM918 727v51l225 226h51z M918 797v51l155 156h51zM918 866v52l86 86h51zM918 934v51l18 19h51zM932 31l242 241q-33 -84 -95.5 -146.5t-146.5 -94.5z" />
<glyph unicode="V" horiz-adv-x="1476" d="M137 1147h35l-27 -27zM150 1106l40 41h52l-80 -80zM166 1053l94 94h51l-133 -131zM184 1001l146 146h51l-184 -184zM201 948l198 199h39l2 -8l-227 -228zM217 897l227 227l13 -39l-228 -227zM236 844l227 227l12 -37l-227 -229zM252 793l227 227l13 -39l-228 -227z M268 739l228 228l12 -37l-227 -230zM285 688l229 227l12 -38l-227 -228zM303 635l227 227l13 -39l-228 -227zM319 584l228 227l12 -39l-227 -227zM336 530l227 228l15 -39l-230 -227zM354 479l228 228l12 -39l-227 -228zM371 426l227 227l12 -39l-227 -227zM387 375l227 227 l13 -39l-228 -227zM406 322l227 227l12 -39l-227 -227zM422 268l227 230l13 -39l-228 -228zM438 217l228 227l12 -38l-227 -228zM455 164l229 227l12 -37l-227 -227zM473 113l227 227l13 -39l-228 -227zM489 59l228 228l12 -37l-227 -230zM506 8l227 228l15 -39l-197 -197 h-41zM567 0l185 182l12 -39l-146 -143h-51zM637 0l131 131l12 -39l-92 -92h-51zM707 0l77 78l13 -39l-39 -39h-51zM774 1147v14l273 273h51l-287 -287h-37zM774 1180v51l203 203h51zM774 1249v51l133 134h51zM774 1319v51l64 64h51zM774 1389v45h45zM776 0l27 27l8 -27h-35z M827 1147l287 287h51l-286 -287h-52zM897 1147l287 287h51l-287 -287h-51zM967 1147l286 287h52l-287 -287h-51zM1036 1147l287 287h25v-27l-261 -260h-51zM1106 1147l242 242v-52l-191 -190h-51zM1176 1147l172 172v-51l-121 -121h-51zM1245 1147l103 102v-49l-54 -53h-49z M1313 1147l35 35v-35h-35z" />
<glyph unicode="W" horiz-adv-x="1851" d="M0 1147v22l264 265h51l-286 -287h-29zM0 1188v51l195 195h51zM0 1257v52l125 125h51zM0 1325v51l57 58h52zM0 1395v39h39zM47 1147l287 287h51l-287 -287h-51zM117 1147l286 287h52l-287 -287h-51zM186 1147l287 287h51l-286 -287h-52zM254 1147l287 287h32v-19 l-268 -268h-51zM324 1147l249 250v-51l-198 -199h-51zM393 1147l180 180v-51l-129 -129h-51zM463 1147l110 110v-51l-59 -59h-51zM532 1147l41 41v-41h-41zM705 659l18 46l192 190l15 -35l-217 -219zM717 629l219 219l14 -37l-217 -217zM737 580l219 219l17 -37l-219 -217z M737 735l39 90l119 119l14 -35zM760 532l217 218l16 -35l-219 -219zM780 483l217 219l17 -36l-219 -220zM788 856l39 90l45 47l17 -37zM801 434l217 219l16 -37l-219 -217zM821 387l219 217l15 -35l-217 -219zM842 338l219 219l14 -37l-217 -219zM842 979l18 45l8 -18z M862 289l219 219l15 -37l-217 -217zM883 242l219 217l16 -35l-219 -219zM905 193l217 217l17 -35l-219 -219zM926 143l217 219l16 -36l-219 -217zM946 94l219 219l15 -34l-219 -220zM967 47l219 217l14 -35l-217 -219zM989 0l217 217l15 -37l-181 -180h-51zM1059 0l168 168 l16 -35l-133 -133h-51zM1128 0l119 119l17 -35l-84 -84h-52zM1198 0l70 72l16 -37l-35 -35h-51zM1268 0l20 23l10 -23h-30z" />
<glyph unicode="X" horiz-adv-x="1402" d="M0 1147v22l264 265h51l-286 -287h-29zM0 1188v51l195 195h51zM0 1257v52l125 125h51zM0 1327v51l55 56h51zM0 1395v39h37zM47 1147l287 287h51l-287 -287h-51zM117 1147l286 287h52l-287 -287h-51zM184 1147l287 287h51l-286 -287h-52zM254 1147l287 287h32v-19 l-268 -268h-51zM324 1147l249 250v-51l-198 -199h-51zM393 1147l180 180v-51l-129 -129h-51zM463 1147l110 110v-51l-59 -59h-51zM532 1147l41 41v-41h-41zM702 0v31l256 256h52l-287 -287h-21zM702 47v51l189 189h51zM702 117v51l119 119h51zM702 186v52l50 49h51zM702 256 v31h31zM702 1147v18l269 269h51l-287 -287h-33zM702 1184v51l199 199h51zM702 1251v52l132 131h51zM702 1321v51l62 62h51zM702 1391v43h43zM741 0l287 287h51l-286 -287h-52zM754 1147l286 287h52l-287 -287h-51zM811 0l287 287h51l-287 -287h-51zM823 1147l287 287h51 l-287 -287h-51zM881 0l286 287h52l-287 -287h-51zM893 1147l287 287h51l-287 -287h-51zM950 0l287 287h39v-13l-275 -274h-51zM963 1147l286 287h27v-25l-262 -262h-51zM1020 0l256 256v-51l-205 -205h-51zM1030 1147l246 246v-52l-195 -194h-51zM1090 0l186 186v-51 l-137 -135h-49zM1100 1147l176 176v-51l-125 -125h-51zM1157 0l119 119v-51l-68 -68h-51zM1169 1147l107 106v-51l-55 -55h-52zM1227 0l49 49v-49h-49zM1239 1147l37 37v-37h-37z" />
<glyph unicode="Y" horiz-adv-x="1464" d="M0 1143v16l270 271h52l-287 -287h-35zM0 1178v51l201 201h51zM0 1247v51l131 132h51zM0 1317v51l61 62h52zM0 1386v44h43zM53 1143l287 287h51l-287 -287h-51zM121 1143l287 287h51l-287 -287h-51zM190 1143l287 287h51l-286 -287h-52zM260 1143l287 287h26v-25 l-262 -262h-51zM330 1143l243 243v-51l-192 -192h-51zM379 -4v18l268 269h51l-286 -287h-33zM379 33v51l199 199h51zM379 102v52l131 129h51zM379 172v51l61 60h52zM379 242v41h43zM399 1143l174 174v-51l-122 -123h-52zM430 -4l287 287h51l-287 -287h-51zM469 1143l104 104 v-51l-53 -53h-51zM500 -4l286 287h52l-287 -287h-51zM537 1143l36 37v-37h-36zM569 -4l287 287h51l-286 -287h-52zM639 -4l287 287h26v-23l-262 -264h-51zM707 -4l245 246v-52l-194 -194h-51zM776 -4l176 176v-51l-125 -125h-51zM846 -4l106 106v-51l-55 -55h-51zM915 -4 l37 39v-39h-37z" />
<glyph unicode="Z" horiz-adv-x="1347" d="M645 0v27l260 260h27v26l117 117h51l-430 -430h-25zM645 45v51l191 191h51zM645 115v51l121 121h51zM645 184v52l51 51h52zM645 252v35h35zM688 0l430 430h51l-430 -430h-51zM758 0l430 430h31v-20l-410 -410h-51zM825 0l394 393v-51l-342 -342h-52zM895 0l324 324v-52 l-273 -272h-51zM932 332v51l47 47h51zM932 401v29h29zM965 0l254 254v-51l-203 -203h-51zM1034 0l185 184v-51l-134 -133h-51zM1104 0l115 115v-52l-64 -63h-51zM1174 0l45 45v-45h-45z" />
<glyph unicode="[" horiz-adv-x="544" d="M0 158v43l287 286v-51l-279 -278h-8zM0 219v51l287 287v-51zM0 287v51l287 287v-52zM0 356v52l287 286v-51zM0 426v51l287 287v-51zM0 496v51l287 287v-52zM0 565v51l287 287v-51zM0 635v51l287 287v-51zM0 702v52l287 286v-51zM0 772v51l287 287v-51zM0 842v51l287 287 v-52zM0 911v52l287 286v-51zM0 981v51l287 287v-51zM0 1051v51l287 287v-52zM0 1118v51l287 287v-51zM0 1188v51l287 287v-51zM0 1257v52l283 282h4v-47zM0 1327v51l213 213h51zM0 1397v51l143 143h52zM0 1466v52l74 73h51zM0 1534v57h57zM27 158l260 260v-51l-209 -209h-51 zM96 158l191 190v-51l-140 -139h-51zM166 158l121 121v-52l-70 -69h-51zM236 158l51 51v-51h-51z" />
<glyph unicode="\" horiz-adv-x="991" d="M201 991l12 13h51l-51 -52zM217 938l66 66h51l-105 -103zM236 887l116 117h51l-155 -156zM252 836l168 168h51l-207 -207zM270 782l219 222h9l12 -33l-227 -226zM287 731l227 227l12 -38l-227 -228zM305 678l225 227l13 -39l-226 -225zM322 627l227 227l12 -39l-227 -227 zM338 575l227 226l13 -37l-226 -227zM356 522l228 228l12 -39l-227 -226zM373 471l227 227l12 -39l-225 -227zM391 420l225 225l15 -37l-228 -227zM408 367l227 227l12 -39l-225 -227zM426 315l225 228l15 -39l-228 -228zM442 262l228 227l12 -38l-227 -226zM461 211 l225 227l14 -39l-227 -227zM477 160l228 225l12 -37l-205 -205h-29zM530 143l191 191l12 -39l-151 -152h-52zM600 143l139 140l13 -39l-101 -101h-51zM670 143l86 86l12 -36l-47 -50h-51zM739 143l35 35l10 -35h-45z" />
<glyph unicode="]" horiz-adv-x="544" d="M143 10l287 287v-51l-287 -287v51zM143 29v51l287 287v-52zM143 -59l287 286v-51l-287 -287v52zM143 98v52l287 286v-51zM143 -129l287 287v-52l-287 -286v51zM143 166v51l287 287v-51zM143 -199l287 287v-51l-287 -287v51zM143 236v51l287 286v-51zM143 -266l287 286 v-51l-242 -241h-45v6zM143 305v51l287 287v-51zM143 375v51l287 287v-51zM143 444v52l287 286v-51zM143 514v51l287 287v-51zM143 582v51l242 241h45v-6zM143 651v51l172 172h52zM143 721v51l103 102h51zM143 791v51l33 32h51zM143 860v14h15zM207 -272l223 223v-51 l-172 -172h-51zM276 -272l154 153v-51l-102 -102h-52zM346 -272l84 84v-52l-33 -32h-51zM416 -272l14 14v-14h-14z" />
<glyph unicode="^" horiz-adv-x="1308" d="M590 1114l26 53l179 179l18 -33l-215 -215zM604 1085l215 215l17 -34l-213 -213zM629 1040l213 213l16 -32l-213 -215zM635 1204l51 103l86 86l16 -35zM651 993l213 215l17 -34l-213 -213zM674 948l213 213l18 -35l-215 -213zM696 901l215 215l17 -35l-213 -213z M705 1343l47 93l14 -31zM721 856l213 213l16 -35l-213 -213zM743 809l213 213l19 -33l-215 -215zM766 764l215 213l16 -35l-213 -213zM788 717l216 213l16 -33l-213 -215zM813 670l213 215l16 -35l-213 -213zM836 625l213 213l18 -33l-215 -215zM858 578l215 215l17 -35 l-183 -183h-47zM926 575l170 170l16 -34l-135 -136h-51zM995 575l123 125l19 -34l-90 -91h-52zM1065 575l78 78l16 -35l-43 -43h-51zM1133 575l32 31l17 -31h-49z" />
<glyph unicode="_" d="M0 0h51l-51 -51v51zM0 -70l70 70h51l-121 -121v51zM0 -139l139 139h51l-190 -190v51zM0 -207l207 207h51l-258 -258v51zM0 -276l276 276h52l-287 -287h-41v11zM59 -287l287 287h51l-286 -287h-52zM129 -287l287 287h51l-287 -287h-51zM199 -287l286 287h52l-287 -287h-51 zM268 -287l287 287h51l-287 -287h-51zM336 -287l287 287h51l-287 -287h-51zM406 -287l286 287h51l-286 -287h-51zM475 -287l287 287h51l-287 -287h-51zM545 -287l286 287h29v-23l-264 -264h-51zM614 -287l246 246v-51l-194 -195h-52zM684 -287l176 176v-51l-125 -125h-51z M752 -287l108 109v-51l-57 -58h-51zM821 -287l39 39v-39h-39z" />
<glyph unicode="`" horiz-adv-x="458" d="M-193 1434h347l190 -287h-344z" />
<glyph unicode="a" horiz-adv-x="1531" d="M0 0v16l270 271h52l-287 -287h-35zM0 35v51l201 201h51zM0 104v52l131 131h51zM0 174v51l61 62h52zM0 242v45h45zM53 0l287 287h51l-287 -287h-51zM123 0l287 287h51l-287 -287h-51zM182 430l8 33l256 254h52l-287 -287h-29zM193 0l286 287h49l-286 -287h-49zM199 487 l22 74l156 156h51zM227 430l287 287h51l-286 -287h-52zM229 588l21 71l57 58h51zM258 686l10 31h21zM260 0l287 287h26v-25l-262 -262h-51zM297 430l287 287h51l-287 -287h-51zM330 0l243 244v-51l-192 -193h-51zM367 430l286 287h52l-287 -287h-51zM399 0l174 174v-51 l-122 -123h-52zM436 430l287 287h51l-287 -287h-51zM469 0l104 104v-51l-53 -53h-51zM506 430l287 287h51l-287 -287h-51zM539 0l34 35v-35h-34zM575 430l287 287h51l-286 -287h-52zM643 430l287 287h51l-287 -287h-51zM713 430l286 287h52l-287 -287h-51zM782 430l287 287 h51l-286 -287h-52zM831 0v16l271 271h51l-287 -287h-35zM831 35v51l201 201h51zM831 104v52l132 131h51zM831 172v51l64 64h51zM831 242v45h46zM852 430l287 287l10 -41l-246 -246h-51zM885 0l286 287h52l-287 -287h-51zM922 430l231 234l12 -41l-192 -193h-51zM954 0 l287 287h51l-286 -287h-52zM991 430l178 178l13 -39l-140 -139h-51zM1024 0l287 287h51l-287 -287h-51zM1059 430l127 125l12 -39l-88 -86h-51zM1092 0l286 287h27v-25l-262 -262h-51zM1128 430l74 72l12 -39l-34 -33h-52zM1161 0l244 244v-51l-193 -193h-51zM1198 430 l21 19l4 -19h-25zM1231 0l174 174v-51l-123 -123h-51zM1300 0l105 104v-51l-53 -53h-52zM1370 0l35 35v-35h-35z" />
<glyph unicode="b" d="M0 1147v2l285 285h51l-287 -287h-49zM0 1167v52l215 215h51zM0 1237v51l145 146h52zM0 1307v51l76 76h51zM0 1376v58h57zM66 1147l286 287h51l-286 -287h-51zM135 1147l287 287h51l-287 -287h-51zM205 1147l287 287h51l-287 -287h-51zM274 1147l287 287h51l-286 -287h-52 zM344 1147l287 287h51l-287 -287h-51zM414 1147l286 287h17h16t17 -2l-285 -285h-51zM481 1147l285 285q10 -2 21.5 -4.5t21.5 -4.5l-277 -276h-51zM551 1147l272 272q10 -4 19.5 -6t19.5 -6l-260 -260h-51zM621 1147l256 256q18 -10 34 -17l-239 -239h-51zM690 1147 l232 231q10 -4 17 -9t15 -9l-215 -215q-8 2 -22 2h-27zM717 602v16l416 416v-16v-18.5t-3 -16.5l-378 -379q-8 -2 -16.5 -2h-18.5zM717 637v51l407 410q6 -25 6 -45zM717 707v51l393 393q4 -10 6 -19.5t6 -19.5zM717 776v51l373 373q10 -18 16 -35zM717 846v43q31 0 57 14z M754 1141l211 211q8 -4 14 -10.5t14 -12.5l-205 -205q-8 6 -16 9.5t-18 7.5zM772 606l356 357q-2 -16 -6 -33t-8 -33l-276 -276q-16 -4 -33 -8.5t-33 -6.5zM799 1118l202 203l13.5 -13.5t11.5 -13.5l-203 -204q-10 16 -24 28zM829 1079l207 205q4 -6 10.5 -13t10.5 -16 l-213 -215q-2 10 -6 19.5t-9 19.5zM831 961q14 27 15 57v8l219 219q4 -8 9 -16t9 -17zM866 631l238 237q-31 -82 -93.5 -144t-144.5 -93z" />
<glyph unicode="c" horiz-adv-x="1261" d="M0 410.5v19.5v12l274 275h13v-39l-285 -287q-2 10 -2 19.5zM0 459v51l207 207h51zM0 528v52l137 137h51zM0 598v51l68 68h51zM0 668v49h49zM4 375l283 284v-51l-275 -276q-4 10 -5 21.5t-3 21.5zM14 317l273 273v-51l-260 -260q-4 10 -6.5 19t-6.5 19zM33 266l254 254 v-51l-238 -238q-10 18 -16 35zM55 219l232 232v-21q0 -18 2 -27l-213 -215q-6 8 -11.5 15.5t-9.5 15.5zM82 178l211 209q4 -10 8 -17.5t8 -17.5l-205 -202q-6 6 -11 13t-11 15zM113 139l204 203q4 -6 10.5 -13t14.5 -12l-203 -202q-6 6 -13 12t-13 12zM150 104l202 205 q10 -4 17.5 -8t17.5 -8l-209 -211q-8 6 -15 11t-13 11zM188 76l213 213q10 -2 29 -2h21l-232 -232q-8 4 -15 9.5t-16 11.5zM231 49l238 238h51l-254 -254q-16 6 -35 16zM279 27l260 260h51l-273 -273q-10 4 -19 6.5t-19 6.5zM332 12l276 275h51l-284 -283q-10 2 -21.5 3 t-21.5 5zM391 2l285 285h41v-11l-277 -276h-10h-19.5t-19.5 2zM430 1147v2l285 285h2h23.5t23.5 -2l-285 -285h-49zM430 1167v52l215 215h51zM430 1237v51l145 146h52zM430 1305v51l78 78h51zM430 1374v51l8 9h51zM459 0l258 258v-51l-207 -207h-51zM498 1147l282 283 q10 -2 20.5 -4.5t20.5 -4.5l-272 -274h-51zM528 0l189 188v-51l-137 -137h-52zM567 1147l269 270q25 -6 38 -14l-256 -256h-51zM598 0l119 119v-51l-68 -68h-51zM637 1147l250 252q10 -4 18 -8.5t17 -8.5l-234 -235h-51zM668 0l49 49v-49h-49zM705 1147l229 227l31 -18 l-213 -213q-20 4 -35 4h-12zM766 1139l209 209q8 -6 14 -12.5t15 -10.5l-205 -205q-16 12 -33 19zM809 1112l203 203q8 -6 14 -12.5t12 -12.5l-204 -205q-8 14 -25 27zM842 1075l205 205q6 -8 11 -14t11 -15l-213 -213q-4 10 -7 18.5t-7 18.5zM858 1024l217 215 q6 -8 11.5 -15t9.5 -16l-205 -204h-31q0 12 -2 20zM909 1004l193 192l7 -17.5l7 -17.5l-155 -157h-52zM977 1004l145 143q4 -10 6 -19.5t7 -19.5l-107 -104h-51zM1047 1004l90 90q4 -10 5 -21.5t3 -21.5l-47 -47h-51zM1116 1004l29 28q2 -8 2 -28h-31z" />
<glyph unicode="d" horiz-adv-x="1261" d="M0 1147v31l256 256h51l-287 -287h-20zM0 1196v51l186 187h52zM0 1264v51l119 119h51zM0 1333v51l49 50h51zM0 1403v31h31zM39 1147l287 287h51l-287 -287h-51zM109 1147l286 287h51l-286 -287h-51zM178 1147l287 287h51l-287 -287h-51zM248 1147l287 287h38h11l-285 -287 h-51zM315 1147l287 287q12 -2 23.5 -3t23.5 -4l-282 -280h-52zM385 1147l281 278q10 -2 20 -3t21 -5l-271 -270h-51zM455 1147l268 266q10 -2 19.5 -4t19.5 -6l-256 -256h-51zM524 1147l250 250q10 -4 18.5 -7.5t18.5 -7.5l-236 -235h-2h-49zM592 1147l231 229q8 -4 16.5 -9 t16.5 -9l-219 -219q-16 4 -45 8zM651 1137l217 215q8 -4 15.5 -9.5t15.5 -11.5l-209 -209q-14 8 -39 15zM702 1116l207 209q8 -6 15.5 -11t13.5 -11l-205 -205zM743 1090l205 204q6 -6 13.5 -12t13.5 -12l-203 -203q-14 12 -29 23zM780 1057l203 203q8 -6 13 -12.5t12 -14.5 l-203 -203q-6 6 -12.5 13.5t-12.5 13.5zM811 1020l205 203q12 -14 22 -29l-207 -207q-4 8 -9 15.5t-11 17.5zM836 975l211 209q4 -8 10 -15.5t10 -15.5l-217 -217q-4 10 -7 19.5t-7 19.5zM854 922l219 219q4 -8 9 -16.5t10 -16.5l-232 -231q-2 10 -3 22t-3 23zM860 573v9 l287 286v-8v-43l-244 -244h-43zM860 600v51l283 283q2 -12 2 -24.5t2 -22.5zM860 670v51l270 270q4 -10 6.5 -20t4.5 -23zM860 739v52l256 256q4 -10 6 -20.5t6 -20.5zM860 809v51l236 236q4 -10 8 -18.5t8 -18.5zM922 573l225 226v-51l-174 -175h-51zM991 573l156 156v-51 l-107 -105h-49zM1059 573l88 89v-52l-37 -37h-51zM1128 573l19 19v-19h-19z" />
<glyph unicode="e" horiz-adv-x="1132" d="M0 1147v20l266 267h51l-286 -287h-31zM0 1186v51l197 197h51zM0 1255v52l127 127h51zM0 1325v51l57 58h52zM0 1393v41h41zM49 1147l287 287h51l-287 -287h-51zM119 1147l287 287h51l-287 -287h-51zM188 1147l287 287h49l-286 -287h-50zM256 1147l287 287h51l-287 -287 h-51zM326 1147l286 287h52l-287 -287h-51zM395 1147l287 287h51l-287 -287h-51zM465 1147l287 287h51l-287 -287h-51zM535 1147l286 287h51l-286 -287h-51zM604 1147l287 287h51l-287 -287h-51zM672 1147l286 287h46v-7l-281 -280h-51zM717 0v12l287 287v-51l-248 -248h-39z M717 31v51l287 287v-52zM717 100v52l278 278h9v-43zM717 170v51l209 209h51zM717 240v51l139 139h51zM717 309v51l69 70h52zM717 377v51l2 2h51zM741 1147l263 262v-51l-211 -211h-52zM772 0l232 231v-51l-181 -180h-51zM811 1147l193 192v-51l-142 -141h-51zM842 0l162 162 v-51l-111 -111h-51zM881 1147l123 123v-51l-72 -72h-51zM911 0l93 92v-51l-41 -41h-52zM950 1147l54 53v-51l-3 -2h-51zM981 0l23 23v-23h-23z" />
<glyph unicode="f" horiz-adv-x="1132" d="M143 0v31l287 286v-51l-266 -266h-21zM143 49v51l287 287v-51zM143 119v51l287 287v-51zM143 188v52l287 286v-51zM143 258v51l287 287v-51zM143 326v51l287 287v-52zM143 395v51l287 287v-51zM143 465v51l287 287v-51zM143 535v51l287 286v-51zM143 604v51l287 287v-51z M143 674v51l287 287v-51zM143 741v52l287 286v-51zM143 811v51l287 287v-51zM143 881v51l287 287v-52zM143 950v51l287 287v-51zM143 1020v51l287 287v-51zM143 1090v51l287 286v-51zM143 1159v49l226 226h49zM143 1227v51l156 156h51zM143 1296v52l86 86h52zM143 1366v51 l17 17h51zM182 0l248 248v-51l-197 -197h-51zM250 0l180 180v-51l-129 -129h-51zM319 0l111 111v-52l-59 -59h-52zM389 0l41 41v-41h-41zM717 1004v16l287 287v-52l-252 -251h-35zM717 1038v52l287 286v-51zM717 1108v51l274 275h13v-39zM717 1178v51l205 205h51zM717 1247 v51l135 136h51zM717 1315v51l67 68h52zM717 1384v50h49zM770 1004l234 233v-51l-183 -182h-51zM838 1004l166 165v-51l-115 -114h-51zM907 1004l97 96v-51l-46 -45h-51zM977 1004l27 26v-26h-27z" />
<glyph unicode="g" horiz-adv-x="1261" d="M430 1147v14l272 273h15h17t18 -2l-285 -285h-37zM430 1180v51l203 203h51zM430 1249v51l133 134h51zM430 1319v51l64 64h51zM430 1389v45h45zM485 1147l283 283q10 0 21.5 -2.5t21.5 -4.5l-274 -276h-52zM553 1147l272 272q10 -4 19.5 -6t19.5 -6l-260 -260h-51z M623 1147l256 256q10 -4 17 -8t17 -9l-239 -239h-51zM692 1147l234 233q8 -4 15 -9t15 -11l-215 -215q-8 2 -24 2h-25zM756 1141l211 211q8 -4 15 -10.5t13 -10.5l-204 -205q-8 4 -16.5 8.5t-18.5 6.5zM803 1118l203 203q6 -6 13 -12t13 -13l-203 -202l-12 12t-14 12z M836 1083l204 203q6 -6 11.5 -13t11.5 -16l-211 -208q-4 10 -7 18t-9 16zM856 1034l215 213l19 -30l-230 -230v17q0 10 -4 30zM860 932v37l238 235l8 -16t8 -19l-240 -237h-14zM893 932l225 225q4 -10 7 -19.5t5 -19.5l-186 -186h-51zM963 932l172 172q4 -10 5 -21.5 t3 -21.5l-129 -129h-51zM1032 932l113 112q2 -10 2 -20v-20v-9l-64 -63h-51zM1102 932l45 45v-45h-45z" />
<glyph unicode="h" horiz-adv-x="1402" d="M0 0v29l258 258h51l-286 -287h-23zM0 47v51l188 189h52zM0 117v51l119 119h51zM0 184v52l51 51h51zM0 254v33h33zM41 0l287 287h51l-287 -287h-51zM111 0l286 287h52l-287 -287h-51zM180 0l287 287h51l-287 -287h-51zM248 0l287 287h38v-13l-274 -274h-51zM317 0l256 256 v-51l-204 -205h-52zM387 0l186 186v-51l-135 -135h-51zM457 0l116 117v-51l-65 -66h-51zM526 0l47 47v-47h-47zM702 1147v12l275 275h51l-287 -287h-39zM702 1178v51l205 205h51zM702 1247v51l136 136h51zM702 1317v51l66 66h51zM702 1384v50h50zM760 1147l287 287h51 l-287 -287h-51zM829 1147l287 287h51l-286 -287h-52zM899 1147l287 287h49l-287 -287h-49zM967 1147l286 287h23v-29l-258 -258h-51zM1036 1147l240 239v-51l-189 -188h-51zM1106 1147l170 170v-51l-119 -119h-51zM1176 1147l100 100v-51l-49 -49h-51zM1245 1147l31 31v-31 h-31z" />
<glyph unicode="i" horiz-adv-x="702" d="M0 1147v16l270 271h52l-287 -287h-35zM0 1182v51l201 201h51zM0 1251v52l131 131h51zM0 1321v51l61 62h52zM0 1391v43h43zM51 1147l287 287h51l-287 -287h-51zM121 1147l287 287h51l-287 -287h-51zM143 8v51l287 287v-51zM143 78v51l287 287v-51zM143 147v52l287 286v-51 zM143 217v51l287 287v-51zM143 287v51l287 287v-52zM143 356v52l287 286v-51zM143 424v51l287 287v-51zM143 494v51l287 286v-51zM143 563v51l246 246h41v-10zM143 633v51l176 176h52zM143 702v52l107 106h51zM143 772v51l37 37h51zM143 840v20h21zM154 0l276 276v-49 l-227 -227h-49zM190 1147h52l286 287h-51zM221 0l209 209v-51l-158 -158h-51zM260 1147l287 287h26v-25l-262 -262h-51zM291 0l139 139v-51l-88 -88h-51zM330 1147l243 244v-52l-192 -192h-51zM360 0l70 70v-52l-18 -18h-52zM399 1147l174 174v-51l-122 -123h-52zM430 0z M467 1147l106 106v-51l-55 -55h-51zM537 1147l36 37v-37h-36z" />
<glyph unicode="j" horiz-adv-x="1132" d="M0 411.5v18.5v12l131 131h51l-180 -180q-2 10 -2 18.5zM0 461v51l61 61h52zM0 530v43h43zM4 377l197 196h51l-242 -239q-2 10 -3 21.5t-3 21.5zM14 317l256 256h17v-34l-260 -258zM33 266l254 254v-51l-238 -238q-4 10 -8 17.5t-8 17.5zM55 219l232 234v-23q0 -18 2 -27 l-215 -215zM82 178l211 211q6 -16 16 -35l-205 -204q-6 6 -11 13t-11 15zM113 139l204 203q8 -12 25 -25l-203 -202q-8 6 -14 12zM147 104l205 205q18 -10 35 -16l-211 -211q-14 12 -29 22zM188 76l213 213q10 -2 29 -2v-21l-211 -211q-8 4 -15 9.5t-16 11.5zM231 49 l199 199v-51l-164 -164q-16 6 -35 16zM279 27l151 151v-49l-113 -115q-10 4 -19 6.5t-19 6.5zM332 12l98 99v-52l-55 -55q-10 2 -21.5 3t-21.5 5zM391 2l39 39v-41h-19.5t-19.5 2zM430 1147v12l275 275h51l-287 -287h-39zM430 1178v51l205 205h51zM430 1247v51l135 136h51z M430 1315v51l68 68h51zM430 1384v50h49zM487 1147l287 287h51l-286 -287h-52zM557 1147l287 287h51l-287 -287h-51zM627 1147l286 287h52l-287 -287h-51zM694 1147l287 287h23v-29l-259 -258h-51zM764 1147l240 239v-51l-189 -188h-51zM834 1147l170 170v-51l-119 -119h-51z M903 1147l101 100v-51l-50 -49h-51zM973 1147l31 31v-31h-31z" />
<glyph unicode="k" horiz-adv-x="1431" d="M143 0v12l287 287v-51l-248 -248h-39zM143 31v51l287 287v-52zM143 98v52l287 286v-51zM143 168v51l287 287v-51zM143 238v51l287 286v-51zM143 307v51l287 287v-51zM143 377v51l287 287v-51zM143 446v52l287 286v-51zM143 514v51l287 287v-51zM143 584v51l287 287v-52z M143 653v52l287 286v-51zM143 723v51l287 287v-51zM143 793v51l287 286v-51zM143 862v51l287 287v-51zM143 930v51l287 287v-51zM143 999v52l287 286v-51zM143 1069v51l287 287v-51zM143 1139v51l244 244h43v-9zM143 1208v52l174 174h52zM143 1278v51l105 105h51zM143 1346 v51l37 37h51zM143 1415v19h19zM201 0l229 229v-51l-178 -178h-51zM270 0l160 160v-51l-108 -109h-52zM340 0l90 90v-51l-39 -39h-51zM410 0l20 20v-20h-20zM653 594l211 207l19 -33l-209 -209zM680 549l209 209l20 -33l-211 -209zM707 506l208 209l19 -33l-209 -209z M731 461l209 209l21 -31l-209 -209zM758 418l209 209l18 -31l-209 -209zM784 375l209 209l19 -33l-209 -209zM809 332l209 209l20 -33l-209 -209zM836 289l208 209l19 -33l-209 -209zM862 244l209 209l19 -31l-209 -209zM887 201l209 209l20 -31l-211 -211zM913 158l209 209 l19 -33l-209 -209zM938 115l211 209l18 -33l-209 -209zM965 72l209 209l20 -33l-211 -209zM991 27l209 209l19 -31l-205 -205h-6zM1032 0l193 193l20 -31l-162 -162h-51zM1102 0l149 150l19 -33l-117 -117h-51zM1171 0l107 106l18 -32l-73 -74h-52zM1241 0l62 63l2 -2v-49 l-13 -12h-51z" />
<glyph unicode="l" horiz-adv-x="1132" d="M143 0v2l287 287v-51l-237 -238h-50zM143 20v52l287 286v-51zM143 90v51l287 287v-51zM143 160v51l287 287v-52zM143 227v52l287 286v-51zM143 297v51l287 287v-51zM143 367v51l287 287v-52zM143 436v51l287 287v-51zM143 506v51l287 287v-51zM143 575v52l287 286v-51z M143 643v51l287 287v-51zM143 713v51l287 287v-52zM143 782v52l287 286v-51zM143 852v51l287 287v-51zM143 922v51l287 287v-52zM143 991v51l287 287v-51zM143 1059v51l287 287v-51zM143 1128v52l254 254h33v-19zM143 1198v51l185 185h51zM143 1268v51l115 115h51zM143 1337 v52l45 45h52zM143 1407v27h27zM211 0l219 219v-51l-168 -168h-51zM281 0l149 150v-52l-98 -98h-51zM350 0l80 80v-49l-31 -31h-49zM418 0l12 12v-12h-12zM717 0v20l266 267h21v-31l-256 -256h-31zM717 39v51l196 197h52zM717 109v51l127 127h51zM717 178v51l57 58h51z M717 248v39h39zM766 0l238 238v-52l-187 -186h-51zM834 0l170 170v-51l-119 -119h-51zM903 0l101 100v-51l-50 -49h-51zM973 0l31 31v-31h-31z" />
<glyph unicode="m" horiz-adv-x="1560" d="M0 1147v8l279 279h51l-287 -287h-43zM0 1174v51l209 209h51zM0 1243v51l139 140h51zM0 1313v51l70 70h51zM0 1380v52l2 2h49zM61 1147l287 287h51l-286 -287h-52zM131 1147l287 287h12v-39l-287 -287v39h-12zM143 287v41l287 286v-51l-276 -276h-11zM143 346v51l287 287 v-51zM143 416v51l287 287v-52zM143 485v52l287 286v-51zM143 555v51l287 287v-51zM143 625v51l287 287v-52zM143 692v51l287 287v-51zM143 762v51l287 287v-51zM143 831v52l287 286v-51zM143 901v51l287 287v-51zM143 971v51l287 287v-52zM143 1040v52l287 286v-51zM170 287 l260 260v-51l-209 -209h-51zM240 287l190 190v-51l-139 -139h-51zM309 287l121 121v-52l-70 -69h-51zM379 287l51 51v-51h-51zM860 0v14l273 273h51l-287 -287h-37zM860 33v51l203 203h51zM860 100v52l135 135h52zM860 170v51l66 66h51zM860 240v47h47zM915 0l287 287h51 l-286 -287h-52zM985 0l287 287h51l-287 -287h-51zM1055 0l286 287h52l-287 -287h-51zM1124 0l287 287h23v-29l-258 -258h-52zM1192 0l242 242v-52l-191 -190h-51zM1262 0l172 172v-51l-121 -121h-51zM1331 0l103 102v-51l-52 -51h-51zM1401 0l33 33v-33h-33z" />
<glyph unicode="n" horiz-adv-x="1548" d="M143 0v47l287 287v-51l-283 -283h-4zM143 63v52l287 286v-51zM143 133v51l287 287v-51zM143 203v51l287 287v-52zM143 272v52l287 286v-51zM143 342v51l287 287v-51zM143 412v51l287 287v-52zM143 479v51l287 287v-51zM143 549v51l287 287v-51zM143 618v52l263 262 l20 -31zM143 688v51l236 236l18 -33zM143 758v51l209 209l19 -33zM143 827v52l183 180l18 -31zM143 895v51l156 156l18 -31zM143 965v51l129 129l19 -31zM143 1034v51l62 62h51zM143 1104v43h43zM166 0l264 264v-51l-213 -213h-51zM236 0l194 195v-52l-143 -143h-51zM305 0 l125 125v-51l-74 -74h-51zM375 0l55 55v-55h-55zM989 541v4l287 286v-51l-268 -268zM989 563v51l287 287v-51zM989 633v51l287 287v-51zM989 702v52l287 286v-51zM989 772v51l287 287v-51zM989 842v51l287 287v-52zM989 909v52l287 286v-51zM989 979v51l287 287v-51z M989 1049v51l287 286v-51zM989 1118v51l264 265h23v-29zM989 1188v51l195 195h51zM989 1257v52l125 125h51zM989 1325v51l58 58h51zM989 1395v39h39zM1014 502l262 262v-51l-242 -244zM1040 459l236 235v-51l-215 -217zM1067 416l209 209v-52l-189 -188zM1094 373l182 182 v-51l-162 -162zM1120 330l156 155v-51l-135 -135zM1147 289l129 127v-51l-109 -109zM1174 246l102 102v-51l-82 -84zM1200 203l76 76v-52l-55 -55zM1227 160l49 49v-51l-29 -29zM1253 117l23 22v-51l-2 -2z" />
<glyph unicode="o" d="M430 1147v22l264 265h23h28l-286 -287h-29zM430 1188v51l195 195h51zM430 1257v52l125 125h51zM430 1325v51l57 58h52zM430 1395v39h39zM477 1147l285 285q10 -2 21.5 -3.5t21.5 -5.5l-277 -276h-51zM547 1147l274 274q10 -4 19.5 -6t19.5 -6l-262 -262h-51zM616 1147 l256 258q10 -4 18.5 -8t18.5 -8l-241 -242h-52zM684 1147l236 235q10 -4 17 -9t15 -9l-217 -219q-6 2 -18 2h-33zM750 1143l213 213q14 -10 28 -23l-205 -205q-12 8 -36 15zM799 1122l202 203q8 -6 14.5 -12t12.5 -13l-203 -202l-12 12t-14 12zM834 1087l202 203 q12 -14 23 -28l-209 -209q-6 16 -16 34zM856 1040l211 211q6 -8 11 -15t9 -15l-217 -217h-10q0 10 -1 18t-3 18zM889 1004l205 206q4 -10 8 -17t8 -17l-170 -172h-51zM958 1004l158 159q4 -10 7 -19t7 -20l-122 -120h-50zM1026 1004l107 106q4 -10 6 -21.5t4 -21.5l-66 -63 h-51zM1096 1004l49 47q2 -10 2 -22.5v-24.5h-51z" />
<glyph unicode="p" horiz-adv-x="1247" d="M0 0v23l264 264h51l-286 -287h-29zM0 41v51l195 195h51zM0 109v51l127 127h51zM0 178v51l57 58h52zM0 248v39h39zM47 0l287 287h51l-287 -287h-51zM117 0l286 287h52l-287 -287h-51zM143 516v27l260 260h52l-287 -287h-25zM143 561v51l191 191h51zM143 631v51l121 121h51 zM143 700v50l52 53h51zM143 768v35h35zM186 0l287 287h51l-286 -287h-52zM186 516l287 287h51l-286 -287h-52zM256 0l287 287h30v-21l-266 -266h-51zM256 516l287 287h51l-287 -287h-51zM324 0l249 250v-51l-198 -199h-51zM326 516l286 287h52l-287 -287h-51zM393 0l180 180 v-51l-129 -129h-51zM393 516l289 287q37 2 68 18l-306 -305h-51zM430 1147v29l258 258q10 0 22.5 -1t24.5 -3l-282 -283h-23zM430 1194v51l188 189h52zM430 1264v51l119 119h51zM430 1333v51l49 50h51zM430 1403v31h31zM463 0l110 111v-52l-59 -59h-51zM463 516l635 635 q4 -10 7 -19.5t7 -19.5l-598 -596h-51zM471 1147l279 280q10 -2 21 -4t22 -6l-271 -270h-51zM532 0l41 41v-41h-41zM532 516l584 584q2 -10 4 -21.5t4 -21.5l-540 -541h-52zM539 1147l268 266l37 -12l-254 -254h-51zM602 516l526 526q2 -12 2 -23t3 -24l-480 -479h-51z M608 1147l250 248q16 -6 33 -17l-232 -231h-51zM672 516l461 461v-2q0 -14 -1.5 -26.5t-1.5 -24.5l-405 -406q-12 0 -24.5 -1t-26.5 -1h-2zM678 1147l225 225q8 -4 15.5 -9t15.5 -11l-211 -211q-23 6 -45 6zM735 1135l209 208q14 -10 29 -22l-203 -203q-18 10 -35 17z M745 522l381 381q-4 -18 -7 -34.5t-9 -32.5l-297 -297q-16 -6 -32.5 -9.5t-35.5 -7.5zM780 1110l203 203q6 -6 13.5 -12.5t13.5 -12.5l-203 -203q-6 6 -13.5 12.5t-13.5 12.5zM813 1075l205 203q12 -14 22 -29l-209 -207q-8 18 -18 33zM827 899q14 31 19 68l229 231 q4 -10 8 -17t9 -18zM838 1028l211 211q4 -8 10 -15t10 -16l-223 -223q-4 29 -8 43zM842 549l258 258q-27 -68 -74 -127l-57 -57q-59 -47 -127 -74z" />
<glyph unicode="q" horiz-adv-x="1261" d="M430 12l275 275h12v-39l-287 -287v51zM430 31v51l205 205h51zM430 -57l287 286v-51l-287 -287v52zM430 100v52l135 135h51zM430 -127l287 287v-51l-266 -267h-21v31zM430 168v51l68 68h51zM430 238v49h49zM430 1147v43l244 244h43h8l-287 -287h-8zM430 1208v52l174 174 h51zM430 1278v51l105 105h51zM430 1348v51l35 35h51zM430 1417v17h16zM457 1147l284 287q12 -2 23.5 -3t23.5 -4l-280 -280h-51zM469 -158l248 248v-51l-197 -197h-51zM524 1147l279 278q10 -4 20.5 -5t20.5 -5l-269 -268h-51zM537 -158l180 181v-52l-129 -129h-51z M594 1147l264 262q10 -4 18.5 -7t18.5 -7l-250 -248h-51zM606 -158l111 111v-51l-60 -60h-51zM664 1147l243 242q16 -6 33 -17l-225 -225h-51zM676 -158l41 41v-41h-41zM733 1147l217 217q8 -4 15.5 -10t15.5 -11l-209 -208q-18 10 -39 12zM784 1130l207 205q6 -6 13.5 -12 t13.5 -12l-203 -203q-8 6 -14 12t-17 10zM823 1098l203 205q6 -8 12 -14.5t13 -14.5l-207 -205q-6 14 -21 29zM850 1057l209 207q4 -6 10 -13.5t10 -15.5l-219 -221q-2 10 -4 21.5t-6 21.5zM860 717v2l287 287v-2v-50l-238 -237h-49zM860 737v51l281 283q4 -12 4 -23.5 t2 -23.5zM860 807v51l268 268q8 -23 11 -41zM860 877v51l250 250q4 -10 7 -18.5t7 -18.5zM860 946v51l227 226q10 -16 17 -33zM928 717l219 219v-51l-168 -168h-51zM995 717l152 151v-51l-100 -100h-52zM1065 717l82 82v-51l-31 -31h-51zM1135 717l12 12v-12h-12z" />
<glyph unicode="r" horiz-adv-x="1402" d="M143 10v51l287 287v-51zM143 80v51l287 287v-51zM143 150v51l287 286v-51zM143 217v51l287 287v-51zM143 287v51l287 287v-52zM143 356v52l287 286v-51zM143 426v51l287 287v-51zM143 496v51l287 287v-52zM143 565v51l287 287v-51zM143 633v51l287 287v-51zM143 702v52 l287 286v-51zM143 772v51l287 287v-51zM143 842v51l287 287v-52zM143 911v52l287 286v-51zM143 981v51l287 287v-51zM143 1049v51l287 286v-51zM143 1118v51l265 265h22v-29zM143 1188v51l195 195h51zM143 1257v52l125 125h51zM143 1327v51l56 56h51zM143 1397v37h37zM152 0 l278 279v-52l-227 -227h-51zM221 0l209 209v-51l-158 -158h-51zM291 0l139 139v-51l-88 -88h-51zM358 0l72 70v-50l-20 -20h-52zM428 0l2 2v-2h-2zM688 516q8 0 14.5 1t14.5 1h4l-21 -20zM707 485l34 37q16 2 34 6t34 9l-84 -84zM731 440l105 107q59 20 114 63l-200 -200z M756 397l211 211l18 -33l-209 -210zM782 352l209 211l19 -33l-209 -208zM807 309l211 211l18 -33l-200 -200h-17zM854 287l188 188l19 -33l-156 -155h-51zM924 287l143 145l20 -33l-112 -112h-51zM993 287l101 100l18 -33l-68 -67h-51zM1063 287l55 57l19 -33l-23 -24h-51z M1130 287l13 12l8 -12h-21z" />
<glyph unicode="s" horiz-adv-x="1206" d="M0 324v51l55 55h51zM0 393v37h37zM8 313l115 117h51l-143 -143q-6 6 -11.5 13t-11.5 13zM39 276l154 154h51l-181 -180q-6 6 -12 13t-12 13zM72 240l190 190h25q8 -8 12 -14l-203 -203q-6 8 -12 14t-12 13zM106 205l203 203q6 -8 12.5 -14.5l12.5 -12.5l-203 -203 q-6 6 -12 13.5t-13 13.5zM141 170l203 203q12 -14 29 -23l-205 -205q-6 6 -13.5 12.5t-13.5 12.5zM178 137l205 205q16 -14 31 -20l-207 -207q-8 6 -15.5 12t-13.5 10zM217 109l207 206q10 -4 17.5 -8t17.5 -8l-211 -213q-8 6 -15.5 11t-15.5 12zM258 80l215 215 q10 -4 19.5 -6t19.5 -6l-221 -222q-8 4 -16.5 9.5t-16.5 9.5zM303 55l225 226q10 -4 21.5 -4.5t23.5 -2.5l-235 -235q-10 4 -17.5 8t-17.5 8zM350 35l240 237h33h18l-252 -252q-10 4 -19.5 7.5t-19.5 7.5zM387 600v25l223 223q10 -4 21.5 -5t21.5 -5l-243 -244q-16 4 -23 6z M387 643v51l164 164q6 0 8 -2l37 -6zM387 711v51l107 106l20 -4t23 -4zM387 780v51l51 52q10 -4 20.5 -5t20.5 -6zM387 850v51q10 -4 18.5 -7t18.5 -7zM403 16l259 258q45 6 69 21l-289 -289q-16 2 -39 10zM424 592l244 244q2 -2 6 -2q10 -4 17 -5.5t16 -5.5l-242 -241 q-10 4 -20.5 5t-20.5 5zM459 2l579 582q4 -10 9.5 -18.5t9.5 -16.5l-555 -555q-10 2 -21.5 3t-21.5 5zM481 580l240 239q10 -4 19.5 -6t19.5 -6l-236 -236q-2 0 -4 1t-4 1q-10 2 -18.5 3.5t-16.5 3.5zM518 -8l543 545q10 -23 12 -39l-510 -510q-10 0 -22.5 1t-22.5 3z M541 569l231 232q10 -4 18.5 -7t18.5 -8l-227 -225q-10 2 -20.5 4t-20.5 4zM582 -12l495 495q4 -12 5 -22t3 -21l-454 -454h-8h-20.5t-20.5 2zM598 557l223 223q16 -10 33 -16l-217 -217q-10 4 -19.5 5t-19.5 5zM649 -14l438 438q0 -10 1.5 -19.5t1.5 -17.5t-3 -14 l-380 -381q-14 -2 -27.5 -3t-30.5 -3zM651 541l215 215l31 -19l-209 -211q-6 2 -14 6q-6 4 -12.5 5.5t-10.5 3.5zM700 520l207 209q8 -6 15.5 -11t13.5 -11l-203 -205q-14 10 -33 18zM729 -4l358 358q-2 -16 -4 -30.5t-6 -30.5l-280 -281q-16 -4 -34 -8t-34 -8zM743 496 l203 202q8 -6 14.5 -12t12.5 -12l-203 -203l-12 12t-15 13zM774 1004v28l287 287v-51l-264 -264h-23zM774 1051v49l287 286v-49zM774 1118v51l264 265h23v-29zM774 1188v51l195 195h51zM774 1257v52l125 125h51zM774 1327v51l55 56h52zM774 1397v37h37zM778 461l203 203 q6 -6 12 -13.5t13 -13.5l-211 -211q-6 16 -17 35zM797 360q6 12 6 27q0 10 -4 27l213 213q6 -8 11 -16.5t9 -16.5zM815 1004l246 245v-51l-195 -194h-51zM825 23l244 243q-20 -61 -65 -114l-56 -58q-57 -45 -123 -71zM885 1004l176 176v-52l-125 -124h-51zM954 1004l107 106 v-51l-55 -55h-52zM1024 1004l37 36v-36h-37z" />
<glyph unicode="t" d="M287 0v25l262 262h51l-287 -287h-26zM287 43v51l192 193h51zM287 113v51l123 123h51zM287 182v51l53 54h51zM287 250v37h37zM332 0l286 287h52l-287 -287h-51zM401 0l287 287h51l-286 -287h-52zM430 1147v12l275 275h51l-287 -287h-39zM430 1178v51l205 205h51zM430 1247 v51l135 136h51zM430 1317v51l66 66h51zM430 1386v48h47zM469 0l287 287h51l-287 -287h-51zM485 1147l287 287h51l-286 -287h-52zM539 0l286 287h35v-17l-270 -270h-51zM555 1147l287 287h51l-287 -287h-51zM608 0l252 252v-51l-201 -201h-51zM625 1147l286 287h52l-287 -287 h-51zM678 0l182 182v-51l-131 -131h-51zM694 1147l287 287h51l-287 -287h-51zM748 0l112 113v-52l-61 -61h-51zM764 1147l287 287h51l-287 -287h-51zM817 0l43 43v-43h-43zM834 1147l286 287h27v-25l-262 -262h-51zM903 1147l244 244v-52l-195 -192h-49zM971 1147l176 176 v-51l-125 -125h-51zM1040 1147l107 106v-51l-55 -55h-52zM1110 1147l37 37v-37h-37z" />
<glyph unicode="u" horiz-adv-x="1476" d="M143 430v4l287 287v-51l-240 -240h-47zM143 453v51l287 287v-52zM143 522v51l287 287v-51zM143 590v51l287 287v-51zM143 659v52l287 286v-51zM143 729v51l287 287v-51zM143 799v51l287 287v-52zM143 868v52l287 286v-51zM143 938v51l287 287v-51zM143 1006v51l287 286 v-51zM143 1075v51l287 287v-51zM143 1145v51l238 238h49v-2zM143 1214v52l168 168h51zM143 1284v51l99 99h51zM143 1354v51l29 29h51zM143 1421v13h13zM209 430l221 221v-51l-170 -170h-51zM279 430l151 152v-52l-100 -100h-51zM348 430l82 82v-51l-31 -31h-51zM416 430 l14 12v-12h-14zM573 0v18l631 631v-51l-598 -598h-33zM573 37v51l199 199h2q37 0 66 16zM573 106v50l129 131h52zM573 174v51l62 62h51zM573 244v43h43zM625 0l579 580v-52l-528 -528h-51zM694 0l510 510v-51l-459 -459h-51zM764 0l440 440v-10v-21.5t-2 -21.5l-385 -385 q-10 -2 -21.5 -2h-21.5h-10zM838 4l362 363q-4 -16 -7 -33t-9 -33l-281 -281q-16 -6 -32.5 -9t-32.5 -7zM901 365q16 29 17 65v2l286 287v-51zM918 451v49l286 286v-49zM918 518v51l286 287v-51zM918 588v51l286 287v-52zM918 657v52l286 286v-51zM918 727v51l225 226h51z M918 797v51l155 156h51zM918 866v52l86 86h51zM918 934v51l18 19h51zM932 31l242 241q-33 -84 -95.5 -146.5t-146.5 -94.5z" />
<glyph unicode="v" horiz-adv-x="1476" d="M137 1147h35l-27 -27zM150 1106l40 41h52l-80 -80zM166 1053l94 94h51l-133 -131zM184 1001l146 146h51l-184 -184zM201 948l198 199h39l2 -8l-227 -228zM217 897l227 227l13 -39l-228 -227zM236 844l227 227l12 -37l-227 -229zM252 793l227 227l13 -39l-228 -227z M268 739l228 228l12 -37l-227 -230zM285 688l229 227l12 -38l-227 -228zM303 635l227 227l13 -39l-228 -227zM319 584l228 227l12 -39l-227 -227zM336 530l227 228l15 -39l-230 -227zM354 479l228 228l12 -39l-227 -228zM371 426l227 227l12 -39l-227 -227zM387 375l227 227 l13 -39l-228 -227zM406 322l227 227l12 -39l-227 -227zM422 268l227 230l13 -39l-228 -228zM438 217l228 227l12 -38l-227 -228zM455 164l229 227l12 -37l-227 -227zM473 113l227 227l13 -39l-228 -227zM489 59l228 228l12 -37l-227 -230zM506 8l227 228l15 -39l-197 -197 h-41zM567 0l185 182l12 -39l-146 -143h-51zM637 0l131 131l12 -39l-92 -92h-51zM707 0l77 78l13 -39l-39 -39h-51zM774 1147v14l273 273h51l-287 -287h-37zM774 1180v51l203 203h51zM774 1249v51l133 134h51zM774 1319v51l64 64h51zM774 1389v45h45zM776 0l27 27l8 -27h-35z M827 1147l287 287h51l-286 -287h-52zM897 1147l287 287h51l-287 -287h-51zM967 1147l286 287h52l-287 -287h-51zM1036 1147l287 287h25v-27l-261 -260h-51zM1106 1147l242 242v-52l-191 -190h-51zM1176 1147l172 172v-51l-121 -121h-51zM1245 1147l103 102v-49l-54 -53h-49z M1313 1147l35 35v-35h-35z" />
<glyph unicode="w" horiz-adv-x="1851" d="M0 1147v22l264 265h51l-286 -287h-29zM0 1188v51l195 195h51zM0 1257v52l125 125h51zM0 1325v51l57 58h52zM0 1395v39h39zM47 1147l287 287h51l-287 -287h-51zM117 1147l286 287h52l-287 -287h-51zM186 1147l287 287h51l-286 -287h-52zM254 1147l287 287h32v-19 l-268 -268h-51zM324 1147l249 250v-51l-198 -199h-51zM393 1147l180 180v-51l-129 -129h-51zM463 1147l110 110v-51l-59 -59h-51zM532 1147l41 41v-41h-41zM705 659l18 46l192 190l15 -35l-217 -219zM717 629l219 219l14 -37l-217 -217zM737 580l219 219l17 -37l-219 -217z M737 735l39 90l119 119l14 -35zM760 532l217 218l16 -35l-219 -219zM780 483l217 219l17 -36l-219 -220zM788 856l39 90l45 47l17 -37zM801 434l217 219l16 -37l-219 -217zM821 387l219 217l15 -35l-217 -219zM842 338l219 219l14 -37l-217 -219zM842 979l18 45l8 -18z M862 289l219 219l15 -37l-217 -217zM883 242l219 217l16 -35l-219 -219zM905 193l217 217l17 -35l-219 -219zM926 143l217 219l16 -36l-219 -217zM946 94l219 219l15 -34l-219 -220zM967 47l219 217l14 -35l-217 -219zM989 0l217 217l15 -37l-181 -180h-51zM1059 0l168 168 l16 -35l-133 -133h-51zM1128 0l119 119l17 -35l-84 -84h-52zM1198 0l70 72l16 -37l-35 -35h-51zM1268 0l20 23l10 -23h-30z" />
<glyph unicode="x" horiz-adv-x="1402" d="M0 1147v22l264 265h51l-286 -287h-29zM0 1188v51l195 195h51zM0 1257v52l125 125h51zM0 1327v51l55 56h51zM0 1395v39h37zM47 1147l287 287h51l-287 -287h-51zM117 1147l286 287h52l-287 -287h-51zM184 1147l287 287h51l-286 -287h-52zM254 1147l287 287h32v-19 l-268 -268h-51zM324 1147l249 250v-51l-198 -199h-51zM393 1147l180 180v-51l-129 -129h-51zM463 1147l110 110v-51l-59 -59h-51zM532 1147l41 41v-41h-41zM702 0v31l256 256h52l-287 -287h-21zM702 47v51l189 189h51zM702 117v51l119 119h51zM702 186v52l50 49h51zM702 256 v31h31zM702 1147v18l269 269h51l-287 -287h-33zM702 1184v51l199 199h51zM702 1251v52l132 131h51zM702 1321v51l62 62h51zM702 1391v43h43zM741 0l287 287h51l-286 -287h-52zM754 1147l286 287h52l-287 -287h-51zM811 0l287 287h51l-287 -287h-51zM823 1147l287 287h51 l-287 -287h-51zM881 0l286 287h52l-287 -287h-51zM893 1147l287 287h51l-287 -287h-51zM950 0l287 287h39v-13l-275 -274h-51zM963 1147l286 287h27v-25l-262 -262h-51zM1020 0l256 256v-51l-205 -205h-51zM1030 1147l246 246v-52l-195 -194h-51zM1090 0l186 186v-51 l-137 -135h-49zM1100 1147l176 176v-51l-125 -125h-51zM1157 0l119 119v-51l-68 -68h-51zM1169 1147l107 106v-51l-55 -55h-52zM1227 0l49 49v-49h-49zM1239 1147l37 37v-37h-37z" />
<glyph unicode="y" horiz-adv-x="1464" d="M0 1143v16l270 271h52l-287 -287h-35zM0 1178v51l201 201h51zM0 1247v51l131 132h51zM0 1317v51l61 62h52zM0 1386v44h43zM53 1143l287 287h51l-287 -287h-51zM121 1143l287 287h51l-287 -287h-51zM190 1143l287 287h51l-286 -287h-52zM260 1143l287 287h26v-25 l-262 -262h-51zM330 1143l243 243v-51l-192 -192h-51zM379 -4v18l268 269h51l-286 -287h-33zM379 33v51l199 199h51zM379 102v52l131 129h51zM379 172v51l61 60h52zM379 242v41h43zM399 1143l174 174v-51l-122 -123h-52zM430 -4l287 287h51l-287 -287h-51zM469 1143l104 104 v-51l-53 -53h-51zM500 -4l286 287h52l-287 -287h-51zM537 1143l36 37v-37h-36zM569 -4l287 287h51l-286 -287h-52zM639 -4l287 287h26v-23l-262 -264h-51zM707 -4l245 246v-52l-194 -194h-51zM776 -4l176 176v-51l-125 -125h-51zM846 -4l106 106v-51l-55 -55h-51zM915 -4 l37 39v-39h-37z" />
<glyph unicode="z" horiz-adv-x="1347" d="M645 0v27l260 260h27v26l117 117h51l-430 -430h-25zM645 45v51l191 191h51zM645 115v51l121 121h51zM645 184v52l51 51h52zM645 252v35h35zM688 0l430 430h51l-430 -430h-51zM758 0l430 430h31v-20l-410 -410h-51zM825 0l394 393v-51l-342 -342h-52zM895 0l324 324v-52 l-273 -272h-51zM932 332v51l47 47h51zM932 401v29h29zM965 0l254 254v-51l-203 -203h-51zM1034 0l185 184v-51l-134 -133h-51zM1104 0l115 115v-52l-64 -63h-51zM1174 0l45 45v-45h-45z" />
<glyph unicode="{" horiz-adv-x="690" d="M2 588q14 0 27.5 1t27.5 3l-12 -12q-16 8 -43 8zM59 575l19 21q39 6 72 18l-60 -59q-8 6 -15 11t-16 9zM100 547l80 80q82 41 139 104q4 -2 5.5 -4t3.5 -4l-205 -205q-10 14 -23 29zM129 506l207 207q4 -6 10 -13.5t10 -15.5l-215 -217q-2 20 -12 39zM143 141.5v16.5v16 l287 287v-17v-34l-285 -285q-2 8 -2 16.5zM143 193v51l279 280q6 -25 6 -47zM143 262v51l267 265q4 -10 5 -19.5t5 -19.5zM143 332v51l246 246q4 -10 7 -18.5t7 -18.5zM143 401v43v7l222 221l18 -31zM145 109l285 282v-51l-276 -277q-4 10 -5.5 22.5t-3.5 23.5zM158 49 l272 275v-52l-260 -262q-8 16 -12 39zM174 -2l256 256v-51l-240 -240q-10 18 -16 35zM197 -49l233 233v-26q0 -14 2 -23l-217 -217q-4 8 -9 16.5t-9 16.5zM223 -92l213 213q2 -10 6 -18.5t9 -18.5l-205 -205q-6 8 -11.5 14.5t-11.5 14.5zM254 -131l205 205q8 -14 24 -27 l-202 -203q-8 6 -14.5 12.5zM289 -164l205 203q8 -4 15 -8t17 -8l-209 -211q-8 6 -14 12t-14 12zM328 -195l213 213q20 -4 32 -4v-14l-215 -215q-8 4 -15 9t-15 11zM371 -221l202 203v-52l-167 -168q-10 4 -17.5 8.5t-17.5 8.5zM418 -244l155 156v-51l-116 -117 q-10 4 -19.5 6t-19.5 6zM471 -260l102 102v-51l-59 -59q-10 2 -21.5 3t-21.5 5zM530 -270l43 43v-45h-21t-22 2z" />
<glyph unicode="|" horiz-adv-x="415" d="M0 874v31l287 287v-51l-267 -267h-20zM0 924v51l287 287v-52zM0 993v51l287 287v-51zM0 1063v51l287 287v-51zM0 1130v52l287 286v-51zM0 1200v51l287 287v-51zM0 1270v51l287 287v-52zM0 1339v52l287 286v-51zM0 1409v51l274 275h13v-39zM0 1479v51l205 205h51zM0 1546 v51l137 138h51zM0 1616v51l68 68h51zM0 1686v49h49zM39 874l248 248v-51l-197 -197h-51zM109 874l178 179v-52l-127 -127h-51zM176 874l111 111v-51l-60 -60h-51zM246 874l41 41v-41h-41z" />
<glyph unicode="}" horiz-adv-x="690" d="M0 1305v10l217 217q20 -10 31 -21l-211 -211q-10 2 -18.5 3.5t-18.5 1.5zM0 1331v51l172 172q10 -4 17.5 -8t17.5 -8zM0 1401v51l121 121q10 -2 19.5 -5t19.5 -7zM0 1470v52l63 65q12 -2 22.5 -4t20.5 -6zM0 1540v51h24.5t24.5 -2zM51 1294l209 209q16 -12 27 -22 l-203 -203q-16 10 -33 16zM94 1270l203 203q6 -6 12 -12.5t13 -14.5l-203 -203q-6 6 -12.5 13.5t-12.5 13.5zM125 1231l205 205q12 -14 22 -29l-213 -213q-2 10 -6 19.5t-8 17.5zM141 1180l219 217q4 -8 9.5 -15.5t9.5 -17.5l-236 -236v33q0 12 -2 19zM143 991v27v24 l263 263q4 -10 6 -20.5t6 -20.5zM143 1059v51l242 242q4 -8 8 -16.5t8 -18.5zM145 975l275 274q4 -10 5 -21t3 -22l-276 -276q-2 10 -3.5 21.5t-3.5 23.5zM156 915l274 273v-27v-22l-262 -262q-4 10 -6 19t-6 19zM172 862l258 258v-51l-242 -242q-4 10 -8 17.5t-8 17.5z M195 815l235 236v-33q0 -12 2 -17l-219 -219q-4 8 -9 16.5t-9 16.5zM221 772l213 213q2 -10 6 -18.5t9 -18.5l-207 -205q-4 8 -10.5 14.5t-10.5 14.5zM252 733l203 205q10 -16 24 -29l-203 -202q-6 8 -12 14zM285 698l204 205q16 -12 33 -18l-209 -209q-8 4 -14 10t-14 12z M324 668l213 213q14 -6 36 -7v-8l-219 -219q-8 4 -15 10.5t-15 10.5zM367 641l206 207v-51l-172 -172q-16 6 -34 16zM414 618l159 160v-51l-122 -121zM465 602l108 107v-52l-65 -65q-10 4 -21.5 5t-21.5 5zM524 590l49 51v-53q-12 0 -24 1t-25 1z" />
<glyph unicode="~" horiz-adv-x="989" d="M0 909v219q78 14 142.5 18.5t118.5 0.5t101.5 -13.5t90.5 -19.5t85 -18.5t89 -10.5t103 3.5t128 21.5l2 -8v-211q-57 -12 -106 -16.5t-92 -4.5q-78 0 -139.5 10.5t-116.5 24.5q-43 10 -85 18.5t-90.5 10.5t-103.5 -3t-127 -22z" />
<glyph unicode="&#xa1;" horiz-adv-x="415" d="M0 573v33l287 287v-51l-269 -269h-18zM0 625v51l287 287v-52zM0 694v51l258 259h29v-23zM0 764v51l188 189h52zM0 834v51l119 119h51zM0 901v51l51 52h51zM0 971v33h33zM37 573l250 250v-51l-199 -199h-51zM106 573l181 181v-49l-131 -132h-50zM174 573l113 113v-51 l-62 -62h-51zM244 573l43 43v-43h-43z" />
<glyph unicode="&#xa2;" horiz-adv-x="1261" d="M430 287l287 286q39 0 69 19l-305 -305h-51zM430 305v51l217 217h51zM430 373v51l150 149h51zM430 442v52l80 79h51zM430 512v51l10 10h52zM500 287l430 430h51l-430 -430h-51zM569 287l430 430h52l-430 -430h-52zM639 287l430 430h51l-430 -430h-51zM709 287l430 430h8 v-22.5t-2 -22.5l-383 -383q-10 -2 -22.5 -2h-22.5h-8zM782 291l361 360q-4 -16 -8.5 -33.5t-8.5 -33.5l-276 -277q-16 -4 -33.5 -8t-34.5 -8zM842 647q18 31 18 70h51zM879 317l237 238q-35 -80 -96.5 -141.5t-140.5 -96.5z" />
<glyph unicode="&#xa3;" horiz-adv-x="989" d="M0 -4l301 303q12 -2 23.5 -3t21.5 -3l-287 -289l-24 -4t-27 -6l-8 -2v4zM0 14v52l238 237q12 0 24 -1t23 -1zM0 84v51l168 168q14 2 26.5 2h24.5zM0 154v51l94 94q14 2 27.5 3t28.5 1zM0 223v62q20 4 37.5 6t36.5 6zM80 8l282 281q10 -2 21.5 -3t22.5 -5l-267 -267 q-29 0 -59 -6zM143 788v39l574 574v-51l-563 -562h-11zM143 846v51l537 537h37v-15zM143 915v52l467 467h52zM143 985v19v17t2 17l394 394q10 2 17 2h17h19zM147 1059q4 33 13 63l295 295q29 8 63 13zM158 16l262 263q10 -4 20.5 -5.5t20.5 -5.5l-250 -250h-25.5t-27.5 -2z M168 1149q20 59 59 111l90 90q51 39 111 59zM172 788l268 269q-10 -27 -10 -53v-9l-207 -207h-51zM227 16l250 250q23 -8 41 -10l-244 -244q-10 2 -22 3t-25 1zM242 788l188 189v-51l-137 -138h-51zM291 10l244 244q10 -4 21 -5t22 -3l-244 -244q-10 4 -21.5 5t-21.5 3z M311 788l119 119v-51l-68 -68h-51zM350 0l244 244q10 -2 22.5 -2t24.5 -2l-250 -250q-10 4 -20.5 5t-20.5 5zM381 788l49 50v-50h-49zM406 -12l253 252q12 0 25.5 1t28.5 1l-264 -265q-10 4 -21.5 5.5t-21.5 5.5zM463 -25l268 269q16 2 30.5 3t31.5 5l-287 -285 q-10 2 -21.5 3t-21.5 5zM520 1137l197 196v-51l-135 -135h-9q-27 0 -53 -10zM522 -35l291 291q10 2 18.5 4t18.5 4l10 2v-14l-293 -293q-25 0 -45 6zM584 -43l276 276v-51l-227 -229q-14 2 -26.5 2t-22.5 2zM600 1147l117 117v-52l-66 -65h-51zM649 -47l211 211v-51 l-158 -158q-10 -2 -20 -2h-20h-13zM670 1147l47 47v-47h-47zM721 -45l139 139v-51l-84 -82zM799 -37l61 62v-52q-16 -4 -31.5 -6t-29.5 -4z" />
<glyph unicode="&#xa5;" horiz-adv-x="1464" d="M0 1147v18l268 269h51l-286 -287h-33zM0 1184v51l199 199h51zM0 1253v52l129 129h51zM0 1321v51l61 62h52zM0 1391v43h43zM51 1147l287 287h51l-287 -287h-51zM121 1147l287 287h51l-287 -287h-51zM190 1147l287 287h51l-286 -287h-52zM244 502v28l186 187h51l-215 -215 h-22zM244 549v51l116 117h52zM244 618v52l47 47h51zM244 688v29h28zM260 1147l287 287h26v-23l-264 -264h-49zM285 502l215 215h51l-215 -215h-51zM328 1147l245 246v-52l-194 -194h-51zM354 502l215 215h52l-215 -215h-52zM397 1147l176 176v-51l-124 -125h-52zM424 502 l215 215h49l-215 -215h-49zM467 1147l106 106v-51l-55 -55h-51zM492 502l215 215h51l-215 -215h-51zM537 1147l36 37v-37h-36zM561 502l215 215h51l-215 -215h-51zM631 502l215 215h51l-215 -215h-51zM700 502l215 215h52l-215 -215h-52zM770 502l215 215h51l-215 -215h-51z M840 502l215 215h35v-17l-199 -198h-51zM907 502l183 182v-51l-132 -131h-51zM977 502l113 112v-51l-62 -61h-51zM1047 502l43 43v-43h-43z" />
<glyph unicode="&#xa6;" horiz-adv-x="415" d="M0 874v31l287 287v-51l-267 -267h-20zM0 924v51l287 287v-52zM0 993v51l287 287v-51zM0 1063v51l287 287v-51zM0 1130v52l287 286v-51zM0 1200v51l287 287v-51zM0 1270v51l287 287v-52zM0 1339v52l287 286v-51zM0 1409v51l274 275h13v-39zM0 1479v51l205 205h51zM0 1546 v51l137 138h51zM0 1616v51l68 68h51zM0 1686v49h49zM39 874l248 248v-51l-197 -197h-51zM109 874l178 179v-52l-127 -127h-51zM176 874l111 111v-51l-60 -60h-51zM246 874l41 41v-41h-41z" />
<glyph unicode="&#xa7;" horiz-adv-x="1206" d="M623 287v35l456 454q6 -23 6 -43l-444 -446h-18zM623 340v51l440 440q10 -23 12 -38zM623 410v49l161 162q4 4 7 8l251 250q4 -10 8.5 -17.5t8.5 -17.5zM623 477v51l43 43q39 6 69 19zM623 547v20h22zM659 289l428 428q0 -8 1.5 -15.5t1.5 -13.5q0 -14 -3 -22l-370 -371 q-29 -6 -58 -6zM674 848v8l196 199q10 -4 17.5 -10.5t15.5 -10.5l-201 -200q-8 6 -28 14zM674 874v52l153 153q8 -4 16.5 -9t16.5 -9zM674 944v51l104 105q10 -4 18.5 -7t16.5 -8zM674 1014v51l53 53q10 -4 19.5 -6t19.5 -6zM674 1083v52q10 -4 20.5 -6.5t20.5 -6.5z M715 827l198 199q8 -4 14.5 -10t14.5 -12l-197 -197q-8 6 -15 11t-15 9zM739 299l348 346q-4 -16 -7 -31.5t-7 -31.5l-264 -265q-35 -12 -70 -18zM756 799l194 196q8 -6 14.5 -12t12.5 -12l-197 -197q-4 6 -11 12.5t-13 12.5zM774 1305v24l287 287v-51l-260 -260h-27z M774 1348v51l287 287v-52zM774 1417v51l266 267h21v-31zM774 1487v51l197 197h51zM774 1556v52l127 127h51zM774 1626v51l57 58h52zM774 1694v41h41zM788 764l197 197q6 -8 12.5 -14.5t10.5 -14.5l-199 -199q-4 8 -9 15.5t-12 15.5zM813 719l203 203q6 -8 11 -15.5t9 -15.5 l-221 -221v4q6 18 -2 45zM817 1305l244 243v-51l-193 -192h-51zM840 330l225 225q-29 -76 -87 -133t-138 -92zM887 1305l174 174v-52l-123 -122h-51zM956 1305l105 104v-51l-53 -53h-52zM1026 1305l35 34v-34h-35z" />
<glyph unicode="&#xa8;" horiz-adv-x="860" d="M-20 1290q0 59 41.5 101.5t101.5 42.5q59 0 101 -42.5t42 -101.5t-42 -101t-101 -42t-101 42t-42 101zM424 1290q0 59 42 101.5t101 42.5t101.5 -42.5t42.5 -101.5t-42 -101t-102 -42q-59 0 -101 42t-42 101z" />
<glyph unicode="&#xa9;" horiz-adv-x="681" d="M0 1153q0 57 21.5 108.5t59.5 90.5t89.5 60.5t108.5 21.5t108 -21.5t90 -60.5t60.5 -90.5t21.5 -108.5t-21.5 -108.5t-60.5 -89t-90 -59.5t-108 -22t-108.5 22t-89.5 59.5t-59.5 89t-21.5 108.5zM57 1153q0 -45 17.5 -85t48.5 -70.5t71 -48t85 -17.5t86 17.5t71.5 48 t48 70.5t17.5 85t-17.5 86t-48 71.5t-71.5 48t-86 17.5t-85 -17.5t-71 -48t-48.5 -71.5t-17.5 -86zM172 1092v122q0 39 26.5 66t65.5 27h31q39 0 65.5 -27t26.5 -66v-14h-61v14q0 14 -9.5 22.5t-21.5 8.5h-31q-12 0 -21.5 -8t-9.5 -23v-122q0 -12 9.5 -21.5t21.5 -9.5h31 q12 0 21.5 9t9.5 22v16h61v-16q0 -37 -26.5 -65t-65.5 -28h-31q-39 0 -65.5 28t-26.5 65z" />
<glyph unicode="&#xab;" horiz-adv-x="1519" d="M205 500v4l201 201l20 -21l-203 -203zM231 473l203 203l27 -27l-203 -203zM266 438l203 203l27 -27l-203 -202zM301 403l203 203l26 -26l-202 -203zM336 369l203 202l26 -26l-203 -203zM371 334l202 203l27 -27l-203 -203zM406 299l202 203l25 -25l-203 -203zM440 264 l203 203l25 -25l-203 -202zM475 229l203 203l24 -24l-202 -203zM510 195l195 196v-51l-170 -170zM545 160l160 162v-52l-136 -135zM580 125l125 127v-51l-101 -101zM614 90l91 92v-51l-66 -65zM647 57l58 56v-52l-31 -30zM682 23l23 20v-43zM905 502l203 203l16 -17 l-202 -203zM905 907l502 502v-20l-492 -492zM926 887l481 483v-51l-457 -457zM930 477l203 203l26 -27l-203 -202zM958 854l449 446v-51l-422 -422zM965 442l202 203l25 -24l-203 -203zM993 819l414 412v-51l-387 -387zM999 408l203 202l25 -24l-203 -203zM1028 784l379 377 v-51l-352 -352zM1034 373l203 202l25 -24l-203 -203zM1063 750l344 344v-52l-317 -319zM1069 338l203 203l24 -25l-202 -203zM1098 715l309 309v-20l-299 -299zM1104 303l203 203l24 -25l-203 -202zM1139 268l202 203l25 -25l-203 -202zM1174 233l202 203l25 -24l-203 -203z M1206 201l201 198v-51l-174 -174zM1241 166l166 164v-51l-139 -140zM1276 131l131 129v-51l-104 -105zM1311 96l96 97v-52l-70 -71zM1346 61l61 62v-51l-35 -37zM1380 27l27 26v-51v-2z" />
<glyph unicode="&#xad;" horiz-adv-x="989" d="M0 573v23l264 264h23v-29l-258 -258h-29zM0 614v52l195 194h51zM0 682v51l127 127h51zM0 752v51l57 57h52zM0 821v39h39zM47 573l240 240v-51l-189 -189h-51zM117 573l170 170v-51l-119 -119h-51zM186 573l101 101v-51l-49 -50h-52zM256 573l31 31v-31h-31z" />
<glyph unicode="&#xae;" horiz-adv-x="681" d="M0 1153q0 57 21.5 108.5t59.5 90.5t89.5 60.5t108.5 21.5t108 -21.5t90 -60.5t60.5 -90.5t21.5 -108.5t-21.5 -108.5t-60.5 -89t-90 -59.5t-108 -22t-108.5 22t-89.5 59.5t-59.5 89t-21.5 108.5zM57 1153q0 -45 17.5 -85t48.5 -70.5t71 -48t85 -17.5t86 17.5t71.5 48 t48 70.5t17.5 85t-17.5 86t-48 71.5t-71.5 48t-86 17.5t-85 -17.5t-71 -48t-48.5 -71.5t-17.5 -86zM162 1016v57h28v174h-28v58h145q35 -4 58.5 -31t23.5 -62q0 -45 -33 -71l37 -68h25v-57h-115v57h25l-27 47h-51v-47h29v-57h-117zM250 1178h47q16 0 25.5 10t9.5 24 t-9.5 24.5t-25.5 10.5h-47v-69z" />
<glyph unicode="&#xb0;" horiz-adv-x="749" d="M0 1118q0 66 24.5 123t67.5 100t99 68t122 25t123.5 -25t100.5 -68t67.5 -100t24.5 -123t-24.5 -122t-67.5 -99t-100.5 -67.5t-123.5 -24.5t-122 24.5t-99 67.5t-67.5 99.5t-24.5 121.5zM215 1118q0 -41 28.5 -69.5t69.5 -28.5t71 28.5t30 69.5t-30 71t-71 30t-69.5 -30 t-28.5 -71z" />
<glyph unicode="&#xb1;" horiz-adv-x="989" d="M0 717v16l270 271h52l-287 -287h-35zM0 752v51l201 201h51zM0 819v51l133 134h51zM0 889v51l63 64h52zM0 958v46h45zM53 717l287 287h51l-287 -287h-51zM123 717l287 287h51l-287 -287h-51zM193 717l286 287h51l-286 -287h-51zM262 717l287 287h51l-287 -287h-51zM287 0 v23l264 264h51l-287 -287h-28zM287 39v51l196 197h52zM287 109v51l127 127h51zM287 178v51l57 58h51zM287 248v39h39zM330 717l286 287h52l-287 -287h-51zM334 0l287 287h51l-287 -287h-51zM399 717l287 287h51l-286 -287h-52zM403 0l287 287h51l-286 -287h-52zM469 717 l287 287h51l-287 -287h-51zM473 0l287 287h51l-287 -287h-51zM539 717l286 287h35v-17l-270 -270h-51zM543 0l286 287h31v-21l-266 -266h-51zM608 717l252 252v-51l-201 -201h-51zM612 0l248 248v-51l-196 -197h-52zM678 717l182 182v-51l-131 -131h-51zM680 0l180 180v-51 l-129 -129h-51zM745 717l115 114v-51l-63 -63h-52zM750 0l110 111v-52l-59 -59h-51zM815 717l45 45v-45h-45zM819 0l41 41v-41h-41z" />
<glyph unicode="&#xb2;" horiz-adv-x="616" d="M0 715v145q51 47 100.5 92t90 84t70.5 66.5l42 38.5q41 39 48 52t7 24q0 29 -21.5 50t-49.5 21h-72q-29 0 -50.5 -21.5t-21.5 -49.5h-143q0 45 16.5 83.5t46 67.5t68.5 46.5t84 17.5h72q45 0 84 -17.5t67.5 -46.5t46 -67.5t17.5 -83.5q0 -55 -25.5 -95.5t-77.5 -87.5 q-16 -16 -68 -64t-122 -112h149v72h144v-215h-502z" />
<glyph unicode="&#xb3;" horiz-adv-x="616" d="M0 930h143q0 -31 21.5 -51.5t50.5 -20.5h72q29 0 50 20.5t21 51.5q0 29 -21.5 50t-49.5 21h-72v144h72q29 0 50 20.5t21 51.5q0 29 -21.5 50t-49.5 21h-72q-29 0 -50.5 -21.5t-21.5 -49.5h-143q0 43 16.5 82.5t46 68.5t68.5 46.5t84 17.5h72q45 0 84 -17.5t67.5 -46.5 t46 -68.5t17.5 -82.5q0 -84 -56 -144q55 -61 56 -143q0 -45 -17.5 -84t-46 -68.5t-67.5 -46t-84 -16.5h-72q-45 0 -84 16.5t-68.5 46t-46 68.5t-16.5 84z" />
<glyph unicode="&#xb4;" horiz-adv-x="649" d="M-2 1147l190 287h347l-193 -287h-344z" />
<glyph unicode="&#xb9;" horiz-adv-x="415" d="M0 715v143h72v430h-72v144h215v-574h72v-143h-287z" />
<glyph unicode="&#xbb;" horiz-adv-x="1519" d="M0 1004v8l199 198l26 -26l-202 -203zM0 1030v51l164 164l26 -26zM0 1100v51l129 129l27 -27zM0 1167v52l94 96l27 -27zM0 1237v51l59 62l27 -27zM0 1307v51l25 26l26 -26zM0 1376v33l16 -16zM31 973l202 203l25 -25l-203 -203zM66 938l202 203l25 -25l-203 -203zM100 903 l203 203l25 -25l-203 -202zM135 868l203 203l24 -24l-202 -203zM170 834l203 202l24 -24l-202 -203zM205 799l203 202l24 -24l-203 -203zM238 766l202 203l27 -27l-203 -203zM272 731l203 203l27 -27l-203 -202zM307 696l203 203l27 -27l-203 -202zM342 662l203 202l26 -26 l-202 -203zM377 627l203 202l26 -26l-203 -203zM412 592l202 203l27 -27l-203 -203zM446 557l203 203l25 -25l-203 -203zM481 522l203 203l21 -20l-203 -203zM702 0v51l680 678l19 -18v-13zM702 70v51l646 643l24 -25zM702 139v49l611 611l24 -25zM702 207v51l576 576 l25 -25zM702 276v52l541 540l25 -24zM702 346v51l506 506l25 -24z" />
<glyph unicode="&#xbc;" horiz-adv-x="1347" d="M0 715v143h72v430h-72v144h215v-574h72v-143h-287zM2 0l956 1434h172l-956 -1434h-172zM717 215v143l186 359h162l-186 -359h125v144h143v-144h72v-143h-72v-72h72v-143h-287v143h72v72h-287z" />
<glyph unicode="&#xbd;" horiz-adv-x="1390" d="M0 715v143h72v430h-72v144h215v-574h72v-143h-287zM2 0l956 1434h172l-956 -1434h-172zM760 0v145q51 47 100 92.5t90 84t71 66.5t42 38q41 39 48 52.5t7 23.5q0 29 -21.5 50t-49.5 21h-72q-29 0 -50.5 -21.5t-21.5 -49.5h-143q0 45 16.5 84t46 67.5t68.5 46t84 17.5h72 q45 0 83.5 -17.5t67.5 -46t46.5 -67.5t17.5 -84q0 -55 -26 -95t-77 -88q-16 -16 -68.5 -64t-121.5 -112h149v72h144v-215h-502z" />
<glyph unicode="&#xbe;" horiz-adv-x="1490" d="M0 930h143q0 -31 21.5 -51.5t50.5 -20.5h72q29 0 50 20.5t21 51.5q0 29 -21.5 50t-49.5 21h-72v144h72q29 0 50 20.5t21 51.5q0 29 -21.5 50t-49.5 21h-72q-29 0 -50.5 -21.5t-21.5 -49.5h-143q0 43 16.5 82.5t46 68.5t68.5 46.5t84 17.5h72q45 0 84 -17.5t67.5 -46.5 t46 -68.5t17.5 -82.5q0 -84 -56 -144q55 -61 56 -143q0 -45 -17.5 -84t-46 -68.5t-67.5 -46t-84 -16.5h-72q-45 0 -84 16.5t-68.5 46t-46 68.5t-16.5 84zM145 0l957 1434h172l-957 -1434h-172zM860 215v143l187 359h161l-186 -359h125v144h143v-144h72v-143h-72v-72h72v-143 h-287v143h72v72h-287z" />
<glyph unicode="&#xbf;" horiz-adv-x="1118" d="M0 409.5v20.5v8l135 135h51l-184 -184q-2 10 -2 20.5zM0 457v51l66 65h51zM0 526v47h47zM4 373l199 200h51l-242 -243q-4 10 -5 21t-3 22zM16 315l256 258h15v-36l-258 -261q-10 23 -13 39zM33 264l254 254v-51l-238 -238q-4 10 -8 17.5t-8 17.5zM55 217l232 232v-19 q0 -8 1 -15t1 -14l-213 -215q-4 8 -10.5 15.5t-10.5 15.5zM84 176l209 211q6 -16 16 -35l-203 -205q-6 8 -12 14.5t-10 14.5zM115 137l202 205q12 -14 27 -27l-203 -202q-8 6 -14 12zM150 104l204 205q8 -6 16.5 -9t18.5 -7l-211 -211q-8 4 -14 10t-14 12zM188 74l215 215 q10 -2 27 -2h23l-232 -232q-8 4 -16 9.5t-17 9.5zM233 49l238 238h51l-254 -254q-16 6 -35 16zM281 27l260 260h32v-19l-254 -254q-10 4 -19 6.5t-19 6.5zM334 10l239 240v-51l-196 -195q-10 0 -21.5 2t-21.5 4zM387 1147v27l260 260h27v-25l-262 -262h-25zM387 1192v49 l193 193h49zM387 1260v51l123 123h51zM387 1329v51l53 54h52zM387 1399v35h35zM393 2l180 178v-51l-129 -129h-14h-18.5t-18.5 2zM430 1147l244 244v-52l-193 -192h-51zM461 0l112 113v-52l-61 -61h-51zM500 1147l174 174v-51l-123 -123h-51zM530 0l43 43v-43h-43zM569 1147 l105 104v-51l-53 -53h-52zM639 1147l35 35v-35h-35z" />
<glyph unicode="&#xc0;" horiz-adv-x="1531" d="M0 0v16l270 271h52l-287 -287h-35zM0 35v51l201 201h51zM0 104v52l131 131h51zM0 174v51l61 62h52zM0 242v45h45zM53 0l287 287h51l-287 -287h-51zM123 0l287 287h51l-287 -287h-51zM182 430l8 33l256 254h52l-287 -287h-29zM193 0l286 287h49l-286 -287h-49zM199 487 l22 74l156 156h51zM227 430l287 287h51l-286 -287h-52zM229 588l21 71l57 58h51zM258 686l10 31h21zM260 0l287 287h26v-25l-262 -262h-51zM297 430l287 287h51l-287 -287h-51zM305 1844h347l190 -287h-344zM330 0l243 244v-51l-192 -193h-51zM367 430l286 287h52l-287 -287 h-51zM399 0l174 174v-51l-122 -123h-52zM436 430l287 287h51l-287 -287h-51zM469 0l104 104v-51l-53 -53h-51zM506 430l287 287h51l-287 -287h-51zM539 0l34 35v-35h-34zM575 430l287 287h51l-286 -287h-52zM643 430l287 287h51l-287 -287h-51zM713 430l286 287h52 l-287 -287h-51zM782 430l287 287h51l-286 -287h-52zM831 0v16l271 271h51l-287 -287h-35zM831 35v51l201 201h51zM831 104v52l132 131h51zM831 172v51l64 64h51zM831 242v45h46zM852 430l287 287l10 -41l-246 -246h-51zM885 0l286 287h52l-287 -287h-51zM922 430l231 234 l12 -41l-192 -193h-51zM954 0l287 287h51l-286 -287h-52zM991 430l178 178l13 -39l-140 -139h-51zM1024 0l287 287h51l-287 -287h-51zM1059 430l127 125l12 -39l-88 -86h-51zM1092 0l286 287h27v-25l-262 -262h-51zM1128 430l74 72l12 -39l-34 -33h-52zM1161 0l244 244v-51 l-193 -193h-51zM1198 430l21 19l4 -19h-25zM1231 0l174 174v-51l-123 -123h-51zM1300 0l105 104v-51l-53 -53h-52zM1370 0l35 35v-35h-35z" />
<glyph unicode="&#xc1;" horiz-adv-x="1531" d="M0 0v16l270 271h52l-287 -287h-35zM0 35v51l201 201h51zM0 104v52l131 131h51zM0 174v51l61 62h52zM0 242v45h45zM53 0l287 287h51l-287 -287h-51zM123 0l287 287h51l-287 -287h-51zM182 430l8 33l256 254h52l-287 -287h-29zM193 0l286 287h49l-286 -287h-49zM199 487 l22 74l156 156h51zM227 430l287 287h51l-286 -287h-52zM229 588l21 71l57 58h51zM258 686l10 31h21zM260 0l287 287h26v-25l-262 -262h-51zM297 430l287 287h51l-287 -287h-51zM330 0l243 244v-51l-192 -193h-51zM367 430l286 287h52l-287 -287h-51zM399 0l174 174v-51 l-122 -123h-52zM436 430l287 287h51l-287 -287h-51zM469 0l104 104v-51l-53 -53h-51zM496 1557l190 287h347l-193 -287h-344zM506 430l287 287h51l-287 -287h-51zM539 0l34 35v-35h-34zM575 430l287 287h51l-286 -287h-52zM643 430l287 287h51l-287 -287h-51zM713 430 l286 287h52l-287 -287h-51zM782 430l287 287h51l-286 -287h-52zM831 0v16l271 271h51l-287 -287h-35zM831 35v51l201 201h51zM831 104v52l132 131h51zM831 172v51l64 64h51zM831 242v45h46zM852 430l287 287l10 -41l-246 -246h-51zM885 0l286 287h52l-287 -287h-51zM922 430 l231 234l12 -41l-192 -193h-51zM954 0l287 287h51l-286 -287h-52zM991 430l178 178l13 -39l-140 -139h-51zM1024 0l287 287h51l-287 -287h-51zM1059 430l127 125l12 -39l-88 -86h-51zM1092 0l286 287h27v-25l-262 -262h-51zM1128 430l74 72l12 -39l-34 -33h-52zM1161 0 l244 244v-51l-193 -193h-51zM1198 430l21 19l4 -19h-25zM1231 0l174 174v-51l-123 -123h-51zM1300 0l105 104v-51l-53 -53h-52zM1370 0l35 35v-35h-35z" />
<glyph unicode="&#xc2;" horiz-adv-x="1531" d="M0 0v16l270 271h52l-287 -287h-35zM0 35v51l201 201h51zM0 104v52l131 131h51zM0 174v51l61 62h52zM0 242v45h45zM53 0l287 287h51l-287 -287h-51zM123 0l287 287h51l-287 -287h-51zM182 430l8 33l256 254h52l-287 -287h-29zM193 0l286 287h49l-286 -287h-49zM199 487 l22 74l156 156h51zM227 430l287 287h51l-286 -287h-52zM229 588l21 71l57 58h51zM242 1637l137 207h248l-138 -207h-247zM258 686l10 31h21zM260 0l287 287h26v-25l-262 -262h-51zM297 430l287 287h51l-287 -287h-51zM330 0l243 244v-51l-192 -193h-51zM367 430l286 287h52 l-287 -287h-51zM399 0l174 174v-51l-122 -123h-52zM436 430l287 287h51l-287 -287h-51zM469 0l104 104v-51l-53 -53h-51zM506 430l287 287h51l-287 -287h-51zM539 0l34 35v-35h-34zM575 430l287 287h51l-286 -287h-52zM643 430l287 287h51l-287 -287h-51zM713 430l286 287 h52l-287 -287h-51zM782 430l287 287h51l-286 -287h-52zM786 1844h248l137 -207h-247zM831 0v16l271 271h51l-287 -287h-35zM831 35v51l201 201h51zM831 104v52l132 131h51zM831 172v51l64 64h51zM831 242v45h46zM852 430l287 287l10 -41l-246 -246h-51zM885 0l286 287h52 l-287 -287h-51zM922 430l231 234l12 -41l-192 -193h-51zM954 0l287 287h51l-286 -287h-52zM991 430l178 178l13 -39l-140 -139h-51zM1024 0l287 287h51l-287 -287h-51zM1059 430l127 125l12 -39l-88 -86h-51zM1092 0l286 287h27v-25l-262 -262h-51zM1128 430l74 72l12 -39 l-34 -33h-52zM1161 0l244 244v-51l-193 -193h-51zM1198 430l21 19l4 -19h-25zM1231 0l174 174v-51l-123 -123h-51zM1300 0l105 104v-51l-53 -53h-52zM1370 0l35 35v-35h-35z" />
<glyph unicode="&#xc3;" horiz-adv-x="1531" d="M0 0v16l270 271h52l-287 -287h-35zM0 35v51l201 201h51zM0 104v52l131 131h51zM0 174v51l61 62h52zM0 242v45h45zM53 0l287 287h51l-287 -287h-51zM123 0l287 287h51l-287 -287h-51zM182 430l8 33l256 254h52l-287 -287h-29zM193 0l286 287h49l-286 -287h-49zM199 487 l22 74l156 156h51zM227 430l287 287h51l-286 -287h-52zM229 588l21 71l57 58h51zM258 686l10 31h21zM260 0l287 287h26v-25l-262 -262h-51zM270 1645v219q78 14 142.5 18.5t118.5 0t101.5 -13.5t90.5 -19t85 -18.5t89 -10.5t103 3t128 22l2 -9v-210q-57 -12 -106 -16.5 t-92 -4.5q-78 0 -139.5 10.5t-116.5 24.5q-43 10 -85 18t-90.5 10.5t-103.5 -3t-127 -21.5zM297 430l287 287h51l-287 -287h-51zM330 0l243 244v-51l-192 -193h-51zM367 430l286 287h52l-287 -287h-51zM399 0l174 174v-51l-122 -123h-52zM436 430l287 287h51l-287 -287h-51z M469 0l104 104v-51l-53 -53h-51zM506 430l287 287h51l-287 -287h-51zM539 0l34 35v-35h-34zM575 430l287 287h51l-286 -287h-52zM643 430l287 287h51l-287 -287h-51zM713 430l286 287h52l-287 -287h-51zM782 430l287 287h51l-286 -287h-52zM831 0v16l271 271h51l-287 -287 h-35zM831 35v51l201 201h51zM831 104v52l132 131h51zM831 172v51l64 64h51zM831 242v45h46zM852 430l287 287l10 -41l-246 -246h-51zM885 0l286 287h52l-287 -287h-51zM922 430l231 234l12 -41l-192 -193h-51zM954 0l287 287h51l-286 -287h-52zM991 430l178 178l13 -39 l-140 -139h-51zM1024 0l287 287h51l-287 -287h-51zM1059 430l127 125l12 -39l-88 -86h-51zM1092 0l286 287h27v-25l-262 -262h-51zM1128 430l74 72l12 -39l-34 -33h-52zM1161 0l244 244v-51l-193 -193h-51zM1198 430l21 19l4 -19h-25zM1231 0l174 174v-51l-123 -123h-51z M1300 0l105 104v-51l-53 -53h-52zM1370 0l35 35v-35h-35z" />
<glyph unicode="&#xc4;" horiz-adv-x="1531" d="M0 0v16l270 271h52l-287 -287h-35zM0 35v51l201 201h51zM0 104v52l131 131h51zM0 174v51l61 62h52zM0 242v45h45zM53 0l287 287h51l-287 -287h-51zM123 0l287 287h51l-287 -287h-51zM182 430l8 33l256 254h52l-287 -287h-29zM193 0l286 287h49l-286 -287h-49zM199 487 l22 74l156 156h51zM227 430l287 287h51l-286 -287h-52zM229 588l21 71l57 58h51zM258 686l10 31h21zM260 0l287 287h26v-25l-262 -262h-51zM297 430l287 287h51l-287 -287h-51zM330 0l243 244v-51l-192 -193h-51zM338 1700q0 59 41.5 101.5t101.5 42.5q59 0 101 -42.5 t42 -101.5t-42 -101t-101 -42t-101 42t-42 101zM367 430l286 287h52l-287 -287h-51zM399 0l174 174v-51l-122 -123h-52zM436 430l287 287h51l-287 -287h-51zM469 0l104 104v-51l-53 -53h-51zM506 430l287 287h51l-287 -287h-51zM539 0l34 35v-35h-34zM575 430l287 287h51 l-286 -287h-52zM643 430l287 287h51l-287 -287h-51zM713 430l286 287h52l-287 -287h-51zM782 430l287 287h51l-286 -287h-52zM782 1700q0 59 42 101.5t101 42.5t101.5 -42.5t42.5 -101.5t-42 -101t-102 -42q-59 0 -101 42t-42 101zM831 0v16l271 271h51l-287 -287h-35z M831 35v51l201 201h51zM831 104v52l132 131h51zM831 172v51l64 64h51zM831 242v45h46zM852 430l287 287l10 -41l-246 -246h-51zM885 0l286 287h52l-287 -287h-51zM922 430l231 234l12 -41l-192 -193h-51zM954 0l287 287h51l-286 -287h-52zM991 430l178 178l13 -39l-140 -139 h-51zM1024 0l287 287h51l-287 -287h-51zM1059 430l127 125l12 -39l-88 -86h-51zM1092 0l286 287h27v-25l-262 -262h-51zM1128 430l74 72l12 -39l-34 -33h-52zM1161 0l244 244v-51l-193 -193h-51zM1198 430l21 19l4 -19h-25zM1231 0l174 174v-51l-123 -123h-51zM1300 0 l105 104v-51l-53 -53h-52zM1370 0l35 35v-35h-35z" />
<glyph unicode="&#xc5;" horiz-adv-x="1531" d="M0 0h35l287 287h-52l-270 -271v-16zM0 35l252 252h-51l-201 -201v-51zM0 104l182 183h-51l-131 -131v-52zM0 174l113 113h-52l-61 -62v-51zM0 242l45 45h-45v-45zM53 0h51l287 287h-51zM123 0h51l287 287h-51zM182 430h29l287 287h-52l-256 -254zM193 0h49l286 287h-49z M199 487l229 230h-51l-156 -156zM227 430h52l286 287h-51zM229 588l129 129h-51l-57 -58zM258 686l31 31h-21zM260 0h51l262 262v25h-26zM297 430h51l287 287h-51zM330 0h51l192 193v51zM367 430h51l287 287h-52zM399 0h52l122 123v51zM436 430h51l287 287h-51zM469 0h51 l53 53v51zM492 1698q0 45 16 84t46 67.5t69 46t84 17.5t83.5 -17.5t67.5 -46t46.5 -67.5t17.5 -84t-17.5 -84t-46.5 -68.5t-67.5 -46t-83.5 -16.5t-84 16.5t-69 46t-46 68.5t-16 84zM506 430h51l287 287h-51zM539 0h34v35zM575 430h52l286 287h-51zM635 1698 q0 -29 21.5 -50.5t50.5 -21.5t50 21.5t21 50.5t-21 50t-50 21t-50.5 -21.5t-21.5 -49.5zM643 430h51l287 287h-51zM713 430h51l287 287h-52zM782 430h52l286 287h-51zM831 0h35l287 287h-51l-271 -271v-16zM831 35l252 252h-51l-201 -201v-51zM831 104l183 183h-51 l-132 -131v-52zM831 172l115 115h-51l-64 -64v-51zM831 242l46 45h-46v-45zM852 430h51l246 246l-10 41zM885 0h51l287 287h-52zM922 430h51l192 193l-12 41zM954 0h52l286 287h-51zM991 430h51l140 139l-13 39zM1024 0h51l287 287h-51zM1059 430h51l88 86l-12 39zM1092 0 h51l262 262v25h-27zM1128 430h52l34 33l-12 39zM1161 0h51l193 193v51zM1198 430h25l-4 19zM1231 0h51l123 123v51zM1300 0h52l53 53v51zM1370 0h35v35z" />
<glyph unicode="&#xc6;" horiz-adv-x="1863" d="M713 1147v41l245 246h52l-287 -287h-10zM715 1208l20 72l154 154h51zM741 1147l287 287h51l-286 -287h-52zM743 1307l23 73l53 54h51zM774 1405l8 29h19zM809 1147l287 287h51l-287 -287h-51zM879 1147l286 287h52l-328 -328v41h-10zM889 287v39l287 286v-51l-275 -274 h-12zM889 342v51l287 287v-51zM889 412v51l287 287v-52zM889 481v51l287 287v-51zM889 551v51l287 287v-51zM889 621v51l287 286v-51zM889 690v51l287 287v-51zM889 760v49l287 287v-49zM889 827v52l555 555h51l-287 -287h-32v-33zM889 897v51l485 486h51zM889 967v51 l416 416h51zM889 1036v51l346 347h51zM920 287l256 256v-51l-205 -205h-51zM989 287l187 186v-51l-136 -135h-51zM1059 287l117 116v-51l-66 -65h-51zM1128 287l48 47v-47h-48zM1227 1147l286 287h50l-287 -287h-49zM1294 1147l287 287h51l-286 -287h-52zM1364 1147l287 287 h51l-287 -287h-51zM1434 1147l286 287h29v-23l-264 -264h-51zM1503 1147l246 246v-52l-195 -194h-51zM1573 1147l176 176v-51l-125 -125h-51zM1642 1147l107 106v-51l-55 -55h-52zM1710 1147l39 39v-39h-39z" />
<glyph unicode="&#xc7;" horiz-adv-x="1261" d="M0 418v12v37l250 250h37v-15zM0 485v52l180 180h51zM0 555v51l111 111h51zM0 625v51l41 41h51zM0 694v23h23zM2 399l285 287v-51l-281 -281q-2 10 -3 22.5t-1 22.5zM10 340l277 276v-51l-267 -266q-8 23 -10 41zM25 285l262 262v-51l-246 -246q-10 18 -16 35zM47 238 l240 239v-47v-4l-224 -221q-4 8 -8 15t-8 18zM72 193l217 217q2 -10 4 -19.5t6 -19.5l-207 -207q-4 6 -10 13t-10 16zM100 154l207 204q4 -8 9.5 -15t11.5 -13l-203 -203q-6 6 -12.5 12t-12.5 15zM135 117l203 202q8 -4 15 -9t16 -9l-207 -207q-6 6 -13.5 11.5t-13.5 11.5z M172 86l209 209q10 -4 21.5 -6t21.5 -2l-221 -221q-8 4 -15.5 9t-15.5 11zM215 57l227 230h52l-246 -246q-10 4 -17.5 8t-15.5 8zM260 35l252 252h51l-266 -267q-10 4 -18.5 7.5t-18.5 7.5zM311 16l271 271h51l-281 -281q-10 4 -20 5t-21 5zM369 4l282 283h51l-286 -287 q-12 0 -24.5 1t-22.5 3zM432 0l289 287q39 0 72 22l-310 -309h-51zM502 0l430 430h51l-430 -430h-51zM571 0l430 430h52l-430 -430h-52zM641 0l430 430h51l-430 -430h-51zM711 0l430 430h6v-24.5t-2 -22.5l-381 -381q-10 -2 -22.5 -2h-24.5h-6zM784 6l357 356 q-4 -18 -7.5 -35.5t-9.5 -33.5l-270 -270q-16 -6 -33.5 -9.5t-36.5 -7.5zM838 354q23 33 22 72l2 4h51zM883 33l231 231q-33 -78 -93 -138t-138 -93z" />
<glyph unicode="&#xc8;" horiz-adv-x="1132" d="M0 1147v20l266 267h51l-286 -287h-31zM0 1186v51l197 197h51zM0 1255v52l127 127h51zM0 1325v51l57 58h52zM0 1393v41h41zM49 1147l287 287h51l-287 -287h-51zM106 1844h347l190 -287h-344zM119 1147l287 287h51l-287 -287h-51zM188 1147l287 287h49l-286 -287h-50z M256 1147l287 287h51l-287 -287h-51zM326 1147l286 287h52l-287 -287h-51zM395 1147l287 287h51l-287 -287h-51zM465 1147l287 287h51l-287 -287h-51zM535 1147l286 287h51l-286 -287h-51zM604 1147l287 287h51l-287 -287h-51zM672 1147l286 287h46v-7l-281 -280h-51zM717 0 v12l287 287v-51l-248 -248h-39zM717 31v51l287 287v-52zM717 100v52l278 278h9v-43zM717 170v51l209 209h51zM717 240v51l139 139h51zM717 309v51l69 70h52zM717 377v51l2 2h51zM741 1147l263 262v-51l-211 -211h-52zM772 0l232 231v-51l-181 -180h-51zM811 1147l193 192 v-51l-142 -141h-51zM842 0l162 162v-51l-111 -111h-51zM881 1147l123 123v-51l-72 -72h-51zM911 0l93 92v-51l-41 -41h-52zM950 1147l54 53v-51l-3 -2h-51zM981 0l23 23v-23h-23z" />
<glyph unicode="&#xc9;" horiz-adv-x="1132" d="M0 1147v20l266 267h51l-286 -287h-31zM0 1186v51l197 197h51zM0 1255v52l127 127h51zM0 1325v51l57 58h52zM0 1393v41h41zM49 1147l287 287h51l-287 -287h-51zM119 1147l287 287h51l-287 -287h-51zM188 1147l287 287h49l-286 -287h-50zM256 1147l287 287h51l-287 -287 h-51zM297 1557l190 287h347l-193 -287h-344zM326 1147l286 287h52l-287 -287h-51zM395 1147l287 287h51l-287 -287h-51zM465 1147l287 287h51l-287 -287h-51zM535 1147l286 287h51l-286 -287h-51zM604 1147l287 287h51l-287 -287h-51zM672 1147l286 287h46v-7l-281 -280h-51 zM717 0v12l287 287v-51l-248 -248h-39zM717 31v51l287 287v-52zM717 100v52l278 278h9v-43zM717 170v51l209 209h51zM717 240v51l139 139h51zM717 309v51l69 70h52zM717 377v51l2 2h51zM741 1147l263 262v-51l-211 -211h-52zM772 0l232 231v-51l-181 -180h-51zM811 1147 l193 192v-51l-142 -141h-51zM842 0l162 162v-51l-111 -111h-51zM881 1147l123 123v-51l-72 -72h-51zM911 0l93 92v-51l-41 -41h-52zM950 1147l54 53v-51l-3 -2h-51zM981 0l23 23v-23h-23z" />
<glyph unicode="&#xca;" horiz-adv-x="1132" d="M0 1147v20l266 267h51l-286 -287h-31zM0 1186v51l197 197h51zM0 1255v52l127 127h51zM0 1325v51l57 58h52zM0 1393v41h41zM49 1147l287 287h51l-287 -287h-51zM74 1637l137 207h248l-138 -207h-247zM119 1147l287 287h51l-287 -287h-51zM188 1147l287 287h49l-286 -287 h-50zM256 1147l287 287h51l-287 -287h-51zM326 1147l286 287h52l-287 -287h-51zM395 1147l287 287h51l-287 -287h-51zM465 1147l287 287h51l-287 -287h-51zM535 1147l286 287h51l-286 -287h-51zM604 1147l287 287h51l-287 -287h-51zM618 1844h248l137 -207h-247zM672 1147 l286 287h46v-7l-281 -280h-51zM717 0v12l287 287v-51l-248 -248h-39zM717 31v51l287 287v-52zM717 100v52l278 278h9v-43zM717 170v51l209 209h51zM717 240v51l139 139h51zM717 309v51l69 70h52zM717 377v51l2 2h51zM741 1147l263 262v-51l-211 -211h-52zM772 0l232 231v-51 l-181 -180h-51zM811 1147l193 192v-51l-142 -141h-51zM842 0l162 162v-51l-111 -111h-51zM881 1147l123 123v-51l-72 -72h-51zM911 0l93 92v-51l-41 -41h-52zM950 1147l54 53v-51l-3 -2h-51zM981 0l23 23v-23h-23z" />
<glyph unicode="&#xcb;" horiz-adv-x="1132" d="M0 1147v20l266 267h51l-286 -287h-31zM0 1186v51l197 197h51zM0 1255v52l127 127h51zM0 1325v51l57 58h52zM0 1393v41h41zM49 1147l287 287h51l-287 -287h-51zM119 1147l287 287h51l-287 -287h-51zM130 1700q0 59 41.5 101.5t101.5 42.5q59 0 101 -42.5t42 -101.5 t-42 -101t-101 -42t-101 42t-42 101zM188 1147l287 287h49l-286 -287h-50zM256 1147l287 287h51l-287 -287h-51zM326 1147l286 287h52l-287 -287h-51zM395 1147l287 287h51l-287 -287h-51zM465 1147l287 287h51l-287 -287h-51zM535 1147l286 287h51l-286 -287h-51zM574 1700 q0 59 42 101.5t101 42.5t101.5 -42.5t42.5 -101.5t-42 -101t-102 -42q-59 0 -101 42t-42 101zM604 1147l287 287h51l-287 -287h-51zM672 1147l286 287h46v-7l-281 -280h-51zM717 0v12l287 287v-51l-248 -248h-39zM717 31v51l287 287v-52zM717 100v52l278 278h9v-43zM717 170 v51l209 209h51zM717 240v51l139 139h51zM717 309v51l69 70h52zM717 377v51l2 2h51zM741 1147l263 262v-51l-211 -211h-52zM772 0l232 231v-51l-181 -180h-51zM811 1147l193 192v-51l-142 -141h-51zM842 0l162 162v-51l-111 -111h-51zM881 1147l123 123v-51l-72 -72h-51z M911 0l93 92v-51l-41 -41h-52zM950 1147l54 53v-51l-3 -2h-51zM981 0l23 23v-23h-23z" />
<glyph unicode="&#xcc;" horiz-adv-x="702" d="M-109 1844h347l190 -287h-344zM0 1147v16l270 271h52l-287 -287h-35zM0 1182v51l201 201h51zM0 1251v52l131 131h51zM0 1321v51l61 62h52zM0 1391v43h43zM51 1147l287 287h51l-287 -287h-51zM121 1147l287 287h51l-287 -287h-51zM143 8v51l287 287v-51zM143 78v51 l287 287v-51zM143 147v52l287 286v-51zM143 217v51l287 287v-51zM143 287v51l287 287v-52zM143 356v52l287 286v-51zM143 424v51l287 287v-51zM143 494v51l287 286v-51zM143 563v51l246 246h41v-10zM143 633v51l176 176h52zM143 702v52l107 106h51zM143 772v51l37 37h51z M143 840v20h21zM154 0l276 276v-49l-227 -227h-49zM190 1147h52l286 287h-51zM221 0l209 209v-51l-158 -158h-51zM260 1147l287 287h26v-25l-262 -262h-51zM291 0l139 139v-51l-88 -88h-51zM330 1147l243 244v-52l-192 -192h-51zM360 0l70 70v-52l-18 -18h-52zM399 1147 l174 174v-51l-122 -123h-52zM430 0zM467 1147l106 106v-51l-55 -55h-51zM537 1147l36 37v-37h-36z" />
<glyph unicode="&#xcd;" horiz-adv-x="702" d="M0 1147v16l270 271h52l-287 -287h-35zM0 1182v51l201 201h51zM0 1251v52l131 131h51zM0 1321v51l61 62h52zM0 1391v43h43zM51 1147l287 287h51l-287 -287h-51zM82 1557l190 287h347l-193 -287h-344zM121 1147l287 287h51l-287 -287h-51zM143 8v51l287 287v-51zM143 78v51 l287 287v-51zM143 147v52l287 286v-51zM143 217v51l287 287v-51zM143 287v51l287 287v-52zM143 356v52l287 286v-51zM143 424v51l287 287v-51zM143 494v51l287 286v-51zM143 563v51l246 246h41v-10zM143 633v51l176 176h52zM143 702v52l107 106h51zM143 772v51l37 37h51z M143 840v20h21zM154 0l276 276v-49l-227 -227h-49zM190 1147h52l286 287h-51zM221 0l209 209v-51l-158 -158h-51zM260 1147l287 287h26v-25l-262 -262h-51zM291 0l139 139v-51l-88 -88h-51zM330 1147l243 244v-52l-192 -192h-51zM360 0l70 70v-52l-18 -18h-52zM399 1147 l174 174v-51l-122 -123h-52zM430 0zM467 1147l106 106v-51l-55 -55h-51zM537 1147l36 37v-37h-36z" />
<glyph unicode="&#xce;" horiz-adv-x="702" d="M-172 1637l137 207h248l-138 -207h-247zM0 1147v16l270 271h52l-287 -287h-35zM0 1182v51l201 201h51zM0 1251v52l131 131h51zM0 1321v51l61 62h52zM0 1391v43h43zM51 1147l287 287h51l-287 -287h-51zM121 1147l287 287h51l-287 -287h-51zM143 8v51l287 287v-51zM143 78 v51l287 287v-51zM143 147v52l287 286v-51zM143 217v51l287 287v-51zM143 287v51l287 287v-52zM143 356v52l287 286v-51zM143 424v51l287 287v-51zM143 494v51l287 286v-51zM143 563v51l246 246h41v-10zM143 633v51l176 176h52zM143 702v52l107 106h51zM143 772v51l37 37h51z M143 840v20h21zM154 0l276 276v-49l-227 -227h-49zM190 1147h52l286 287h-51zM221 0l209 209v-51l-158 -158h-51zM260 1147l287 287h26v-25l-262 -262h-51zM291 0l139 139v-51l-88 -88h-51zM330 1147l243 244v-52l-192 -192h-51zM360 0l70 70v-52l-18 -18h-52zM372 1844h248 l137 -207h-247zM399 1147l174 174v-51l-122 -123h-52zM430 0zM467 1147l106 106v-51l-55 -55h-51zM537 1147l36 37v-37h-36z" />
<glyph unicode="&#xcf;" horiz-adv-x="702" d="M-71 1700q0 59 41.5 101.5t101.5 42.5q59 0 101 -42.5t42 -101.5t-42 -101t-101 -42t-101 42t-42 101zM0 1147v16l270 271h52l-287 -287h-35zM0 1182v51l201 201h51zM0 1251v52l131 131h51zM0 1321v51l61 62h52zM0 1391v43h43zM51 1147l287 287h51l-287 -287h-51z M121 1147l287 287h51l-287 -287h-51zM143 8v51l287 287v-51zM143 78v51l287 287v-51zM143 147v52l287 286v-51zM143 217v51l287 287v-51zM143 287v51l287 287v-52zM143 356v52l287 286v-51zM143 424v51l287 287v-51zM143 494v51l287 286v-51zM143 563v51l246 246h41v-10z M143 633v51l176 176h52zM143 702v52l107 106h51zM143 772v51l37 37h51zM143 840v20h21zM154 0l276 276v-49l-227 -227h-49zM190 1147h52l286 287h-51zM221 0l209 209v-51l-158 -158h-51zM260 1147l287 287h26v-25l-262 -262h-51zM291 0l139 139v-51l-88 -88h-51zM330 1147 l243 244v-52l-192 -192h-51zM360 0l70 70v-52l-18 -18h-52zM373 1700q0 59 42 101.5t101 42.5t101.5 -42.5t42.5 -101.5t-42 -101t-102 -42q-59 0 -101 42t-42 101zM399 1147l174 174v-51l-122 -123h-52zM430 0zM467 1147l106 106v-51l-55 -55h-51zM537 1147l36 37v-37h-36z " />
<glyph unicode="&#xd1;" horiz-adv-x="1548" d="M143 0v47l287 287v-51l-283 -283h-4zM143 63v52l287 286v-51zM143 133v51l287 287v-51zM143 203v51l287 287v-52zM143 272v52l287 286v-51zM143 342v51l287 287v-51zM143 412v51l287 287v-52zM143 479v51l287 287v-51zM143 549v51l287 287v-51zM143 618v52l263 262 l20 -31zM143 688v51l236 236l18 -33zM143 758v51l209 209l19 -33zM143 827v52l183 180l18 -31zM143 895v51l156 156l18 -31zM143 965v51l129 129l19 -31zM143 1034v51l62 62h51zM143 1104v43h43zM166 0l264 264v-51l-213 -213h-51zM236 0l194 195v-52l-143 -143h-51z M279 1645v219q78 14 142.5 18.5t118.5 0t101.5 -13.5t90.5 -19t85 -18.5t89 -10.5t103 3t128 22l2 -9v-210q-57 -12 -106 -16.5t-92 -4.5q-78 0 -139.5 10.5t-116.5 24.5q-43 10 -85 18t-90.5 10.5t-103.5 -3t-127 -21.5zM305 0l125 125v-51l-74 -74h-51zM375 0l55 55v-55 h-55zM989 541v4l287 286v-51l-268 -268zM989 563v51l287 287v-51zM989 633v51l287 287v-51zM989 702v52l287 286v-51zM989 772v51l287 287v-51zM989 842v51l287 287v-52zM989 909v52l287 286v-51zM989 979v51l287 287v-51zM989 1049v51l287 286v-51zM989 1118v51l264 265h23 v-29zM989 1188v51l195 195h51zM989 1257v52l125 125h51zM989 1325v51l58 58h51zM989 1395v39h39zM1014 502l262 262v-51l-242 -244zM1040 459l236 235v-51l-215 -217zM1067 416l209 209v-52l-189 -188zM1094 373l182 182v-51l-162 -162zM1120 330l156 155v-51l-135 -135z M1147 289l129 127v-51l-109 -109zM1174 246l102 102v-51l-82 -84zM1200 203l76 76v-52l-55 -55zM1227 160l49 49v-51l-29 -29zM1253 117l23 22v-51l-2 -2z" />
<glyph unicode="&#xd2;" d="M176 1844h347l190 -287h-344zM430 1147v22l264 265h23h28l-286 -287h-29zM430 1188v51l195 195h51zM430 1257v52l125 125h51zM430 1325v51l57 58h52zM430 1395v39h39zM477 1147l285 285q10 -2 21.5 -3.5t21.5 -5.5l-277 -276h-51zM547 1147l274 274q10 -4 19.5 -6 t19.5 -6l-262 -262h-51zM616 1147l256 258q10 -4 18.5 -8t18.5 -8l-241 -242h-52zM684 1147l236 235q10 -4 17 -9t15 -9l-217 -219q-6 2 -18 2h-33zM750 1143l213 213q14 -10 28 -23l-205 -205q-12 8 -36 15zM799 1122l202 203q8 -6 14.5 -12t12.5 -13l-203 -202l-12 12 t-14 12zM834 1087l202 203q12 -14 23 -28l-209 -209q-6 16 -16 34zM856 1040l211 211q6 -8 11 -15t9 -15l-217 -217h-10q0 10 -1 18t-3 18zM889 1004l205 206q4 -10 8 -17t8 -17l-170 -172h-51zM958 1004l158 159q4 -10 7 -19t7 -20l-122 -120h-50zM1026 1004l107 106 q4 -10 6 -21.5t4 -21.5l-66 -63h-51zM1096 1004l49 47q2 -10 2 -22.5v-24.5h-51z" />
<glyph unicode="&#xd3;" d="M367 1557l190 287h347l-193 -287h-344zM430 1147v22l264 265h23h28l-286 -287h-29zM430 1188v51l195 195h51zM430 1257v52l125 125h51zM430 1325v51l57 58h52zM430 1395v39h39zM477 1147l285 285q10 -2 21.5 -3.5t21.5 -5.5l-277 -276h-51zM547 1147l274 274 q10 -4 19.5 -6t19.5 -6l-262 -262h-51zM616 1147l256 258q10 -4 18.5 -8t18.5 -8l-241 -242h-52zM684 1147l236 235q10 -4 17 -9t15 -9l-217 -219q-6 2 -18 2h-33zM750 1143l213 213q14 -10 28 -23l-205 -205q-12 8 -36 15zM799 1122l202 203q8 -6 14.5 -12t12.5 -13 l-203 -202l-12 12t-14 12zM834 1087l202 203q12 -14 23 -28l-209 -209q-6 16 -16 34zM856 1040l211 211q6 -8 11 -15t9 -15l-217 -217h-10q0 10 -1 18t-3 18zM889 1004l205 206q4 -10 8 -17t8 -17l-170 -172h-51zM958 1004l158 159q4 -10 7 -19t7 -20l-122 -120h-50z M1026 1004l107 106q4 -10 6 -21.5t4 -21.5l-66 -63h-51zM1096 1004l49 47q2 -10 2 -22.5v-24.5h-51z" />
<glyph unicode="&#xd4;" d="M107 1637l137 207h248l-138 -207h-247zM430 1147v22l264 265h23h28l-286 -287h-29zM430 1188v51l195 195h51zM430 1257v52l125 125h51zM430 1325v51l57 58h52zM430 1395v39h39zM477 1147l285 285q10 -2 21.5 -3.5t21.5 -5.5l-277 -276h-51zM547 1147l274 274 q10 -4 19.5 -6t19.5 -6l-262 -262h-51zM616 1147l256 258q10 -4 18.5 -8t18.5 -8l-241 -242h-52zM651 1844h248l137 -207h-247zM684 1147l236 235q10 -4 17 -9t15 -9l-217 -219q-6 2 -18 2h-33zM750 1143l213 213q14 -10 28 -23l-205 -205q-12 8 -36 15zM799 1122l202 203 q8 -6 14.5 -12t12.5 -13l-203 -202l-12 12t-14 12zM834 1087l202 203q12 -14 23 -28l-209 -209q-6 16 -16 34zM856 1040l211 211q6 -8 11 -15t9 -15l-217 -217h-10q0 10 -1 18t-3 18zM889 1004l205 206q4 -10 8 -17t8 -17l-170 -172h-51zM958 1004l158 159q4 -10 7 -19 t7 -20l-122 -120h-50zM1026 1004l107 106q4 -10 6 -21.5t4 -21.5l-66 -63h-51zM1096 1004l49 47q2 -10 2 -22.5v-24.5h-51z" />
<glyph unicode="&#xd5;" d="M145 1645v219q78 14 142.5 18.5t118.5 0t101.5 -13.5t90.5 -19t85 -18.5t89 -10.5t103 3t128 22l2 -9v-210q-57 -12 -106 -16.5t-92 -4.5q-78 0 -139.5 10.5t-116.5 24.5q-43 10 -85 18t-90.5 10.5t-103.5 -3t-127 -21.5zM430 1147v22l264 265h23h28l-286 -287h-29z M430 1188v51l195 195h51zM430 1257v52l125 125h51zM430 1325v51l57 58h52zM430 1395v39h39zM477 1147l285 285q10 -2 21.5 -3.5t21.5 -5.5l-277 -276h-51zM547 1147l274 274q10 -4 19.5 -6t19.5 -6l-262 -262h-51zM616 1147l256 258q10 -4 18.5 -8t18.5 -8l-241 -242h-52z M684 1147l236 235q10 -4 17 -9t15 -9l-217 -219q-6 2 -18 2h-33zM750 1143l213 213q14 -10 28 -23l-205 -205q-12 8 -36 15zM799 1122l202 203q8 -6 14.5 -12t12.5 -13l-203 -202l-12 12t-14 12zM834 1087l202 203q12 -14 23 -28l-209 -209q-6 16 -16 34zM856 1040l211 211 q6 -8 11 -15t9 -15l-217 -217h-10q0 10 -1 18t-3 18zM889 1004l205 206q4 -10 8 -17t8 -17l-170 -172h-51zM958 1004l158 159q4 -10 7 -19t7 -20l-122 -120h-50zM1026 1004l107 106q4 -10 6 -21.5t4 -21.5l-66 -63h-51zM1096 1004l49 47q2 -10 2 -22.5v-24.5h-51z" />
<glyph unicode="&#xd6;" d="M213 1700q0 59 41.5 101.5t101.5 42.5q59 0 101 -42.5t42 -101.5t-42 -101t-101 -42t-101 42t-42 101zM430 1147v22l264 265h23h28l-286 -287h-29zM430 1188v51l195 195h51zM430 1257v52l125 125h51zM430 1325v51l57 58h52zM430 1395v39h39zM477 1147l285 285 q10 -2 21.5 -3.5t21.5 -5.5l-277 -276h-51zM547 1147l274 274q10 -4 19.5 -6t19.5 -6l-262 -262h-51zM616 1147l256 258q10 -4 18.5 -8t18.5 -8l-241 -242h-52zM657 1700q0 59 42 101.5t101 42.5t101.5 -42.5t42.5 -101.5t-42 -101t-102 -42q-59 0 -101 42t-42 101z M684 1147l236 235q10 -4 17 -9t15 -9l-217 -219q-6 2 -18 2h-33zM750 1143l213 213q14 -10 28 -23l-205 -205q-12 8 -36 15zM799 1122l202 203q8 -6 14.5 -12t12.5 -13l-203 -202l-12 12t-14 12zM834 1087l202 203q12 -14 23 -28l-209 -209q-6 16 -16 34zM856 1040l211 211 q6 -8 11 -15t9 -15l-217 -217h-10q0 10 -1 18t-3 18zM889 1004l205 206q4 -10 8 -17t8 -17l-170 -172h-51zM958 1004l158 159q4 -10 7 -19t7 -20l-122 -120h-50zM1026 1004l107 106q4 -10 6 -21.5t4 -21.5l-66 -63h-51zM1096 1004l49 47q2 -10 2 -22.5v-24.5h-51z" />
<glyph unicode="&#xd7;" horiz-adv-x="1239" d="M0 1077l203 203l24 -23l-202 -202zM33 1044l203 203l26 -24l-203 -203zM68 1010l202 202l27 -24l-203 -203zM102 975l203 203l27 -25l-203 -203zM137 940l203 203l27 -25l-203 -203zM172 905l203 203l24 -25l-202 -202zM207 872l203 203l24 -26l-203 -203zM242 838 l202 202l25 -26l-203 -203zM276 803l203 203l25 -27l-203 -203zM311 768l203 203l25 -27l-203 -203zM346 733l203 203l14 -16l-203 -203zM563 920l361 360l10 -8l-361 -363zM584 901l360 361l25 -25l-361 -363zM616 866l363 361l25 -25l-361 -360zM651 831l363 361l24 -25 l-360 -360zM686 797l363 360l24 -24l-360 -361zM721 762l360 362l27 -26l-360 -361zM756 727l360 363l10 -13l-360 -360z" />
<glyph unicode="&#xd9;" horiz-adv-x="1476" d="M143 430v4l287 287v-51l-240 -240h-47zM143 453v51l287 287v-52zM143 522v51l287 287v-51zM143 590v51l287 287v-51zM143 659v52l287 286v-51zM143 729v51l287 287v-51zM143 799v51l287 287v-52zM143 868v52l287 286v-51zM143 938v51l287 287v-51zM143 1006v51l287 286 v-51zM143 1075v51l287 287v-51zM143 1145v51l238 238h49v-2zM143 1214v52l168 168h51zM143 1284v51l99 99h51zM143 1354v51l29 29h51zM143 1421v13h13zM209 430l221 221v-51l-170 -170h-51zM278 1844h347l190 -287h-344zM279 430l151 152v-52l-100 -100h-51zM348 430l82 82 v-51l-31 -31h-51zM416 430l14 12v-12h-14zM573 0v18l631 631v-51l-598 -598h-33zM573 37v51l199 199h2q37 0 66 16zM573 106v50l129 131h52zM573 174v51l62 62h51zM573 244v43h43zM625 0l579 580v-52l-528 -528h-51zM694 0l510 510v-51l-459 -459h-51zM764 0l440 440v-10 v-21.5t-2 -21.5l-385 -385q-10 -2 -21.5 -2h-21.5h-10zM838 4l362 363q-4 -16 -7 -33t-9 -33l-281 -281q-16 -6 -32.5 -9t-32.5 -7zM901 365q16 29 17 65v2l286 287v-51zM918 451v49l286 286v-49zM918 518v51l286 287v-51zM918 588v51l286 287v-52zM918 657v52l286 286v-51z M918 727v51l225 226h51zM918 797v51l155 156h51zM918 866v52l86 86h51zM918 934v51l18 19h51zM932 31l242 241q-33 -84 -95.5 -146.5t-146.5 -94.5z" />
<glyph unicode="&#xda;" horiz-adv-x="1476" d="M143 430v4l287 287v-51l-240 -240h-47zM143 453v51l287 287v-52zM143 522v51l287 287v-51zM143 590v51l287 287v-51zM143 659v52l287 286v-51zM143 729v51l287 287v-51zM143 799v51l287 287v-52zM143 868v52l287 286v-51zM143 938v51l287 287v-51zM143 1006v51l287 286 v-51zM143 1075v51l287 287v-51zM143 1145v51l238 238h49v-2zM143 1214v52l168 168h51zM143 1284v51l99 99h51zM143 1354v51l29 29h51zM143 1421v13h13zM209 430l221 221v-51l-170 -170h-51zM279 430l151 152v-52l-100 -100h-51zM348 430l82 82v-51l-31 -31h-51zM416 430 l14 12v-12h-14zM469 1557l190 287h347l-193 -287h-344zM573 0v18l631 631v-51l-598 -598h-33zM573 37v51l199 199h2q37 0 66 16zM573 106v50l129 131h52zM573 174v51l62 62h51zM573 244v43h43zM625 0l579 580v-52l-528 -528h-51zM694 0l510 510v-51l-459 -459h-51zM764 0 l440 440v-10v-21.5t-2 -21.5l-385 -385q-10 -2 -21.5 -2h-21.5h-10zM838 4l362 363q-4 -16 -7 -33t-9 -33l-281 -281q-16 -6 -32.5 -9t-32.5 -7zM901 365q16 29 17 65v2l286 287v-51zM918 451v49l286 286v-49zM918 518v51l286 287v-51zM918 588v51l286 287v-52zM918 657v52 l286 286v-51zM918 727v51l225 226h51zM918 797v51l155 156h51zM918 866v52l86 86h51zM918 934v51l18 19h51zM932 31l242 241q-33 -84 -95.5 -146.5t-146.5 -94.5z" />
<glyph unicode="&#xdb;" horiz-adv-x="1476" d="M143 430v4l287 287v-51l-240 -240h-47zM143 453v51l287 287v-52zM143 522v51l287 287v-51zM143 590v51l287 287v-51zM143 659v52l287 286v-51zM143 729v51l287 287v-51zM143 799v51l287 287v-52zM143 868v52l287 286v-51zM143 938v51l287 287v-51zM143 1006v51l287 286 v-51zM143 1075v51l287 287v-51zM143 1145v51l238 238h49v-2zM143 1214v52l168 168h51zM143 1284v51l99 99h51zM143 1354v51l29 29h51zM143 1421v13h13zM209 430l221 221v-51l-170 -170h-51zM211 1637l137 207h248l-138 -207h-247zM279 430l151 152v-52l-100 -100h-51z M348 430l82 82v-51l-31 -31h-51zM416 430l14 12v-12h-14zM573 0v18l631 631v-51l-598 -598h-33zM573 37v51l199 199h2q37 0 66 16zM573 106v50l129 131h52zM573 174v51l62 62h51zM573 244v43h43zM625 0l579 580v-52l-528 -528h-51zM694 0l510 510v-51l-459 -459h-51z M755 1844h248l137 -207h-247zM764 0l440 440v-10v-21.5t-2 -21.5l-385 -385q-10 -2 -21.5 -2h-21.5h-10zM838 4l362 363q-4 -16 -7 -33t-9 -33l-281 -281q-16 -6 -32.5 -9t-32.5 -7zM901 365q16 29 17 65v2l286 287v-51zM918 451v49l286 286v-49zM918 518v51l286 287v-51z M918 588v51l286 287v-52zM918 657v52l286 286v-51zM918 727v51l225 226h51zM918 797v51l155 156h51zM918 866v52l86 86h51zM918 934v51l18 19h51zM932 31l242 241q-33 -84 -95.5 -146.5t-146.5 -94.5z" />
<glyph unicode="&#xdc;" horiz-adv-x="1476" d="M143 430v4l287 287v-51l-240 -240h-47zM143 453v51l287 287v-52zM143 522v51l287 287v-51zM143 590v51l287 287v-51zM143 659v52l287 286v-51zM143 729v51l287 287v-51zM143 799v51l287 287v-52zM143 868v52l287 286v-51zM143 938v51l287 287v-51zM143 1006v51l287 286 v-51zM143 1075v51l287 287v-51zM143 1145v51l238 238h49v-2zM143 1214v52l168 168h51zM143 1284v51l99 99h51zM143 1354v51l29 29h51zM143 1421v13h13zM209 430l221 221v-51l-170 -170h-51zM279 430l151 152v-52l-100 -100h-51zM318 1700q0 59 41.5 101.5t101.5 42.5 q59 0 101 -42.5t42 -101.5t-42 -101t-101 -42t-101 42t-42 101zM348 430l82 82v-51l-31 -31h-51zM416 430l14 12v-12h-14zM573 0v18l631 631v-51l-598 -598h-33zM573 37v51l199 199h2q37 0 66 16zM573 106v50l129 131h52zM573 174v51l62 62h51zM573 244v43h43zM625 0 l579 580v-52l-528 -528h-51zM694 0l510 510v-51l-459 -459h-51zM762 1700q0 59 42 101.5t101 42.5t101.5 -42.5t42.5 -101.5t-42 -101t-102 -42q-59 0 -101 42t-42 101zM764 0l440 440v-10v-21.5t-2 -21.5l-385 -385q-10 -2 -21.5 -2h-21.5h-10zM838 4l362 363 q-4 -16 -7 -33t-9 -33l-281 -281q-16 -6 -32.5 -9t-32.5 -7zM901 365q16 29 17 65v2l286 287v-51zM918 451v49l286 286v-49zM918 518v51l286 287v-51zM918 588v51l286 287v-52zM918 657v52l286 286v-51zM918 727v51l225 226h51zM918 797v51l155 156h51zM918 866v52l86 86h51 zM918 934v51l18 19h51zM932 31l242 241q-33 -84 -95.5 -146.5t-146.5 -94.5z" />
<glyph unicode="&#xdd;" horiz-adv-x="1464" d="M0 1143v16l270 271h52l-287 -287h-35zM0 1178v51l201 201h51zM0 1247v51l131 132h51zM0 1317v51l61 62h52zM0 1386v44h43zM53 1143l287 287h51l-287 -287h-51zM121 1143l287 287h51l-287 -287h-51zM190 1143l287 287h51l-286 -287h-52zM260 1143l287 287h26v-25 l-262 -262h-51zM330 1143l243 243v-51l-192 -192h-51zM379 -4v18l268 269h51l-286 -287h-33zM379 33v51l199 199h51zM379 102v52l131 129h51zM379 172v51l61 60h52zM379 242v41h43zM399 1143l174 174v-51l-122 -123h-52zM430 -4l287 287h51l-287 -287h-51zM463 1557l190 287 h347l-193 -287h-344zM469 1143l104 104v-51l-53 -53h-51zM500 -4l286 287h52l-287 -287h-51zM537 1143l36 37v-37h-36zM569 -4l287 287h51l-286 -287h-52zM639 -4l287 287h26v-23l-262 -264h-51zM707 -4l245 246v-52l-194 -194h-51zM776 -4l176 176v-51l-125 -125h-51z M846 -4l106 106v-51l-55 -55h-51zM915 -4l37 39v-39h-37z" />
<glyph unicode="&#xe0;" horiz-adv-x="1531" d="M0 0v16l270 271h52l-287 -287h-35zM0 35v51l201 201h51zM0 104v52l131 131h51zM0 174v51l61 62h52zM0 242v45h45zM53 0l287 287h51l-287 -287h-51zM123 0l287 287h51l-287 -287h-51zM182 430l8 33l256 254h52l-287 -287h-29zM193 0l286 287h49l-286 -287h-49zM199 487 l22 74l156 156h51zM227 430l287 287h51l-286 -287h-52zM229 588l21 71l57 58h51zM258 686l10 31h21zM260 0l287 287h26v-25l-262 -262h-51zM297 430l287 287h51l-287 -287h-51zM305 1844h347l190 -287h-344zM330 0l243 244v-51l-192 -193h-51zM367 430l286 287h52l-287 -287 h-51zM399 0l174 174v-51l-122 -123h-52zM436 430l287 287h51l-287 -287h-51zM469 0l104 104v-51l-53 -53h-51zM506 430l287 287h51l-287 -287h-51zM539 0l34 35v-35h-34zM575 430l287 287h51l-286 -287h-52zM643 430l287 287h51l-287 -287h-51zM713 430l286 287h52 l-287 -287h-51zM782 430l287 287h51l-286 -287h-52zM831 0v16l271 271h51l-287 -287h-35zM831 35v51l201 201h51zM831 104v52l132 131h51zM831 172v51l64 64h51zM831 242v45h46zM852 430l287 287l10 -41l-246 -246h-51zM885 0l286 287h52l-287 -287h-51zM922 430l231 234 l12 -41l-192 -193h-51zM954 0l287 287h51l-286 -287h-52zM991 430l178 178l13 -39l-140 -139h-51zM1024 0l287 287h51l-287 -287h-51zM1059 430l127 125l12 -39l-88 -86h-51zM1092 0l286 287h27v-25l-262 -262h-51zM1128 430l74 72l12 -39l-34 -33h-52zM1161 0l244 244v-51 l-193 -193h-51zM1198 430l21 19l4 -19h-25zM1231 0l174 174v-51l-123 -123h-51zM1300 0l105 104v-51l-53 -53h-52zM1370 0l35 35v-35h-35z" />
<glyph unicode="&#xe1;" horiz-adv-x="1531" d="M0 0v16l270 271h52l-287 -287h-35zM0 35v51l201 201h51zM0 104v52l131 131h51zM0 174v51l61 62h52zM0 242v45h45zM53 0l287 287h51l-287 -287h-51zM123 0l287 287h51l-287 -287h-51zM182 430l8 33l256 254h52l-287 -287h-29zM193 0l286 287h49l-286 -287h-49zM199 487 l22 74l156 156h51zM227 430l287 287h51l-286 -287h-52zM229 588l21 71l57 58h51zM258 686l10 31h21zM260 0l287 287h26v-25l-262 -262h-51zM297 430l287 287h51l-287 -287h-51zM330 0l243 244v-51l-192 -193h-51zM367 430l286 287h52l-287 -287h-51zM399 0l174 174v-51 l-122 -123h-52zM436 430l287 287h51l-287 -287h-51zM469 0l104 104v-51l-53 -53h-51zM496 1557l190 287h347l-193 -287h-344zM506 430l287 287h51l-287 -287h-51zM539 0l34 35v-35h-34zM575 430l287 287h51l-286 -287h-52zM643 430l287 287h51l-287 -287h-51zM713 430 l286 287h52l-287 -287h-51zM782 430l287 287h51l-286 -287h-52zM831 0v16l271 271h51l-287 -287h-35zM831 35v51l201 201h51zM831 104v52l132 131h51zM831 172v51l64 64h51zM831 242v45h46zM852 430l287 287l10 -41l-246 -246h-51zM885 0l286 287h52l-287 -287h-51zM922 430 l231 234l12 -41l-192 -193h-51zM954 0l287 287h51l-286 -287h-52zM991 430l178 178l13 -39l-140 -139h-51zM1024 0l287 287h51l-287 -287h-51zM1059 430l127 125l12 -39l-88 -86h-51zM1092 0l286 287h27v-25l-262 -262h-51zM1128 430l74 72l12 -39l-34 -33h-52zM1161 0 l244 244v-51l-193 -193h-51zM1198 430l21 19l4 -19h-25zM1231 0l174 174v-51l-123 -123h-51zM1300 0l105 104v-51l-53 -53h-52zM1370 0l35 35v-35h-35z" />
<glyph unicode="&#xe2;" horiz-adv-x="1531" d="M0 0v16l270 271h52l-287 -287h-35zM0 35v51l201 201h51zM0 104v52l131 131h51zM0 174v51l61 62h52zM0 242v45h45zM53 0l287 287h51l-287 -287h-51zM123 0l287 287h51l-287 -287h-51zM182 430l8 33l256 254h52l-287 -287h-29zM193 0l286 287h49l-286 -287h-49zM199 487 l22 74l156 156h51zM227 430l287 287h51l-286 -287h-52zM229 588l21 71l57 58h51zM258 686l10 31h21zM260 0l287 287h26v-25l-262 -262h-51zM297 430l287 287h51l-287 -287h-51zM301 1637l137 207h248l-138 -207h-247zM330 0l243 244v-51l-192 -193h-51zM367 430l286 287h52 l-287 -287h-51zM399 0l174 174v-51l-122 -123h-52zM436 430l287 287h51l-287 -287h-51zM469 0l104 104v-51l-53 -53h-51zM506 430l287 287h51l-287 -287h-51zM539 0l34 35v-35h-34zM575 430l287 287h51l-286 -287h-52zM643 430l287 287h51l-287 -287h-51zM713 430l286 287 h52l-287 -287h-51zM782 430l287 287h51l-286 -287h-52zM831 0v16l271 271h51l-287 -287h-35zM831 35v51l201 201h51zM831 104v52l132 131h51zM831 172v51l64 64h51zM831 242v45h46zM845 1844h248l137 -207h-247zM852 430l287 287l10 -41l-246 -246h-51zM885 0l286 287h52 l-287 -287h-51zM922 430l231 234l12 -41l-192 -193h-51zM954 0l287 287h51l-286 -287h-52zM991 430l178 178l13 -39l-140 -139h-51zM1024 0l287 287h51l-287 -287h-51zM1059 430l127 125l12 -39l-88 -86h-51zM1092 0l286 287h27v-25l-262 -262h-51zM1128 430l74 72l12 -39 l-34 -33h-52zM1161 0l244 244v-51l-193 -193h-51zM1198 430l21 19l4 -19h-25zM1231 0l174 174v-51l-123 -123h-51zM1300 0l105 104v-51l-53 -53h-52zM1370 0l35 35v-35h-35z" />
<glyph unicode="&#xe3;" horiz-adv-x="1531" d="M0 0v16l270 271h52l-287 -287h-35zM0 35v51l201 201h51zM0 104v52l131 131h51zM0 174v51l61 62h52zM0 242v45h45zM53 0l287 287h51l-287 -287h-51zM123 0l287 287h51l-287 -287h-51zM182 430l8 33l256 254h52l-287 -287h-29zM193 0l286 287h49l-286 -287h-49zM199 487 l22 74l156 156h51zM227 430l287 287h51l-286 -287h-52zM229 588l21 71l57 58h51zM258 686l10 31h21zM260 0l287 287h26v-25l-262 -262h-51zM270 1645v219q78 14 142.5 18.5t118.5 0t101.5 -13.5t90.5 -19t85 -18.5t89 -10.5t103 3t128 22l2 -9v-210q-57 -12 -106 -16.5 t-92 -4.5q-78 0 -139.5 10.5t-116.5 24.5q-43 10 -85 18t-90.5 10.5t-103.5 -3t-127 -21.5zM297 430l287 287h51l-287 -287h-51zM330 0l243 244v-51l-192 -193h-51zM367 430l286 287h52l-287 -287h-51zM399 0l174 174v-51l-122 -123h-52zM436 430l287 287h51l-287 -287h-51z M469 0l104 104v-51l-53 -53h-51zM506 430l287 287h51l-287 -287h-51zM539 0l34 35v-35h-34zM575 430l287 287h51l-286 -287h-52zM643 430l287 287h51l-287 -287h-51zM713 430l286 287h52l-287 -287h-51zM782 430l287 287h51l-286 -287h-52zM831 0v16l271 271h51l-287 -287 h-35zM831 35v51l201 201h51zM831 104v52l132 131h51zM831 172v51l64 64h51zM831 242v45h46zM852 430l287 287l10 -41l-246 -246h-51zM885 0l286 287h52l-287 -287h-51zM922 430l231 234l12 -41l-192 -193h-51zM954 0l287 287h51l-286 -287h-52zM991 430l178 178l13 -39 l-140 -139h-51zM1024 0l287 287h51l-287 -287h-51zM1059 430l127 125l12 -39l-88 -86h-51zM1092 0l286 287h27v-25l-262 -262h-51zM1128 430l74 72l12 -39l-34 -33h-52zM1161 0l244 244v-51l-193 -193h-51zM1198 430l21 19l4 -19h-25zM1231 0l174 174v-51l-123 -123h-51z M1300 0l105 104v-51l-53 -53h-52zM1370 0l35 35v-35h-35z" />
<glyph unicode="&#xe4;" horiz-adv-x="1531" d="M0 0v16l270 271h52l-287 -287h-35zM0 35v51l201 201h51zM0 104v52l131 131h51zM0 174v51l61 62h52zM0 242v45h45zM53 0l287 287h51l-287 -287h-51zM123 0l287 287h51l-287 -287h-51zM182 430l8 33l256 254h52l-287 -287h-29zM193 0l286 287h49l-286 -287h-49zM199 487 l22 74l156 156h51zM227 430l287 287h51l-286 -287h-52zM229 588l21 71l57 58h51zM258 686l10 31h21zM260 0l287 287h26v-25l-262 -262h-51zM297 430l287 287h51l-287 -287h-51zM330 0l243 244v-51l-192 -193h-51zM338 1700q0 59 41.5 101.5t101.5 42.5q59 0 101 -42.5 t42 -101.5t-42 -101t-101 -42t-101 42t-42 101zM367 430l286 287h52l-287 -287h-51zM399 0l174 174v-51l-122 -123h-52zM436 430l287 287h51l-287 -287h-51zM469 0l104 104v-51l-53 -53h-51zM506 430l287 287h51l-287 -287h-51zM539 0l34 35v-35h-34zM575 430l287 287h51 l-286 -287h-52zM643 430l287 287h51l-287 -287h-51zM713 430l286 287h52l-287 -287h-51zM782 430l287 287h51l-286 -287h-52zM782 1700q0 59 42 101.5t101 42.5t101.5 -42.5t42.5 -101.5t-42 -101t-102 -42q-59 0 -101 42t-42 101zM831 0v16l271 271h51l-287 -287h-35z M831 35v51l201 201h51zM831 104v52l132 131h51zM831 172v51l64 64h51zM831 242v45h46zM852 430l287 287l10 -41l-246 -246h-51zM885 0l286 287h52l-287 -287h-51zM922 430l231 234l12 -41l-192 -193h-51zM954 0l287 287h51l-286 -287h-52zM991 430l178 178l13 -39l-140 -139 h-51zM1024 0l287 287h51l-287 -287h-51zM1059 430l127 125l12 -39l-88 -86h-51zM1092 0l286 287h27v-25l-262 -262h-51zM1128 430l74 72l12 -39l-34 -33h-52zM1161 0l244 244v-51l-193 -193h-51zM1198 430l21 19l4 -19h-25zM1231 0l174 174v-51l-123 -123h-51zM1300 0 l105 104v-51l-53 -53h-52zM1370 0l35 35v-35h-35z" />
<glyph unicode="&#xe5;" horiz-adv-x="1531" d="M0 0h35l287 287h-52l-270 -271v-16zM0 35l252 252h-51l-201 -201v-51zM0 104l182 183h-51l-131 -131v-52zM0 174l113 113h-52l-61 -62v-51zM0 242l45 45h-45v-45zM53 0h51l287 287h-51zM123 0h51l287 287h-51zM182 430h29l287 287h-52l-256 -254zM193 0h49l286 287h-49z M199 487l229 230h-51l-156 -156zM227 430h52l286 287h-51zM229 588l129 129h-51l-57 -58zM258 686l31 31h-21zM260 0h51l262 262v25h-26zM297 430h51l287 287h-51zM330 0h51l192 193v51zM367 430h51l287 287h-52zM399 0h52l122 123v51zM436 430h51l287 287h-51zM469 0h51 l53 53v51zM492 1698q0 45 16 84t46 67.5t69 46t84 17.5t83.5 -17.5t67.5 -46t46.5 -67.5t17.5 -84t-17.5 -84t-46.5 -68.5t-67.5 -46t-83.5 -16.5t-84 16.5t-69 46t-46 68.5t-16 84zM506 430h51l287 287h-51zM539 0h34v35zM575 430h52l286 287h-51zM635 1698 q0 -29 21.5 -50.5t50.5 -21.5t50 21.5t21 50.5t-21 50t-50 21t-50.5 -21.5t-21.5 -49.5zM643 430h51l287 287h-51zM713 430h51l287 287h-52zM782 430h52l286 287h-51zM831 0h35l287 287h-51l-271 -271v-16zM831 35l252 252h-51l-201 -201v-51zM831 104l183 183h-51 l-132 -131v-52zM831 172l115 115h-51l-64 -64v-51zM831 242l46 45h-46v-45zM852 430h51l246 246l-10 41zM885 0h51l287 287h-52zM922 430h51l192 193l-12 41zM954 0h52l286 287h-51zM991 430h51l140 139l-13 39zM1024 0h51l287 287h-51zM1059 430h51l88 86l-12 39zM1092 0 h51l262 262v25h-27zM1128 430h52l34 33l-12 39zM1161 0h51l193 193v51zM1198 430h25l-4 19zM1231 0h51l123 123v51zM1300 0h52l53 53v51zM1370 0h35v35z" />
<glyph unicode="&#xe6;" horiz-adv-x="1863" d="M713 1147v41l245 246h52l-287 -287h-10zM715 1208l20 72l154 154h51zM741 1147l287 287h51l-286 -287h-52zM743 1307l23 73l53 54h51zM774 1405l8 29h19zM809 1147l287 287h51l-287 -287h-51zM879 1147l286 287h52l-328 -328v41h-10zM889 287v39l287 286v-51l-275 -274 h-12zM889 342v51l287 287v-51zM889 412v51l287 287v-52zM889 481v51l287 287v-51zM889 551v51l287 287v-51zM889 621v51l287 286v-51zM889 690v51l287 287v-51zM889 760v49l287 287v-49zM889 827v52l555 555h51l-287 -287h-32v-33zM889 897v51l485 486h51zM889 967v51 l416 416h51zM889 1036v51l346 347h51zM920 287l256 256v-51l-205 -205h-51zM989 287l187 186v-51l-136 -135h-51zM1059 287l117 116v-51l-66 -65h-51zM1128 287l48 47v-47h-48zM1227 1147l286 287h50l-287 -287h-49zM1294 1147l287 287h51l-286 -287h-52zM1364 1147l287 287 h51l-287 -287h-51zM1434 1147l286 287h29v-23l-264 -264h-51zM1503 1147l246 246v-52l-195 -194h-51zM1573 1147l176 176v-51l-125 -125h-51zM1642 1147l107 106v-51l-55 -55h-52zM1710 1147l39 39v-39h-39z" />
<glyph unicode="&#xe7;" horiz-adv-x="1261" d="M0 418v12v37l250 250h37v-15zM0 485v52l180 180h51zM0 555v51l111 111h51zM0 625v51l41 41h51zM0 694v23h23zM2 399l285 287v-51l-281 -281q-2 10 -3 22.5t-1 22.5zM10 340l277 276v-51l-267 -266q-8 23 -10 41zM25 285l262 262v-51l-246 -246q-10 18 -16 35zM47 238 l240 239v-47v-4l-224 -221q-4 8 -8 15t-8 18zM72 193l217 217q2 -10 4 -19.5t6 -19.5l-207 -207q-4 6 -10 13t-10 16zM100 154l207 204q4 -8 9.5 -15t11.5 -13l-203 -203q-6 6 -12.5 12t-12.5 15zM135 117l203 202q8 -4 15 -9t16 -9l-207 -207q-6 6 -13.5 11.5t-13.5 11.5z M172 86l209 209q10 -4 21.5 -6t21.5 -2l-221 -221q-8 4 -15.5 9t-15.5 11zM215 57l227 230h52l-246 -246q-10 4 -17.5 8t-15.5 8zM260 35l252 252h51l-266 -267q-10 4 -18.5 7.5t-18.5 7.5zM311 16l271 271h51l-281 -281q-10 4 -20 5t-21 5zM369 4l282 283h51l-286 -287 q-12 0 -24.5 1t-22.5 3zM432 0l289 287q39 0 72 22l-310 -309h-51zM502 0l430 430h51l-430 -430h-51zM571 0l430 430h52l-430 -430h-52zM641 0l430 430h51l-430 -430h-51zM711 0l430 430h6v-24.5t-2 -22.5l-381 -381q-10 -2 -22.5 -2h-24.5h-6zM784 6l357 356 q-4 -18 -7.5 -35.5t-9.5 -33.5l-270 -270q-16 -6 -33.5 -9.5t-36.5 -7.5zM838 354q23 33 22 72l2 4h51zM883 33l231 231q-33 -78 -93 -138t-138 -93z" />
<glyph unicode="&#xe8;" horiz-adv-x="1132" d="M0 1147v20l266 267h51l-286 -287h-31zM0 1186v51l197 197h51zM0 1255v52l127 127h51zM0 1325v51l57 58h52zM0 1393v41h41zM49 1147l287 287h51l-287 -287h-51zM106 1844h347l190 -287h-344zM119 1147l287 287h51l-287 -287h-51zM188 1147l287 287h49l-286 -287h-50z M256 1147l287 287h51l-287 -287h-51zM326 1147l286 287h52l-287 -287h-51zM395 1147l287 287h51l-287 -287h-51zM465 1147l287 287h51l-287 -287h-51zM535 1147l286 287h51l-286 -287h-51zM604 1147l287 287h51l-287 -287h-51zM672 1147l286 287h46v-7l-281 -280h-51zM717 0 v12l287 287v-51l-248 -248h-39zM717 31v51l287 287v-52zM717 100v52l278 278h9v-43zM717 170v51l209 209h51zM717 240v51l139 139h51zM717 309v51l69 70h52zM717 377v51l2 2h51zM741 1147l263 262v-51l-211 -211h-52zM772 0l232 231v-51l-181 -180h-51zM811 1147l193 192 v-51l-142 -141h-51zM842 0l162 162v-51l-111 -111h-51zM881 1147l123 123v-51l-72 -72h-51zM911 0l93 92v-51l-41 -41h-52zM950 1147l54 53v-51l-3 -2h-51zM981 0l23 23v-23h-23z" />
<glyph unicode="&#xe9;" horiz-adv-x="1132" d="M0 1147v20l266 267h51l-286 -287h-31zM0 1186v51l197 197h51zM0 1255v52l127 127h51zM0 1325v51l57 58h52zM0 1393v41h41zM49 1147l287 287h51l-287 -287h-51zM119 1147l287 287h51l-287 -287h-51zM188 1147l287 287h49l-286 -287h-50zM256 1147l287 287h51l-287 -287 h-51zM297 1557l190 287h347l-193 -287h-344zM326 1147l286 287h52l-287 -287h-51zM395 1147l287 287h51l-287 -287h-51zM465 1147l287 287h51l-287 -287h-51zM535 1147l286 287h51l-286 -287h-51zM604 1147l287 287h51l-287 -287h-51zM672 1147l286 287h46v-7l-281 -280h-51 zM717 0v12l287 287v-51l-248 -248h-39zM717 31v51l287 287v-52zM717 100v52l278 278h9v-43zM717 170v51l209 209h51zM717 240v51l139 139h51zM717 309v51l69 70h52zM717 377v51l2 2h51zM741 1147l263 262v-51l-211 -211h-52zM772 0l232 231v-51l-181 -180h-51zM811 1147 l193 192v-51l-142 -141h-51zM842 0l162 162v-51l-111 -111h-51zM881 1147l123 123v-51l-72 -72h-51zM911 0l93 92v-51l-41 -41h-52zM950 1147l54 53v-51l-3 -2h-51zM981 0l23 23v-23h-23z" />
<glyph unicode="&#xea;" horiz-adv-x="1132" d="M0 1147v20l266 267h51l-286 -287h-31zM0 1186v51l197 197h51zM0 1255v52l127 127h51zM0 1325v51l57 58h52zM0 1393v41h41zM49 1147l287 287h51l-287 -287h-51zM74 1637l137 207h248l-138 -207h-247zM119 1147l287 287h51l-287 -287h-51zM188 1147l287 287h49l-286 -287 h-50zM256 1147l287 287h51l-287 -287h-51zM326 1147l286 287h52l-287 -287h-51zM395 1147l287 287h51l-287 -287h-51zM465 1147l287 287h51l-287 -287h-51zM535 1147l286 287h51l-286 -287h-51zM604 1147l287 287h51l-287 -287h-51zM618 1844h248l137 -207h-247zM672 1147 l286 287h46v-7l-281 -280h-51zM717 0v12l287 287v-51l-248 -248h-39zM717 31v51l287 287v-52zM717 100v52l278 278h9v-43zM717 170v51l209 209h51zM717 240v51l139 139h51zM717 309v51l69 70h52zM717 377v51l2 2h51zM741 1147l263 262v-51l-211 -211h-52zM772 0l232 231v-51 l-181 -180h-51zM811 1147l193 192v-51l-142 -141h-51zM842 0l162 162v-51l-111 -111h-51zM881 1147l123 123v-51l-72 -72h-51zM911 0l93 92v-51l-41 -41h-52zM950 1147l54 53v-51l-3 -2h-51zM981 0l23 23v-23h-23z" />
<glyph unicode="&#xeb;" horiz-adv-x="1132" d="M0 1147v20l266 267h51l-286 -287h-31zM0 1186v51l197 197h51zM0 1255v52l127 127h51zM0 1325v51l57 58h52zM0 1393v41h41zM49 1147l287 287h51l-287 -287h-51zM119 1147l287 287h51l-287 -287h-51zM130 1700q0 59 41.5 101.5t101.5 42.5q59 0 101 -42.5t42 -101.5 t-42 -101t-101 -42t-101 42t-42 101zM188 1147l287 287h49l-286 -287h-50zM256 1147l287 287h51l-287 -287h-51zM326 1147l286 287h52l-287 -287h-51zM395 1147l287 287h51l-287 -287h-51zM465 1147l287 287h51l-287 -287h-51zM535 1147l286 287h51l-286 -287h-51zM574 1700 q0 59 42 101.5t101 42.5t101.5 -42.5t42.5 -101.5t-42 -101t-102 -42q-59 0 -101 42t-42 101zM604 1147l287 287h51l-287 -287h-51zM672 1147l286 287h46v-7l-281 -280h-51zM717 0v12l287 287v-51l-248 -248h-39zM717 31v51l287 287v-52zM717 100v52l278 278h9v-43zM717 170 v51l209 209h51zM717 240v51l139 139h51zM717 309v51l69 70h52zM717 377v51l2 2h51zM741 1147l263 262v-51l-211 -211h-52zM772 0l232 231v-51l-181 -180h-51zM811 1147l193 192v-51l-142 -141h-51zM842 0l162 162v-51l-111 -111h-51zM881 1147l123 123v-51l-72 -72h-51z M911 0l93 92v-51l-41 -41h-52zM950 1147l54 53v-51l-3 -2h-51zM981 0l23 23v-23h-23z" />
<glyph unicode="&#xec;" horiz-adv-x="702" d="M-109 1844h347l190 -287h-344zM0 1147v16l270 271h52l-287 -287h-35zM0 1182v51l201 201h51zM0 1251v52l131 131h51zM0 1321v51l61 62h52zM0 1391v43h43zM51 1147l287 287h51l-287 -287h-51zM121 1147l287 287h51l-287 -287h-51zM143 8v51l287 287v-51zM143 78v51 l287 287v-51zM143 147v52l287 286v-51zM143 217v51l287 287v-51zM143 287v51l287 287v-52zM143 356v52l287 286v-51zM143 424v51l287 287v-51zM143 494v51l287 286v-51zM143 563v51l246 246h41v-10zM143 633v51l176 176h52zM143 702v52l107 106h51zM143 772v51l37 37h51z M143 840v20h21zM154 0l276 276v-49l-227 -227h-49zM190 1147h52l286 287h-51zM221 0l209 209v-51l-158 -158h-51zM260 1147l287 287h26v-25l-262 -262h-51zM291 0l139 139v-51l-88 -88h-51zM330 1147l243 244v-52l-192 -192h-51zM360 0l70 70v-52l-18 -18h-52zM399 1147 l174 174v-51l-122 -123h-52zM430 0zM467 1147l106 106v-51l-55 -55h-51zM537 1147l36 37v-37h-36z" />
<glyph unicode="&#xed;" horiz-adv-x="702" d="M0 1147v16l270 271h52l-287 -287h-35zM0 1182v51l201 201h51zM0 1251v52l131 131h51zM0 1321v51l61 62h52zM0 1391v43h43zM51 1147l287 287h51l-287 -287h-51zM82 1557l190 287h347l-193 -287h-344zM121 1147l287 287h51l-287 -287h-51zM143 8v51l287 287v-51zM143 78v51 l287 287v-51zM143 147v52l287 286v-51zM143 217v51l287 287v-51zM143 287v51l287 287v-52zM143 356v52l287 286v-51zM143 424v51l287 287v-51zM143 494v51l287 286v-51zM143 563v51l246 246h41v-10zM143 633v51l176 176h52zM143 702v52l107 106h51zM143 772v51l37 37h51z M143 840v20h21zM154 0l276 276v-49l-227 -227h-49zM190 1147h52l286 287h-51zM221 0l209 209v-51l-158 -158h-51zM260 1147l287 287h26v-25l-262 -262h-51zM291 0l139 139v-51l-88 -88h-51zM330 1147l243 244v-52l-192 -192h-51zM360 0l70 70v-52l-18 -18h-52zM399 1147 l174 174v-51l-122 -123h-52zM430 0zM467 1147l106 106v-51l-55 -55h-51zM537 1147l36 37v-37h-36z" />
<glyph unicode="&#xee;" horiz-adv-x="702" d="M-172 1637l137 207h248l-138 -207h-247zM0 1147v16l270 271h52l-287 -287h-35zM0 1182v51l201 201h51zM0 1251v52l131 131h51zM0 1321v51l61 62h52zM0 1391v43h43zM51 1147l287 287h51l-287 -287h-51zM121 1147l287 287h51l-287 -287h-51zM143 8v51l287 287v-51zM143 78 v51l287 287v-51zM143 147v52l287 286v-51zM143 217v51l287 287v-51zM143 287v51l287 287v-52zM143 356v52l287 286v-51zM143 424v51l287 287v-51zM143 494v51l287 286v-51zM143 563v51l246 246h41v-10zM143 633v51l176 176h52zM143 702v52l107 106h51zM143 772v51l37 37h51z M143 840v20h21zM154 0l276 276v-49l-227 -227h-49zM190 1147h52l286 287h-51zM221 0l209 209v-51l-158 -158h-51zM260 1147l287 287h26v-25l-262 -262h-51zM291 0l139 139v-51l-88 -88h-51zM330 1147l243 244v-52l-192 -192h-51zM360 0l70 70v-52l-18 -18h-52zM372 1844h248 l137 -207h-247zM399 1147l174 174v-51l-122 -123h-52zM430 0zM467 1147l106 106v-51l-55 -55h-51zM537 1147l36 37v-37h-36z" />
<glyph unicode="&#xef;" horiz-adv-x="702" d="M-71 1700q0 59 41.5 101.5t101.5 42.5q59 0 101 -42.5t42 -101.5t-42 -101t-101 -42t-101 42t-42 101zM0 1147v16l270 271h52l-287 -287h-35zM0 1182v51l201 201h51zM0 1251v52l131 131h51zM0 1321v51l61 62h52zM0 1391v43h43zM51 1147l287 287h51l-287 -287h-51z M121 1147l287 287h51l-287 -287h-51zM143 8v51l287 287v-51zM143 78v51l287 287v-51zM143 147v52l287 286v-51zM143 217v51l287 287v-51zM143 287v51l287 287v-52zM143 356v52l287 286v-51zM143 424v51l287 287v-51zM143 494v51l287 286v-51zM143 563v51l246 246h41v-10z M143 633v51l176 176h52zM143 702v52l107 106h51zM143 772v51l37 37h51zM143 840v20h21zM154 0l276 276v-49l-227 -227h-49zM190 1147h52l286 287h-51zM221 0l209 209v-51l-158 -158h-51zM260 1147l287 287h26v-25l-262 -262h-51zM291 0l139 139v-51l-88 -88h-51zM330 1147 l243 244v-52l-192 -192h-51zM360 0l70 70v-52l-18 -18h-52zM373 1700q0 59 42 101.5t101 42.5t101.5 -42.5t42.5 -101.5t-42 -101t-102 -42q-59 0 -101 42t-42 101zM399 1147l174 174v-51l-122 -123h-52zM430 0zM467 1147l106 106v-51l-55 -55h-51zM537 1147l36 37v-37h-36z " />
<glyph unicode="&#xf1;" horiz-adv-x="1548" d="M143 0v47l287 287v-51l-283 -283h-4zM143 63v52l287 286v-51zM143 133v51l287 287v-51zM143 203v51l287 287v-52zM143 272v52l287 286v-51zM143 342v51l287 287v-51zM143 412v51l287 287v-52zM143 479v51l287 287v-51zM143 549v51l287 287v-51zM143 618v52l263 262 l20 -31zM143 688v51l236 236l18 -33zM143 758v51l209 209l19 -33zM143 827v52l183 180l18 -31zM143 895v51l156 156l18 -31zM143 965v51l129 129l19 -31zM143 1034v51l62 62h51zM143 1104v43h43zM166 0l264 264v-51l-213 -213h-51zM236 0l194 195v-52l-143 -143h-51z M279 1645v219q78 14 142.5 18.5t118.5 0t101.5 -13.5t90.5 -19t85 -18.5t89 -10.5t103 3t128 22l2 -9v-210q-57 -12 -106 -16.5t-92 -4.5q-78 0 -139.5 10.5t-116.5 24.5q-43 10 -85 18t-90.5 10.5t-103.5 -3t-127 -21.5zM305 0l125 125v-51l-74 -74h-51zM375 0l55 55v-55 h-55zM989 541v4l287 286v-51l-268 -268zM989 563v51l287 287v-51zM989 633v51l287 287v-51zM989 702v52l287 286v-51zM989 772v51l287 287v-51zM989 842v51l287 287v-52zM989 909v52l287 286v-51zM989 979v51l287 287v-51zM989 1049v51l287 286v-51zM989 1118v51l264 265h23 v-29zM989 1188v51l195 195h51zM989 1257v52l125 125h51zM989 1325v51l58 58h51zM989 1395v39h39zM1014 502l262 262v-51l-242 -244zM1040 459l236 235v-51l-215 -217zM1067 416l209 209v-52l-189 -188zM1094 373l182 182v-51l-162 -162zM1120 330l156 155v-51l-135 -135z M1147 289l129 127v-51l-109 -109zM1174 246l102 102v-51l-82 -84zM1200 203l76 76v-52l-55 -55zM1227 160l49 49v-51l-29 -29zM1253 117l23 22v-51l-2 -2z" />
<glyph unicode="&#xf2;" d="M176 1844h347l190 -287h-344zM430 1147v22l264 265h23h28l-286 -287h-29zM430 1188v51l195 195h51zM430 1257v52l125 125h51zM430 1325v51l57 58h52zM430 1395v39h39zM477 1147l285 285q10 -2 21.5 -3.5t21.5 -5.5l-277 -276h-51zM547 1147l274 274q10 -4 19.5 -6 t19.5 -6l-262 -262h-51zM616 1147l256 258q10 -4 18.5 -8t18.5 -8l-241 -242h-52zM684 1147l236 235q10 -4 17 -9t15 -9l-217 -219q-6 2 -18 2h-33zM750 1143l213 213q14 -10 28 -23l-205 -205q-12 8 -36 15zM799 1122l202 203q8 -6 14.5 -12t12.5 -13l-203 -202l-12 12 t-14 12zM834 1087l202 203q12 -14 23 -28l-209 -209q-6 16 -16 34zM856 1040l211 211q6 -8 11 -15t9 -15l-217 -217h-10q0 10 -1 18t-3 18zM889 1004l205 206q4 -10 8 -17t8 -17l-170 -172h-51zM958 1004l158 159q4 -10 7 -19t7 -20l-122 -120h-50zM1026 1004l107 106 q4 -10 6 -21.5t4 -21.5l-66 -63h-51zM1096 1004l49 47q2 -10 2 -22.5v-24.5h-51z" />
<glyph unicode="&#xf3;" d="M367 1557l190 287h347l-193 -287h-344zM430 1147v22l264 265h23h28l-286 -287h-29zM430 1188v51l195 195h51zM430 1257v52l125 125h51zM430 1325v51l57 58h52zM430 1395v39h39zM477 1147l285 285q10 -2 21.5 -3.5t21.5 -5.5l-277 -276h-51zM547 1147l274 274 q10 -4 19.5 -6t19.5 -6l-262 -262h-51zM616 1147l256 258q10 -4 18.5 -8t18.5 -8l-241 -242h-52zM684 1147l236 235q10 -4 17 -9t15 -9l-217 -219q-6 2 -18 2h-33zM750 1143l213 213q14 -10 28 -23l-205 -205q-12 8 -36 15zM799 1122l202 203q8 -6 14.5 -12t12.5 -13 l-203 -202l-12 12t-14 12zM834 1087l202 203q12 -14 23 -28l-209 -209q-6 16 -16 34zM856 1040l211 211q6 -8 11 -15t9 -15l-217 -217h-10q0 10 -1 18t-3 18zM889 1004l205 206q4 -10 8 -17t8 -17l-170 -172h-51zM958 1004l158 159q4 -10 7 -19t7 -20l-122 -120h-50z M1026 1004l107 106q4 -10 6 -21.5t4 -21.5l-66 -63h-51zM1096 1004l49 47q2 -10 2 -22.5v-24.5h-51z" />
<glyph unicode="&#xf4;" d="M107 1637l137 207h248l-138 -207h-247zM430 1147v22l264 265h23h28l-286 -287h-29zM430 1188v51l195 195h51zM430 1257v52l125 125h51zM430 1325v51l57 58h52zM430 1395v39h39zM477 1147l285 285q10 -2 21.5 -3.5t21.5 -5.5l-277 -276h-51zM547 1147l274 274 q10 -4 19.5 -6t19.5 -6l-262 -262h-51zM616 1147l256 258q10 -4 18.5 -8t18.5 -8l-241 -242h-52zM651 1844h248l137 -207h-247zM684 1147l236 235q10 -4 17 -9t15 -9l-217 -219q-6 2 -18 2h-33zM750 1143l213 213q14 -10 28 -23l-205 -205q-12 8 -36 15zM799 1122l202 203 q8 -6 14.5 -12t12.5 -13l-203 -202l-12 12t-14 12zM834 1087l202 203q12 -14 23 -28l-209 -209q-6 16 -16 34zM856 1040l211 211q6 -8 11 -15t9 -15l-217 -217h-10q0 10 -1 18t-3 18zM889 1004l205 206q4 -10 8 -17t8 -17l-170 -172h-51zM958 1004l158 159q4 -10 7 -19 t7 -20l-122 -120h-50zM1026 1004l107 106q4 -10 6 -21.5t4 -21.5l-66 -63h-51zM1096 1004l49 47q2 -10 2 -22.5v-24.5h-51z" />
<glyph unicode="&#xf5;" d="M145 1645v219q78 14 142.5 18.5t118.5 0t101.5 -13.5t90.5 -19t85 -18.5t89 -10.5t103 3t128 22l2 -9v-210q-57 -12 -106 -16.5t-92 -4.5q-78 0 -139.5 10.5t-116.5 24.5q-43 10 -85 18t-90.5 10.5t-103.5 -3t-127 -21.5zM430 1147v22l264 265h23h28l-286 -287h-29z M430 1188v51l195 195h51zM430 1257v52l125 125h51zM430 1325v51l57 58h52zM430 1395v39h39zM477 1147l285 285q10 -2 21.5 -3.5t21.5 -5.5l-277 -276h-51zM547 1147l274 274q10 -4 19.5 -6t19.5 -6l-262 -262h-51zM616 1147l256 258q10 -4 18.5 -8t18.5 -8l-241 -242h-52z M684 1147l236 235q10 -4 17 -9t15 -9l-217 -219q-6 2 -18 2h-33zM750 1143l213 213q14 -10 28 -23l-205 -205q-12 8 -36 15zM799 1122l202 203q8 -6 14.5 -12t12.5 -13l-203 -202l-12 12t-14 12zM834 1087l202 203q12 -14 23 -28l-209 -209q-6 16 -16 34zM856 1040l211 211 q6 -8 11 -15t9 -15l-217 -217h-10q0 10 -1 18t-3 18zM889 1004l205 206q4 -10 8 -17t8 -17l-170 -172h-51zM958 1004l158 159q4 -10 7 -19t7 -20l-122 -120h-50zM1026 1004l107 106q4 -10 6 -21.5t4 -21.5l-66 -63h-51zM1096 1004l49 47q2 -10 2 -22.5v-24.5h-51z" />
<glyph unicode="&#xf6;" d="M213 1700q0 59 41.5 101.5t101.5 42.5q59 0 101 -42.5t42 -101.5t-42 -101t-101 -42t-101 42t-42 101zM430 1147v22l264 265h23h28l-286 -287h-29zM430 1188v51l195 195h51zM430 1257v52l125 125h51zM430 1325v51l57 58h52zM430 1395v39h39zM477 1147l285 285 q10 -2 21.5 -3.5t21.5 -5.5l-277 -276h-51zM547 1147l274 274q10 -4 19.5 -6t19.5 -6l-262 -262h-51zM616 1147l256 258q10 -4 18.5 -8t18.5 -8l-241 -242h-52zM657 1700q0 59 42 101.5t101 42.5t101.5 -42.5t42.5 -101.5t-42 -101t-102 -42q-59 0 -101 42t-42 101z M684 1147l236 235q10 -4 17 -9t15 -9l-217 -219q-6 2 -18 2h-33zM750 1143l213 213q14 -10 28 -23l-205 -205q-12 8 -36 15zM799 1122l202 203q8 -6 14.5 -12t12.5 -13l-203 -202l-12 12t-14 12zM834 1087l202 203q12 -14 23 -28l-209 -209q-6 16 -16 34zM856 1040l211 211 q6 -8 11 -15t9 -15l-217 -217h-10q0 10 -1 18t-3 18zM889 1004l205 206q4 -10 8 -17t8 -17l-170 -172h-51zM958 1004l158 159q4 -10 7 -19t7 -20l-122 -120h-50zM1026 1004l107 106q4 -10 6 -21.5t4 -21.5l-66 -63h-51zM1096 1004l49 47q2 -10 2 -22.5v-24.5h-51z" />
<glyph unicode="&#xf7;" d="M573 573v17l271 270h51l-287 -287h-35zM573 608v51l201 201h51zM573 678v51l132 131h51zM573 748v51l62 61h51zM573 815v45h45zM627 573l286 287h52l-287 -287h-51zM696 573l287 287h51l-286 -287h-52zM764 573l287 287h51l-287 -287h-51zM834 573l286 287h27v-24 l-262 -263h-51zM903 573l244 244v-51l-193 -193h-51zM973 573l174 175v-52l-123 -123h-51zM1042 573l105 105v-51l-53 -54h-52zM1112 573l35 35v-35h-35z" />
<glyph unicode="&#xf9;" horiz-adv-x="1476" d="M143 430v4l287 287v-51l-240 -240h-47zM143 453v51l287 287v-52zM143 522v51l287 287v-51zM143 590v51l287 287v-51zM143 659v52l287 286v-51zM143 729v51l287 287v-51zM143 799v51l287 287v-52zM143 868v52l287 286v-51zM143 938v51l287 287v-51zM143 1006v51l287 286 v-51zM143 1075v51l287 287v-51zM143 1145v51l238 238h49v-2zM143 1214v52l168 168h51zM143 1284v51l99 99h51zM143 1354v51l29 29h51zM143 1421v13h13zM209 430l221 221v-51l-170 -170h-51zM278 1844h347l190 -287h-344zM279 430l151 152v-52l-100 -100h-51zM348 430l82 82 v-51l-31 -31h-51zM416 430l14 12v-12h-14zM573 0v18l631 631v-51l-598 -598h-33zM573 37v51l199 199h2q37 0 66 16zM573 106v50l129 131h52zM573 174v51l62 62h51zM573 244v43h43zM625 0l579 580v-52l-528 -528h-51zM694 0l510 510v-51l-459 -459h-51zM764 0l440 440v-10 v-21.5t-2 -21.5l-385 -385q-10 -2 -21.5 -2h-21.5h-10zM838 4l362 363q-4 -16 -7 -33t-9 -33l-281 -281q-16 -6 -32.5 -9t-32.5 -7zM901 365q16 29 17 65v2l286 287v-51zM918 451v49l286 286v-49zM918 518v51l286 287v-51zM918 588v51l286 287v-52zM918 657v52l286 286v-51z M918 727v51l225 226h51zM918 797v51l155 156h51zM918 866v52l86 86h51zM918 934v51l18 19h51zM932 31l242 241q-33 -84 -95.5 -146.5t-146.5 -94.5z" />
<glyph unicode="&#xfa;" horiz-adv-x="1476" d="M143 430v4l287 287v-51l-240 -240h-47zM143 453v51l287 287v-52zM143 522v51l287 287v-51zM143 590v51l287 287v-51zM143 659v52l287 286v-51zM143 729v51l287 287v-51zM143 799v51l287 287v-52zM143 868v52l287 286v-51zM143 938v51l287 287v-51zM143 1006v51l287 286 v-51zM143 1075v51l287 287v-51zM143 1145v51l238 238h49v-2zM143 1214v52l168 168h51zM143 1284v51l99 99h51zM143 1354v51l29 29h51zM143 1421v13h13zM209 430l221 221v-51l-170 -170h-51zM279 430l151 152v-52l-100 -100h-51zM348 430l82 82v-51l-31 -31h-51zM416 430 l14 12v-12h-14zM469 1557l190 287h347l-193 -287h-344zM573 0v18l631 631v-51l-598 -598h-33zM573 37v51l199 199h2q37 0 66 16zM573 106v50l129 131h52zM573 174v51l62 62h51zM573 244v43h43zM625 0l579 580v-52l-528 -528h-51zM694 0l510 510v-51l-459 -459h-51zM764 0 l440 440v-10v-21.5t-2 -21.5l-385 -385q-10 -2 -21.5 -2h-21.5h-10zM838 4l362 363q-4 -16 -7 -33t-9 -33l-281 -281q-16 -6 -32.5 -9t-32.5 -7zM901 365q16 29 17 65v2l286 287v-51zM918 451v49l286 286v-49zM918 518v51l286 287v-51zM918 588v51l286 287v-52zM918 657v52 l286 286v-51zM918 727v51l225 226h51zM918 797v51l155 156h51zM918 866v52l86 86h51zM918 934v51l18 19h51zM932 31l242 241q-33 -84 -95.5 -146.5t-146.5 -94.5z" />
<glyph unicode="&#xfb;" horiz-adv-x="1476" d="M143 430v4l287 287v-51l-240 -240h-47zM143 453v51l287 287v-52zM143 522v51l287 287v-51zM143 590v51l287 287v-51zM143 659v52l287 286v-51zM143 729v51l287 287v-51zM143 799v51l287 287v-52zM143 868v52l287 286v-51zM143 938v51l287 287v-51zM143 1006v51l287 286 v-51zM143 1075v51l287 287v-51zM143 1145v51l238 238h49v-2zM143 1214v52l168 168h51zM143 1284v51l99 99h51zM143 1354v51l29 29h51zM143 1421v13h13zM209 430l221 221v-51l-170 -170h-51zM211 1637l137 207h248l-138 -207h-247zM279 430l151 152v-52l-100 -100h-51z M348 430l82 82v-51l-31 -31h-51zM416 430l14 12v-12h-14zM573 0v18l631 631v-51l-598 -598h-33zM573 37v51l199 199h2q37 0 66 16zM573 106v50l129 131h52zM573 174v51l62 62h51zM573 244v43h43zM625 0l579 580v-52l-528 -528h-51zM694 0l510 510v-51l-459 -459h-51z M755 1844h248l137 -207h-247zM764 0l440 440v-10v-21.5t-2 -21.5l-385 -385q-10 -2 -21.5 -2h-21.5h-10zM838 4l362 363q-4 -16 -7 -33t-9 -33l-281 -281q-16 -6 -32.5 -9t-32.5 -7zM901 365q16 29 17 65v2l286 287v-51zM918 451v49l286 286v-49zM918 518v51l286 287v-51z M918 588v51l286 287v-52zM918 657v52l286 286v-51zM918 727v51l225 226h51zM918 797v51l155 156h51zM918 866v52l86 86h51zM918 934v51l18 19h51zM932 31l242 241q-33 -84 -95.5 -146.5t-146.5 -94.5z" />
<glyph unicode="&#xfc;" horiz-adv-x="1476" d="M143 430v4l287 287v-51l-240 -240h-47zM143 453v51l287 287v-52zM143 522v51l287 287v-51zM143 590v51l287 287v-51zM143 659v52l287 286v-51zM143 729v51l287 287v-51zM143 799v51l287 287v-52zM143 868v52l287 286v-51zM143 938v51l287 287v-51zM143 1006v51l287 286 v-51zM143 1075v51l287 287v-51zM143 1145v51l238 238h49v-2zM143 1214v52l168 168h51zM143 1284v51l99 99h51zM143 1354v51l29 29h51zM143 1421v13h13zM209 430l221 221v-51l-170 -170h-51zM279 430l151 152v-52l-100 -100h-51zM318 1700q0 59 41.5 101.5t101.5 42.5 q59 0 101 -42.5t42 -101.5t-42 -101t-101 -42t-101 42t-42 101zM348 430l82 82v-51l-31 -31h-51zM416 430l14 12v-12h-14zM573 0v18l631 631v-51l-598 -598h-33zM573 37v51l199 199h2q37 0 66 16zM573 106v50l129 131h52zM573 174v51l62 62h51zM573 244v43h43zM625 0 l579 580v-52l-528 -528h-51zM694 0l510 510v-51l-459 -459h-51zM762 1700q0 59 42 101.5t101 42.5t101.5 -42.5t42.5 -101.5t-42 -101t-102 -42q-59 0 -101 42t-42 101zM764 0l440 440v-10v-21.5t-2 -21.5l-385 -385q-10 -2 -21.5 -2h-21.5h-10zM838 4l362 363 q-4 -16 -7 -33t-9 -33l-281 -281q-16 -6 -32.5 -9t-32.5 -7zM901 365q16 29 17 65v2l286 287v-51zM918 451v49l286 286v-49zM918 518v51l286 287v-51zM918 588v51l286 287v-52zM918 657v52l286 286v-51zM918 727v51l225 226h51zM918 797v51l155 156h51zM918 866v52l86 86h51 zM918 934v51l18 19h51zM932 31l242 241q-33 -84 -95.5 -146.5t-146.5 -94.5z" />
<glyph unicode="&#xfd;" horiz-adv-x="1464" d="M0 1143v16l270 271h52l-287 -287h-35zM0 1178v51l201 201h51zM0 1247v51l131 132h51zM0 1317v51l61 62h52zM0 1386v44h43zM53 1143l287 287h51l-287 -287h-51zM121 1143l287 287h51l-287 -287h-51zM190 1143l287 287h51l-286 -287h-52zM260 1143l287 287h26v-25 l-262 -262h-51zM330 1143l243 243v-51l-192 -192h-51zM379 -4v18l268 269h51l-286 -287h-33zM379 33v51l199 199h51zM379 102v52l131 129h51zM379 172v51l61 60h52zM379 242v41h43zM399 1143l174 174v-51l-122 -123h-52zM430 -4l287 287h51l-287 -287h-51zM463 1557l190 287 h347l-193 -287h-344zM469 1143l104 104v-51l-53 -53h-51zM500 -4l286 287h52l-287 -287h-51zM537 1143l36 37v-37h-36zM569 -4l287 287h51l-286 -287h-52zM639 -4l287 287h26v-23l-262 -264h-51zM707 -4l245 246v-52l-194 -194h-51zM776 -4l176 176v-51l-125 -125h-51z M846 -4l106 106v-51l-55 -55h-51zM915 -4l37 39v-39h-37z" />
<glyph unicode="&#xff;" horiz-adv-x="1464" d="M0 1143v16l270 271h52l-287 -287h-35zM0 1178v51l201 201h51zM0 1247v51l131 132h51zM0 1317v51l61 62h52zM0 1386v44h43zM53 1143l287 287h51l-287 -287h-51zM121 1143l287 287h51l-287 -287h-51zM190 1143l287 287h51l-286 -287h-52zM260 1143l287 287h26v-25 l-262 -262h-51zM299 1700q0 59 41.5 101.5t101.5 42.5q59 0 101 -42.5t42 -101.5t-42 -101t-101 -42t-101 42t-42 101zM330 1143l243 243v-51l-192 -192h-51zM379 -4v18l268 269h51l-286 -287h-33zM379 33v51l199 199h51zM379 102v52l131 129h51zM379 172v51l61 60h52z M379 242v41h43zM399 1143l174 174v-51l-122 -123h-52zM430 -4l287 287h51l-287 -287h-51zM469 1143l104 104v-51l-53 -53h-51zM500 -4l286 287h52l-287 -287h-51zM537 1143l36 37v-37h-36zM569 -4l287 287h51l-286 -287h-52zM639 -4l287 287h26v-23l-262 -264h-51zM707 -4 l245 246v-52l-194 -194h-51zM743 1700q0 59 42 101.5t101 42.5t101.5 -42.5t42.5 -101.5t-42 -101t-102 -42q-59 0 -101 42t-42 101zM776 -4l176 176v-51l-125 -125h-51zM846 -4l106 106v-51l-55 -55h-51zM915 -4l37 39v-39h-37z" />
<glyph unicode="&#x152;" horiz-adv-x="1705" d="M0 426l4 4h51l-51 -51q-2 12 -3 24.5t-1 22.5zM6 362l66 68h51l-109 -108q-4 10 -5 20t-3 20zM18 307l123 123h52l-162 -162q-4 10 -6 19.5t-7 19.5zM37 256l174 174h51l-209 -209q-4 10 -8 17.5t-8 17.5zM61 211l220 219h6q0 -20 6 -39l-211 -211q-6 6 -11 14.5 t-10 16.5zM88 170l209 207q6 -16 18 -33l-202 -203q-6 6 -12.5 13.5t-12.5 15.5zM121 131l203 203q6 -6 12 -12.5t14 -10.5l-203 -205q-8 6 -14 12.5t-12 12.5zM156 98l206 205q14 -8 37 -12l-213 -215q-8 6 -15 11t-15 11zM197 70l219 217h14h35l-236 -238q-18 10 -32 21z M242 43l241 244h52l-259 -258q-10 4 -18 7t-16 7zM289 25l264 262h51l-274 -275q-18 2 -41 13zM344 8l279 279h51l-285 -285q-12 2 -23.5 3t-21.5 3zM406 0l286 287h51l-286 -287h-27h-24zM473 0l287 287h51l-287 -287h-51zM543 0l286 287h52l-287 -287h-51zM612 0l287 287 h51l-286 -287h-52zM682 0l287 287h51l-287 -287h-51zM717 573v17l270 270h51l-286 -287h-35zM717 608v51l201 201h51zM717 676v51l133 133h51zM717 745v52l63 63h51zM717 815v45h45zM752 0l286 287h52l-287 -287h-51zM770 573l287 287h51l-287 -287h-51zM821 0l287 287h51 l-287 -287h-51zM840 573l286 287h52l-287 -287h-51zM889 0l287 287h51l-287 -287h-51zM909 573l287 287h51l-286 -287h-52zM958 0l287 287h45v-6l-280 -281h-52zM979 573l287 287h24v-26l-260 -261h-51zM1028 0l262 262v-51l-211 -211h-51zM1047 573l243 244v-51l-192 -193 h-51zM1098 0l192 193v-52l-141 -141h-51zM1116 573l174 175v-52l-123 -123h-51zM1167 0l123 123v-51l-71 -72h-52zM1186 573l104 105v-51l-53 -54h-51zM1237 0l53 53v-51l-2 -2h-51zM1255 573l35 35v-35h-35zM1290 1004v20l287 287v-51l-256 -256h-31zM1290 1042v52l287 286 v-51zM1290 1112v51l271 271h16v-35zM1290 1182v51l201 201h51zM1290 1249v51l133 134h52zM1290 1319v51l64 64h51zM1290 1389v45h45zM1339 1004l238 237v-51l-186 -186h-52zM1409 1004l168 167v-51l-117 -116h-51zM1477 1004l100 100v-51l-49 -49h-51zM1546 1004l31 30v-30 h-31z" />
<glyph unicode="&#x153;" horiz-adv-x="1705" d="M0 426l4 4h51l-51 -51q-2 12 -3 24.5t-1 22.5zM6 362l66 68h51l-109 -108q-4 10 -5 20t-3 20zM18 307l123 123h52l-162 -162q-4 10 -6 19.5t-7 19.5zM37 256l174 174h51l-209 -209q-4 10 -8 17.5t-8 17.5zM61 211l220 219h6q0 -20 6 -39l-211 -211q-6 6 -11 14.5 t-10 16.5zM88 170l209 207q6 -16 18 -33l-202 -203q-6 6 -12.5 13.5t-12.5 15.5zM121 131l203 203q6 -6 12 -12.5t14 -10.5l-203 -205q-8 6 -14 12.5t-12 12.5zM156 98l206 205q14 -8 37 -12l-213 -215q-8 6 -15 11t-15 11zM197 70l219 217h14h35l-236 -238q-18 10 -32 21z M242 43l241 244h52l-259 -258q-10 4 -18 7t-16 7zM289 25l264 262h51l-274 -275q-18 2 -41 13zM344 8l279 279h51l-285 -285q-12 2 -23.5 3t-21.5 3zM406 0l286 287h51l-286 -287h-27h-24zM473 0l287 287h51l-287 -287h-51zM543 0l286 287h52l-287 -287h-51zM612 0l287 287 h51l-286 -287h-52zM682 0l287 287h51l-287 -287h-51zM717 573v17l270 270h51l-286 -287h-35zM717 608v51l201 201h51zM717 676v51l133 133h51zM717 745v52l63 63h51zM717 815v45h45zM752 0l286 287h52l-287 -287h-51zM770 573l287 287h51l-287 -287h-51zM821 0l287 287h51 l-287 -287h-51zM840 573l286 287h52l-287 -287h-51zM889 0l287 287h51l-287 -287h-51zM909 573l287 287h51l-286 -287h-52zM958 0l287 287h45v-6l-280 -281h-52zM979 573l287 287h24v-26l-260 -261h-51zM1028 0l262 262v-51l-211 -211h-51zM1047 573l243 244v-51l-192 -193 h-51zM1098 0l192 193v-52l-141 -141h-51zM1116 573l174 175v-52l-123 -123h-51zM1167 0l123 123v-51l-71 -72h-52zM1186 573l104 105v-51l-53 -54h-51zM1237 0l53 53v-51l-2 -2h-51zM1255 573l35 35v-35h-35zM1290 1004v20l287 287v-51l-256 -256h-31zM1290 1042v52l287 286 v-51zM1290 1112v51l271 271h16v-35zM1290 1182v51l201 201h51zM1290 1249v51l133 134h52zM1290 1319v51l64 64h51zM1290 1389v45h45zM1339 1004l238 237v-51l-186 -186h-52zM1409 1004l168 167v-51l-117 -116h-51zM1477 1004l100 100v-51l-49 -49h-51zM1546 1004l31 30v-30 h-31z" />
<glyph unicode="&#x178;" horiz-adv-x="1464" d="M0 1143v16l270 271h52l-287 -287h-35zM0 1178v51l201 201h51zM0 1247v51l131 132h51zM0 1317v51l61 62h52zM0 1386v44h43zM53 1143l287 287h51l-287 -287h-51zM121 1143l287 287h51l-287 -287h-51zM190 1143l287 287h51l-286 -287h-52zM260 1143l287 287h26v-25 l-262 -262h-51zM299 1700q0 59 41.5 101.5t101.5 42.5q59 0 101 -42.5t42 -101.5t-42 -101t-101 -42t-101 42t-42 101zM330 1143l243 243v-51l-192 -192h-51zM379 -4v18l268 269h51l-286 -287h-33zM379 33v51l199 199h51zM379 102v52l131 129h51zM379 172v51l61 60h52z M379 242v41h43zM399 1143l174 174v-51l-122 -123h-52zM430 -4l287 287h51l-287 -287h-51zM469 1143l104 104v-51l-53 -53h-51zM500 -4l286 287h52l-287 -287h-51zM537 1143l36 37v-37h-36zM569 -4l287 287h51l-286 -287h-52zM639 -4l287 287h26v-23l-262 -264h-51zM707 -4 l245 246v-52l-194 -194h-51zM743 1700q0 59 42 101.5t101 42.5t101.5 -42.5t42.5 -101.5t-42 -101t-102 -42q-59 0 -101 42t-42 101zM776 -4l176 176v-51l-125 -125h-51zM846 -4l106 106v-51l-55 -55h-51zM915 -4l37 39v-39h-37z" />
<glyph unicode="&#x2c6;" horiz-adv-x="944" d="M-102 1227l137 207h248l-138 -207h-247zM442 1434h248l137 -207h-247z" />
<glyph unicode="&#x2dc;" horiz-adv-x="989" d="M0 1235v219q78 14 142.5 18.5t118.5 0t101.5 -13.5t90.5 -19t85 -18.5t89 -10.5t103 3t128 22l2 -9v-210q-57 -12 -106 -16.5t-92 -4.5q-78 0 -139.5 10.5t-116.5 24.5q-43 10 -85 18t-90.5 10.5t-103.5 -3t-127 -21.5z" />
<glyph unicode="&#x2000;" horiz-adv-x="956" />
<glyph unicode="&#x2001;" horiz-adv-x="1913" />
<glyph unicode="&#x2002;" horiz-adv-x="956" />
<glyph unicode="&#x2003;" horiz-adv-x="1913" />
<glyph unicode="&#x2004;" horiz-adv-x="637" />
<glyph unicode="&#x2005;" horiz-adv-x="478" />
<glyph unicode="&#x2006;" horiz-adv-x="318" />
<glyph unicode="&#x2007;" horiz-adv-x="318" />
<glyph unicode="&#x2008;" horiz-adv-x="239" />
<glyph unicode="&#x2009;" horiz-adv-x="382" />
<glyph unicode="&#x200a;" horiz-adv-x="106" />
<glyph unicode="&#x2010;" horiz-adv-x="989" d="M0 573v23l264 264h23v-29l-258 -258h-29zM0 614v52l195 194h51zM0 682v51l127 127h51zM0 752v51l57 57h52zM0 821v39h39zM47 573l240 240v-51l-189 -189h-51zM117 573l170 170v-51l-119 -119h-51zM186 573l101 101v-51l-49 -50h-52zM256 573l31 31v-31h-31z" />
<glyph unicode="&#x2011;" horiz-adv-x="989" d="M0 573v23l264 264h23v-29l-258 -258h-29zM0 614v52l195 194h51zM0 682v51l127 127h51zM0 752v51l57 57h52zM0 821v39h39zM47 573l240 240v-51l-189 -189h-51zM117 573l170 170v-51l-119 -119h-51zM186 573l101 101v-51l-49 -50h-52zM256 573l31 31v-31h-31z" />
<glyph unicode="&#x2012;" horiz-adv-x="989" d="M0 573v23l264 264h23v-29l-258 -258h-29zM0 614v52l195 194h51zM0 682v51l127 127h51zM0 752v51l57 57h52zM0 821v39h39zM47 573l240 240v-51l-189 -189h-51zM117 573l170 170v-51l-119 -119h-51zM186 573l101 101v-51l-49 -50h-52zM256 573l31 31v-31h-31z" />
<glyph unicode="&#x2013;" d="M287 573v23l264 264h51l-287 -287h-28zM287 614v52l194 194h51zM287 684v51l125 125h51zM287 752v51l57 57h51zM287 821v39h39zM334 573l287 287h51l-287 -287h-51zM403 573l287 287h51l-286 -287h-52zM473 573l287 287h51l-287 -287h-51zM541 573l286 287h52l-287 -287 h-51zM610 573l287 287h51l-286 -287h-52zM680 573l287 287h51l-287 -287h-51zM750 573l286 287h51l-286 -287h-51zM819 573l287 287h41v-10l-277 -277h-51zM889 573l258 258v-51l-207 -207h-51zM956 573l191 191v-51l-139 -140h-52zM1026 573l121 121v-51l-70 -70h-51z M1096 573l51 52v-52h-51z" />
<glyph unicode="&#x2014;" horiz-adv-x="1560" d="M0 573v2l285 285h51l-287 -287h-49zM0 592v51l217 217h51zM0 662v51l147 147h52zM0 731v51l78 78h51zM0 801v51l8 8h51zM68 573l286 287h52l-287 -287h-51zM137 573l287 287h51l-287 -287h-51zM207 573l287 287h51l-287 -287h-51zM276 573l287 287h51l-286 -287h-52z M346 573l287 287h51l-287 -287h-51zM414 573l286 287h52l-287 -287h-51zM483 573l287 287h51l-286 -287h-52zM553 573l287 287h20v-31l-256 -256h-51zM623 573l237 238v-51l-186 -187h-51zM692 573l168 168v-51l-117 -117h-51zM762 573l98 99v-51l-47 -48h-51zM829 573 l31 31v-31h-31z" />
<glyph unicode="&#x2018;" horiz-adv-x="559" d="M0 1591h303l143 -430h-303z" />
<glyph unicode="&#x2019;" horiz-adv-x="561" d="M0 1161l143 430h303l-143 -430h-303z" />
<glyph unicode="&#x201a;" horiz-adv-x="1705" d="M0 -143l143 430h303l-143 -430h-303z" />
<glyph unicode="&#x201c;" horiz-adv-x="1003" d="M0 1591h303l143 -430h-303zM444 1591h304l143 -430h-303z" />
<glyph unicode="&#x201d;" horiz-adv-x="1003" d="M0 1161l143 430h303l-143 -430h-303zM444 1161l144 430h303l-143 -430h-304z" />
<glyph unicode="&#x201e;" horiz-adv-x="1003" d="M0 -143l143 430h303l-143 -430h-303zM444 -143l144 430h303l-143 -430h-304z" />
<glyph unicode="&#x2022;" horiz-adv-x="749" d="M0 731q0 63 24.5 120.5t67.5 100.5t99 67.5t122 24.5t123.5 -24.5t100.5 -67.5t67.5 -100t24.5 -121q0 -66 -24.5 -123t-67.5 -99t-100.5 -66.5t-123.5 -24.5t-122 24.5t-99 66.5t-67.5 99.5t-24.5 122.5z" />
<glyph unicode="&#x2026;" horiz-adv-x="1376" d="M0 172q0 72 50 122t122 50t122 -50t50 -122t-50 -122t-122 -50t-122 50t-50 122zM459 172q0 72 50 122t122 50t122 -50t50 -122t-50.5 -122t-121.5 -50q-72 0 -122 50t-50 122zM918 172q0 72 50 122t122 50t122 -50t50 -122t-50.5 -122t-121.5 -50q-72 0 -122 50t-50 122 z" />
<glyph unicode="&#x202f;" horiz-adv-x="382" />
<glyph unicode="&#x2039;" horiz-adv-x="819" d="M0 705l203 202l14 -14l-203 -203zM25 680l202 203l25 -25l-203 -203zM59 645l203 203l25 -25l-203 -202zM94 610l203 203l25 -25l-203 -202zM129 575l203 203l24 -24l-202 -203zM162 543l203 200l26 -24l-203 -203zM197 508l202 203l27 -27l-203 -203zM231 473l203 203 l27 -27l-203 -203zM266 438l203 203l27 -27l-203 -202zM301 403l203 203l26 -26l-202 -203zM336 369l203 202l26 -26l-203 -203zM371 334l202 203l25 -27l-203 -203zM406 299l202 203l25 -25l-203 -203zM440 264l203 203l25 -25l-203 -202zM475 229l203 203l24 -24 l-202 -203zM510 195l195 196v-51l-170 -170zM545 160l160 162v-52l-136 -135zM580 125l125 127v-51l-101 -101zM612 92l93 90v-51l-66 -65zM647 57l58 56v-52l-31 -30zM682 23l23 20v-43z" />
<glyph unicode="&#x203a;" horiz-adv-x="819" d="M0 0v43l684 682l21 -20zM0 61v52l649 647l25 -25zM0 129v51l614 615l25 -25zM0 199v51l580 579l24 -24zM0 268v51l545 545l24 -24zM0 338v51l510 510l27 -27z" />
<glyph unicode="&#x205f;" horiz-adv-x="478" />
<glyph unicode="&#x20ac;" horiz-adv-x="1402" d="M143 438v51l287 287v-51zM143 506v51l287 287v-51zM143 575v52l287 286v-51zM143 645v51l287 287v-51zM143 715v51l303 303q-16 -33 -16 -65v-3zM143 784v52l598 598h52zM143 854v51l529 529h51zM143 922v51l461 461h51zM143 991v13v20t2 20l387 388q10 2 20.5 2h20.5h13 zM147 1065q4 16 7.5 33.5t9.5 34.5l280 280q16 6 34 9t34 8zM154 430l276 277v-52l-225 -225h-51zM172 1159q35 86 97.5 148.5t148.5 97.5zM223 430l207 207v-51l-156 -156h-51zM293 430l137 137v-51l-86 -86h-51zM362 430l68 68v-52l-16 -16h-52zM508 1130l303 304h49v-2 l-285 -285h-2q-33 0 -65 -17zM594 1147l266 266v-51l-215 -215h-51zM664 1147l196 196v-51l-145 -145h-51zM733 1147l127 127v-51l-76 -76h-51zM801 1147l59 59v-51l-8 -8h-51z" />
<glyph unicode="&#x2122;" horiz-adv-x="716" d="M0 1231v92h246v-92h-62v31h-30v-185h30v-61h-123v61h31v185h-31v-31h-61zM276 1016v61h31v185h-31v61h93l61 -96l59 96h95v-61h-31v-185h31v-61h-123v61h31v133l-62 -98l-61 98v-133h30v-61h-123z" />
<glyph unicode="&#x25fc;" horiz-adv-x="1433" d="M0 0v1434h1434v-1434h-1434z" />
</font>
</defs>
</svg>
